%TF.GenerationSoftware,KiCad,Pcbnew,9.0.5*%
%TF.CreationDate,2026-02-16T01:24:03-07:00*%
%TF.ProjectId,Capstone,43617073-746f-46e6-952e-6b696361645f,rev?*%
%TF.SameCoordinates,Original*%
%TF.FileFunction,Drillmap*%
%TF.FilePolarity,Positive*%
%FSLAX45Y45*%
G04 Gerber Fmt 4.5, Leading zero omitted, Abs format (unit mm)*
G04 Created by KiCad (PCBNEW 9.0.5) date 2026-02-16 01:24:03*
%MOMM*%
%LPD*%
G01*
G04 APERTURE LIST*
%ADD10C,0.050000*%
%ADD11C,0.200000*%
%ADD12C,0.304800*%
G04 APERTURE END LIST*
D10*
X5454000Y-5900000D02*
X21504000Y-5900000D01*
X21504000Y-16250000D01*
X5454000Y-16250000D01*
X5454000Y-5900000D01*
D11*
D12*
X6078625Y-10569060D02*
X6383425Y-10873860D01*
X6383425Y-10569060D02*
X6078625Y-10873860D01*
X20574075Y-10393640D02*
X20878875Y-10698440D01*
X20878875Y-10393640D02*
X20574075Y-10698440D01*
D11*
X5712277Y-16563984D02*
X5712277Y-16363984D01*
X5712277Y-16363984D02*
X5759896Y-16363984D01*
X5759896Y-16363984D02*
X5788467Y-16373508D01*
X5788467Y-16373508D02*
X5807515Y-16392555D01*
X5807515Y-16392555D02*
X5817039Y-16411603D01*
X5817039Y-16411603D02*
X5826562Y-16449698D01*
X5826562Y-16449698D02*
X5826562Y-16478269D01*
X5826562Y-16478269D02*
X5817039Y-16516365D01*
X5817039Y-16516365D02*
X5807515Y-16535412D01*
X5807515Y-16535412D02*
X5788467Y-16554460D01*
X5788467Y-16554460D02*
X5759896Y-16563984D01*
X5759896Y-16563984D02*
X5712277Y-16563984D01*
X5912277Y-16563984D02*
X5912277Y-16430650D01*
X5912277Y-16468746D02*
X5921801Y-16449698D01*
X5921801Y-16449698D02*
X5931324Y-16440174D01*
X5931324Y-16440174D02*
X5950372Y-16430650D01*
X5950372Y-16430650D02*
X5969420Y-16430650D01*
X6036086Y-16563984D02*
X6036086Y-16430650D01*
X6036086Y-16363984D02*
X6026562Y-16373508D01*
X6026562Y-16373508D02*
X6036086Y-16383031D01*
X6036086Y-16383031D02*
X6045610Y-16373508D01*
X6045610Y-16373508D02*
X6036086Y-16363984D01*
X6036086Y-16363984D02*
X6036086Y-16383031D01*
X6159896Y-16563984D02*
X6140848Y-16554460D01*
X6140848Y-16554460D02*
X6131324Y-16535412D01*
X6131324Y-16535412D02*
X6131324Y-16363984D01*
X6264658Y-16563984D02*
X6245610Y-16554460D01*
X6245610Y-16554460D02*
X6236086Y-16535412D01*
X6236086Y-16535412D02*
X6236086Y-16363984D01*
X6493229Y-16563984D02*
X6493229Y-16363984D01*
X6493229Y-16363984D02*
X6559896Y-16506841D01*
X6559896Y-16506841D02*
X6626562Y-16363984D01*
X6626562Y-16363984D02*
X6626562Y-16563984D01*
X6807515Y-16563984D02*
X6807515Y-16459222D01*
X6807515Y-16459222D02*
X6797991Y-16440174D01*
X6797991Y-16440174D02*
X6778943Y-16430650D01*
X6778943Y-16430650D02*
X6740848Y-16430650D01*
X6740848Y-16430650D02*
X6721801Y-16440174D01*
X6807515Y-16554460D02*
X6788467Y-16563984D01*
X6788467Y-16563984D02*
X6740848Y-16563984D01*
X6740848Y-16563984D02*
X6721801Y-16554460D01*
X6721801Y-16554460D02*
X6712277Y-16535412D01*
X6712277Y-16535412D02*
X6712277Y-16516365D01*
X6712277Y-16516365D02*
X6721801Y-16497317D01*
X6721801Y-16497317D02*
X6740848Y-16487793D01*
X6740848Y-16487793D02*
X6788467Y-16487793D01*
X6788467Y-16487793D02*
X6807515Y-16478269D01*
X6902753Y-16430650D02*
X6902753Y-16630650D01*
X6902753Y-16440174D02*
X6921801Y-16430650D01*
X6921801Y-16430650D02*
X6959896Y-16430650D01*
X6959896Y-16430650D02*
X6978943Y-16440174D01*
X6978943Y-16440174D02*
X6988467Y-16449698D01*
X6988467Y-16449698D02*
X6997991Y-16468746D01*
X6997991Y-16468746D02*
X6997991Y-16525888D01*
X6997991Y-16525888D02*
X6988467Y-16544936D01*
X6988467Y-16544936D02*
X6978943Y-16554460D01*
X6978943Y-16554460D02*
X6959896Y-16563984D01*
X6959896Y-16563984D02*
X6921801Y-16563984D01*
X6921801Y-16563984D02*
X6902753Y-16554460D01*
X7083705Y-16544936D02*
X7093229Y-16554460D01*
X7093229Y-16554460D02*
X7083705Y-16563984D01*
X7083705Y-16563984D02*
X7074182Y-16554460D01*
X7074182Y-16554460D02*
X7083705Y-16544936D01*
X7083705Y-16544936D02*
X7083705Y-16563984D01*
X7083705Y-16440174D02*
X7093229Y-16449698D01*
X7093229Y-16449698D02*
X7083705Y-16459222D01*
X7083705Y-16459222D02*
X7074182Y-16449698D01*
X7074182Y-16449698D02*
X7083705Y-16440174D01*
X7083705Y-16440174D02*
X7083705Y-16459222D01*
X5251500Y-16792500D02*
X5451500Y-16992500D01*
X5451500Y-16792500D02*
X5251500Y-16992500D01*
X5693229Y-16783984D02*
X5817039Y-16783984D01*
X5817039Y-16783984D02*
X5750372Y-16860174D01*
X5750372Y-16860174D02*
X5778943Y-16860174D01*
X5778943Y-16860174D02*
X5797991Y-16869698D01*
X5797991Y-16869698D02*
X5807515Y-16879222D01*
X5807515Y-16879222D02*
X5817039Y-16898270D01*
X5817039Y-16898270D02*
X5817039Y-16945889D01*
X5817039Y-16945889D02*
X5807515Y-16964936D01*
X5807515Y-16964936D02*
X5797991Y-16974460D01*
X5797991Y-16974460D02*
X5778943Y-16983984D01*
X5778943Y-16983984D02*
X5721801Y-16983984D01*
X5721801Y-16983984D02*
X5702753Y-16974460D01*
X5702753Y-16974460D02*
X5693229Y-16964936D01*
X5902753Y-16964936D02*
X5912277Y-16974460D01*
X5912277Y-16974460D02*
X5902753Y-16983984D01*
X5902753Y-16983984D02*
X5893229Y-16974460D01*
X5893229Y-16974460D02*
X5902753Y-16964936D01*
X5902753Y-16964936D02*
X5902753Y-16983984D01*
X6036086Y-16783984D02*
X6055134Y-16783984D01*
X6055134Y-16783984D02*
X6074182Y-16793508D01*
X6074182Y-16793508D02*
X6083705Y-16803031D01*
X6083705Y-16803031D02*
X6093229Y-16822079D01*
X6093229Y-16822079D02*
X6102753Y-16860174D01*
X6102753Y-16860174D02*
X6102753Y-16907793D01*
X6102753Y-16907793D02*
X6093229Y-16945889D01*
X6093229Y-16945889D02*
X6083705Y-16964936D01*
X6083705Y-16964936D02*
X6074182Y-16974460D01*
X6074182Y-16974460D02*
X6055134Y-16983984D01*
X6055134Y-16983984D02*
X6036086Y-16983984D01*
X6036086Y-16983984D02*
X6017039Y-16974460D01*
X6017039Y-16974460D02*
X6007515Y-16964936D01*
X6007515Y-16964936D02*
X5997991Y-16945889D01*
X5997991Y-16945889D02*
X5988467Y-16907793D01*
X5988467Y-16907793D02*
X5988467Y-16860174D01*
X5988467Y-16860174D02*
X5997991Y-16822079D01*
X5997991Y-16822079D02*
X6007515Y-16803031D01*
X6007515Y-16803031D02*
X6017039Y-16793508D01*
X6017039Y-16793508D02*
X6036086Y-16783984D01*
X6274182Y-16850650D02*
X6274182Y-16983984D01*
X6226562Y-16774460D02*
X6178943Y-16917317D01*
X6178943Y-16917317D02*
X6302753Y-16917317D01*
X6407515Y-16869698D02*
X6388467Y-16860174D01*
X6388467Y-16860174D02*
X6378943Y-16850650D01*
X6378943Y-16850650D02*
X6369420Y-16831603D01*
X6369420Y-16831603D02*
X6369420Y-16822079D01*
X6369420Y-16822079D02*
X6378943Y-16803031D01*
X6378943Y-16803031D02*
X6388467Y-16793508D01*
X6388467Y-16793508D02*
X6407515Y-16783984D01*
X6407515Y-16783984D02*
X6445610Y-16783984D01*
X6445610Y-16783984D02*
X6464658Y-16793508D01*
X6464658Y-16793508D02*
X6474182Y-16803031D01*
X6474182Y-16803031D02*
X6483705Y-16822079D01*
X6483705Y-16822079D02*
X6483705Y-16831603D01*
X6483705Y-16831603D02*
X6474182Y-16850650D01*
X6474182Y-16850650D02*
X6464658Y-16860174D01*
X6464658Y-16860174D02*
X6445610Y-16869698D01*
X6445610Y-16869698D02*
X6407515Y-16869698D01*
X6407515Y-16869698D02*
X6388467Y-16879222D01*
X6388467Y-16879222D02*
X6378943Y-16888746D01*
X6378943Y-16888746D02*
X6369420Y-16907793D01*
X6369420Y-16907793D02*
X6369420Y-16945889D01*
X6369420Y-16945889D02*
X6378943Y-16964936D01*
X6378943Y-16964936D02*
X6388467Y-16974460D01*
X6388467Y-16974460D02*
X6407515Y-16983984D01*
X6407515Y-16983984D02*
X6445610Y-16983984D01*
X6445610Y-16983984D02*
X6464658Y-16974460D01*
X6464658Y-16974460D02*
X6474182Y-16964936D01*
X6474182Y-16964936D02*
X6483705Y-16945889D01*
X6483705Y-16945889D02*
X6483705Y-16907793D01*
X6483705Y-16907793D02*
X6474182Y-16888746D01*
X6474182Y-16888746D02*
X6464658Y-16879222D01*
X6464658Y-16879222D02*
X6445610Y-16869698D01*
X6569420Y-16983984D02*
X6569420Y-16850650D01*
X6569420Y-16869698D02*
X6578943Y-16860174D01*
X6578943Y-16860174D02*
X6597991Y-16850650D01*
X6597991Y-16850650D02*
X6626563Y-16850650D01*
X6626563Y-16850650D02*
X6645610Y-16860174D01*
X6645610Y-16860174D02*
X6655134Y-16879222D01*
X6655134Y-16879222D02*
X6655134Y-16983984D01*
X6655134Y-16879222D02*
X6664658Y-16860174D01*
X6664658Y-16860174D02*
X6683705Y-16850650D01*
X6683705Y-16850650D02*
X6712277Y-16850650D01*
X6712277Y-16850650D02*
X6731324Y-16860174D01*
X6731324Y-16860174D02*
X6740848Y-16879222D01*
X6740848Y-16879222D02*
X6740848Y-16983984D01*
X6836086Y-16983984D02*
X6836086Y-16850650D01*
X6836086Y-16869698D02*
X6845610Y-16860174D01*
X6845610Y-16860174D02*
X6864658Y-16850650D01*
X6864658Y-16850650D02*
X6893229Y-16850650D01*
X6893229Y-16850650D02*
X6912277Y-16860174D01*
X6912277Y-16860174D02*
X6921801Y-16879222D01*
X6921801Y-16879222D02*
X6921801Y-16983984D01*
X6921801Y-16879222D02*
X6931324Y-16860174D01*
X6931324Y-16860174D02*
X6950372Y-16850650D01*
X6950372Y-16850650D02*
X6978943Y-16850650D01*
X6978943Y-16850650D02*
X6997991Y-16860174D01*
X6997991Y-16860174D02*
X7007515Y-16879222D01*
X7007515Y-16879222D02*
X7007515Y-16983984D01*
X7397991Y-16774460D02*
X7226563Y-17031603D01*
X7655134Y-16783984D02*
X7674182Y-16783984D01*
X7674182Y-16783984D02*
X7693229Y-16793508D01*
X7693229Y-16793508D02*
X7702753Y-16803031D01*
X7702753Y-16803031D02*
X7712277Y-16822079D01*
X7712277Y-16822079D02*
X7721801Y-16860174D01*
X7721801Y-16860174D02*
X7721801Y-16907793D01*
X7721801Y-16907793D02*
X7712277Y-16945889D01*
X7712277Y-16945889D02*
X7702753Y-16964936D01*
X7702753Y-16964936D02*
X7693229Y-16974460D01*
X7693229Y-16974460D02*
X7674182Y-16983984D01*
X7674182Y-16983984D02*
X7655134Y-16983984D01*
X7655134Y-16983984D02*
X7636086Y-16974460D01*
X7636086Y-16974460D02*
X7626563Y-16964936D01*
X7626563Y-16964936D02*
X7617039Y-16945889D01*
X7617039Y-16945889D02*
X7607515Y-16907793D01*
X7607515Y-16907793D02*
X7607515Y-16860174D01*
X7607515Y-16860174D02*
X7617039Y-16822079D01*
X7617039Y-16822079D02*
X7626563Y-16803031D01*
X7626563Y-16803031D02*
X7636086Y-16793508D01*
X7636086Y-16793508D02*
X7655134Y-16783984D01*
X7807515Y-16964936D02*
X7817039Y-16974460D01*
X7817039Y-16974460D02*
X7807515Y-16983984D01*
X7807515Y-16983984D02*
X7797991Y-16974460D01*
X7797991Y-16974460D02*
X7807515Y-16964936D01*
X7807515Y-16964936D02*
X7807515Y-16983984D01*
X8007515Y-16983984D02*
X7893229Y-16983984D01*
X7950372Y-16983984D02*
X7950372Y-16783984D01*
X7950372Y-16783984D02*
X7931325Y-16812555D01*
X7931325Y-16812555D02*
X7912277Y-16831603D01*
X7912277Y-16831603D02*
X7893229Y-16841127D01*
X8083706Y-16803031D02*
X8093229Y-16793508D01*
X8093229Y-16793508D02*
X8112277Y-16783984D01*
X8112277Y-16783984D02*
X8159896Y-16783984D01*
X8159896Y-16783984D02*
X8178944Y-16793508D01*
X8178944Y-16793508D02*
X8188467Y-16803031D01*
X8188467Y-16803031D02*
X8197991Y-16822079D01*
X8197991Y-16822079D02*
X8197991Y-16841127D01*
X8197991Y-16841127D02*
X8188467Y-16869698D01*
X8188467Y-16869698D02*
X8074182Y-16983984D01*
X8074182Y-16983984D02*
X8197991Y-16983984D01*
X8321801Y-16783984D02*
X8340848Y-16783984D01*
X8340848Y-16783984D02*
X8359896Y-16793508D01*
X8359896Y-16793508D02*
X8369420Y-16803031D01*
X8369420Y-16803031D02*
X8378944Y-16822079D01*
X8378944Y-16822079D02*
X8388467Y-16860174D01*
X8388467Y-16860174D02*
X8388467Y-16907793D01*
X8388467Y-16907793D02*
X8378944Y-16945889D01*
X8378944Y-16945889D02*
X8369420Y-16964936D01*
X8369420Y-16964936D02*
X8359896Y-16974460D01*
X8359896Y-16974460D02*
X8340848Y-16983984D01*
X8340848Y-16983984D02*
X8321801Y-16983984D01*
X8321801Y-16983984D02*
X8302753Y-16974460D01*
X8302753Y-16974460D02*
X8293229Y-16964936D01*
X8293229Y-16964936D02*
X8283706Y-16945889D01*
X8283706Y-16945889D02*
X8274182Y-16907793D01*
X8274182Y-16907793D02*
X8274182Y-16860174D01*
X8274182Y-16860174D02*
X8283706Y-16822079D01*
X8283706Y-16822079D02*
X8293229Y-16803031D01*
X8293229Y-16803031D02*
X8302753Y-16793508D01*
X8302753Y-16793508D02*
X8321801Y-16783984D01*
X8512277Y-16783984D02*
X8531325Y-16783984D01*
X8531325Y-16783984D02*
X8550372Y-16793508D01*
X8550372Y-16793508D02*
X8559896Y-16803031D01*
X8559896Y-16803031D02*
X8569420Y-16822079D01*
X8569420Y-16822079D02*
X8578944Y-16860174D01*
X8578944Y-16860174D02*
X8578944Y-16907793D01*
X8578944Y-16907793D02*
X8569420Y-16945889D01*
X8569420Y-16945889D02*
X8559896Y-16964936D01*
X8559896Y-16964936D02*
X8550372Y-16974460D01*
X8550372Y-16974460D02*
X8531325Y-16983984D01*
X8531325Y-16983984D02*
X8512277Y-16983984D01*
X8512277Y-16983984D02*
X8493229Y-16974460D01*
X8493229Y-16974460D02*
X8483706Y-16964936D01*
X8483706Y-16964936D02*
X8474182Y-16945889D01*
X8474182Y-16945889D02*
X8464658Y-16907793D01*
X8464658Y-16907793D02*
X8464658Y-16860174D01*
X8464658Y-16860174D02*
X8474182Y-16822079D01*
X8474182Y-16822079D02*
X8483706Y-16803031D01*
X8483706Y-16803031D02*
X8493229Y-16793508D01*
X8493229Y-16793508D02*
X8512277Y-16783984D01*
X8655134Y-16783984D02*
X8655134Y-16822079D01*
X8731325Y-16783984D02*
X8731325Y-16822079D01*
X9026563Y-17060174D02*
X9017039Y-17050650D01*
X9017039Y-17050650D02*
X8997991Y-17022079D01*
X8997991Y-17022079D02*
X8988468Y-17003031D01*
X8988468Y-17003031D02*
X8978944Y-16974460D01*
X8978944Y-16974460D02*
X8969420Y-16926841D01*
X8969420Y-16926841D02*
X8969420Y-16888746D01*
X8969420Y-16888746D02*
X8978944Y-16841127D01*
X8978944Y-16841127D02*
X8988468Y-16812555D01*
X8988468Y-16812555D02*
X8997991Y-16793508D01*
X8997991Y-16793508D02*
X9017039Y-16764936D01*
X9017039Y-16764936D02*
X9026563Y-16755412D01*
X9093230Y-16803031D02*
X9102753Y-16793508D01*
X9102753Y-16793508D02*
X9121801Y-16783984D01*
X9121801Y-16783984D02*
X9169420Y-16783984D01*
X9169420Y-16783984D02*
X9188468Y-16793508D01*
X9188468Y-16793508D02*
X9197991Y-16803031D01*
X9197991Y-16803031D02*
X9207515Y-16822079D01*
X9207515Y-16822079D02*
X9207515Y-16841127D01*
X9207515Y-16841127D02*
X9197991Y-16869698D01*
X9197991Y-16869698D02*
X9083706Y-16983984D01*
X9083706Y-16983984D02*
X9207515Y-16983984D01*
X9445611Y-16983984D02*
X9445611Y-16783984D01*
X9531325Y-16983984D02*
X9531325Y-16879222D01*
X9531325Y-16879222D02*
X9521801Y-16860174D01*
X9521801Y-16860174D02*
X9502753Y-16850650D01*
X9502753Y-16850650D02*
X9474182Y-16850650D01*
X9474182Y-16850650D02*
X9455134Y-16860174D01*
X9455134Y-16860174D02*
X9445611Y-16869698D01*
X9655134Y-16983984D02*
X9636087Y-16974460D01*
X9636087Y-16974460D02*
X9626563Y-16964936D01*
X9626563Y-16964936D02*
X9617039Y-16945889D01*
X9617039Y-16945889D02*
X9617039Y-16888746D01*
X9617039Y-16888746D02*
X9626563Y-16869698D01*
X9626563Y-16869698D02*
X9636087Y-16860174D01*
X9636087Y-16860174D02*
X9655134Y-16850650D01*
X9655134Y-16850650D02*
X9683706Y-16850650D01*
X9683706Y-16850650D02*
X9702753Y-16860174D01*
X9702753Y-16860174D02*
X9712277Y-16869698D01*
X9712277Y-16869698D02*
X9721801Y-16888746D01*
X9721801Y-16888746D02*
X9721801Y-16945889D01*
X9721801Y-16945889D02*
X9712277Y-16964936D01*
X9712277Y-16964936D02*
X9702753Y-16974460D01*
X9702753Y-16974460D02*
X9683706Y-16983984D01*
X9683706Y-16983984D02*
X9655134Y-16983984D01*
X9836087Y-16983984D02*
X9817039Y-16974460D01*
X9817039Y-16974460D02*
X9807515Y-16955412D01*
X9807515Y-16955412D02*
X9807515Y-16783984D01*
X9988468Y-16974460D02*
X9969420Y-16983984D01*
X9969420Y-16983984D02*
X9931325Y-16983984D01*
X9931325Y-16983984D02*
X9912277Y-16974460D01*
X9912277Y-16974460D02*
X9902753Y-16955412D01*
X9902753Y-16955412D02*
X9902753Y-16879222D01*
X9902753Y-16879222D02*
X9912277Y-16860174D01*
X9912277Y-16860174D02*
X9931325Y-16850650D01*
X9931325Y-16850650D02*
X9969420Y-16850650D01*
X9969420Y-16850650D02*
X9988468Y-16860174D01*
X9988468Y-16860174D02*
X9997992Y-16879222D01*
X9997992Y-16879222D02*
X9997992Y-16898270D01*
X9997992Y-16898270D02*
X9902753Y-16917317D01*
X10074182Y-16974460D02*
X10093230Y-16983984D01*
X10093230Y-16983984D02*
X10131325Y-16983984D01*
X10131325Y-16983984D02*
X10150373Y-16974460D01*
X10150373Y-16974460D02*
X10159896Y-16955412D01*
X10159896Y-16955412D02*
X10159896Y-16945889D01*
X10159896Y-16945889D02*
X10150373Y-16926841D01*
X10150373Y-16926841D02*
X10131325Y-16917317D01*
X10131325Y-16917317D02*
X10102753Y-16917317D01*
X10102753Y-16917317D02*
X10083706Y-16907793D01*
X10083706Y-16907793D02*
X10074182Y-16888746D01*
X10074182Y-16888746D02*
X10074182Y-16879222D01*
X10074182Y-16879222D02*
X10083706Y-16860174D01*
X10083706Y-16860174D02*
X10102753Y-16850650D01*
X10102753Y-16850650D02*
X10131325Y-16850650D01*
X10131325Y-16850650D02*
X10150373Y-16860174D01*
X10226563Y-17060174D02*
X10236087Y-17050650D01*
X10236087Y-17050650D02*
X10255134Y-17022079D01*
X10255134Y-17022079D02*
X10264658Y-17003031D01*
X10264658Y-17003031D02*
X10274182Y-16974460D01*
X10274182Y-16974460D02*
X10283706Y-16926841D01*
X10283706Y-16926841D02*
X10283706Y-16888746D01*
X10283706Y-16888746D02*
X10274182Y-16841127D01*
X10274182Y-16841127D02*
X10264658Y-16812555D01*
X10264658Y-16812555D02*
X10255134Y-16793508D01*
X10255134Y-16793508D02*
X10236087Y-16764936D01*
X10236087Y-16764936D02*
X10226563Y-16755412D01*
X10588468Y-17060174D02*
X10578944Y-17050650D01*
X10578944Y-17050650D02*
X10559896Y-17022079D01*
X10559896Y-17022079D02*
X10550373Y-17003031D01*
X10550373Y-17003031D02*
X10540849Y-16974460D01*
X10540849Y-16974460D02*
X10531325Y-16926841D01*
X10531325Y-16926841D02*
X10531325Y-16888746D01*
X10531325Y-16888746D02*
X10540849Y-16841127D01*
X10540849Y-16841127D02*
X10550373Y-16812555D01*
X10550373Y-16812555D02*
X10559896Y-16793508D01*
X10559896Y-16793508D02*
X10578944Y-16764936D01*
X10578944Y-16764936D02*
X10588468Y-16755412D01*
X10664658Y-16850650D02*
X10664658Y-16983984D01*
X10664658Y-16869698D02*
X10674182Y-16860174D01*
X10674182Y-16860174D02*
X10693230Y-16850650D01*
X10693230Y-16850650D02*
X10721801Y-16850650D01*
X10721801Y-16850650D02*
X10740849Y-16860174D01*
X10740849Y-16860174D02*
X10750373Y-16879222D01*
X10750373Y-16879222D02*
X10750373Y-16983984D01*
X10874182Y-16983984D02*
X10855134Y-16974460D01*
X10855134Y-16974460D02*
X10845611Y-16964936D01*
X10845611Y-16964936D02*
X10836087Y-16945889D01*
X10836087Y-16945889D02*
X10836087Y-16888746D01*
X10836087Y-16888746D02*
X10845611Y-16869698D01*
X10845611Y-16869698D02*
X10855134Y-16860174D01*
X10855134Y-16860174D02*
X10874182Y-16850650D01*
X10874182Y-16850650D02*
X10902754Y-16850650D01*
X10902754Y-16850650D02*
X10921801Y-16860174D01*
X10921801Y-16860174D02*
X10931325Y-16869698D01*
X10931325Y-16869698D02*
X10940849Y-16888746D01*
X10940849Y-16888746D02*
X10940849Y-16945889D01*
X10940849Y-16945889D02*
X10931325Y-16964936D01*
X10931325Y-16964936D02*
X10921801Y-16974460D01*
X10921801Y-16974460D02*
X10902754Y-16983984D01*
X10902754Y-16983984D02*
X10874182Y-16983984D01*
X10997992Y-16850650D02*
X11074182Y-16850650D01*
X11026563Y-16783984D02*
X11026563Y-16955412D01*
X11026563Y-16955412D02*
X11036087Y-16974460D01*
X11036087Y-16974460D02*
X11055134Y-16983984D01*
X11055134Y-16983984D02*
X11074182Y-16983984D01*
X11293230Y-16850650D02*
X11293230Y-17050650D01*
X11293230Y-16860174D02*
X11312277Y-16850650D01*
X11312277Y-16850650D02*
X11350373Y-16850650D01*
X11350373Y-16850650D02*
X11369420Y-16860174D01*
X11369420Y-16860174D02*
X11378944Y-16869698D01*
X11378944Y-16869698D02*
X11388468Y-16888746D01*
X11388468Y-16888746D02*
X11388468Y-16945889D01*
X11388468Y-16945889D02*
X11378944Y-16964936D01*
X11378944Y-16964936D02*
X11369420Y-16974460D01*
X11369420Y-16974460D02*
X11350373Y-16983984D01*
X11350373Y-16983984D02*
X11312277Y-16983984D01*
X11312277Y-16983984D02*
X11293230Y-16974460D01*
X11502753Y-16983984D02*
X11483706Y-16974460D01*
X11483706Y-16974460D02*
X11474182Y-16955412D01*
X11474182Y-16955412D02*
X11474182Y-16783984D01*
X11664658Y-16983984D02*
X11664658Y-16879222D01*
X11664658Y-16879222D02*
X11655134Y-16860174D01*
X11655134Y-16860174D02*
X11636087Y-16850650D01*
X11636087Y-16850650D02*
X11597992Y-16850650D01*
X11597992Y-16850650D02*
X11578944Y-16860174D01*
X11664658Y-16974460D02*
X11645611Y-16983984D01*
X11645611Y-16983984D02*
X11597992Y-16983984D01*
X11597992Y-16983984D02*
X11578944Y-16974460D01*
X11578944Y-16974460D02*
X11569420Y-16955412D01*
X11569420Y-16955412D02*
X11569420Y-16936365D01*
X11569420Y-16936365D02*
X11578944Y-16917317D01*
X11578944Y-16917317D02*
X11597992Y-16907793D01*
X11597992Y-16907793D02*
X11645611Y-16907793D01*
X11645611Y-16907793D02*
X11664658Y-16898270D01*
X11731325Y-16850650D02*
X11807515Y-16850650D01*
X11759896Y-16783984D02*
X11759896Y-16955412D01*
X11759896Y-16955412D02*
X11769420Y-16974460D01*
X11769420Y-16974460D02*
X11788468Y-16983984D01*
X11788468Y-16983984D02*
X11807515Y-16983984D01*
X11950373Y-16974460D02*
X11931325Y-16983984D01*
X11931325Y-16983984D02*
X11893230Y-16983984D01*
X11893230Y-16983984D02*
X11874182Y-16974460D01*
X11874182Y-16974460D02*
X11864658Y-16955412D01*
X11864658Y-16955412D02*
X11864658Y-16879222D01*
X11864658Y-16879222D02*
X11874182Y-16860174D01*
X11874182Y-16860174D02*
X11893230Y-16850650D01*
X11893230Y-16850650D02*
X11931325Y-16850650D01*
X11931325Y-16850650D02*
X11950373Y-16860174D01*
X11950373Y-16860174D02*
X11959896Y-16879222D01*
X11959896Y-16879222D02*
X11959896Y-16898270D01*
X11959896Y-16898270D02*
X11864658Y-16917317D01*
X12131325Y-16983984D02*
X12131325Y-16783984D01*
X12131325Y-16974460D02*
X12112277Y-16983984D01*
X12112277Y-16983984D02*
X12074182Y-16983984D01*
X12074182Y-16983984D02*
X12055134Y-16974460D01*
X12055134Y-16974460D02*
X12045611Y-16964936D01*
X12045611Y-16964936D02*
X12036087Y-16945889D01*
X12036087Y-16945889D02*
X12036087Y-16888746D01*
X12036087Y-16888746D02*
X12045611Y-16869698D01*
X12045611Y-16869698D02*
X12055134Y-16860174D01*
X12055134Y-16860174D02*
X12074182Y-16850650D01*
X12074182Y-16850650D02*
X12112277Y-16850650D01*
X12112277Y-16850650D02*
X12131325Y-16860174D01*
X12207515Y-17060174D02*
X12217039Y-17050650D01*
X12217039Y-17050650D02*
X12236087Y-17022079D01*
X12236087Y-17022079D02*
X12245611Y-17003031D01*
X12245611Y-17003031D02*
X12255134Y-16974460D01*
X12255134Y-16974460D02*
X12264658Y-16926841D01*
X12264658Y-16926841D02*
X12264658Y-16888746D01*
X12264658Y-16888746D02*
X12255134Y-16841127D01*
X12255134Y-16841127D02*
X12245611Y-16812555D01*
X12245611Y-16812555D02*
X12236087Y-16793508D01*
X12236087Y-16793508D02*
X12217039Y-16764936D01*
X12217039Y-16764936D02*
X12207515Y-16755412D01*
M02*
