M48
; DRILL file {KiCad 9.0.5} date 2026-02-16T01:22:42-0700
; FORMAT={-:-/ absolute / metric / decimal}
; #@! TF.CreationDate,2026-02-16T01:22:42-07:00
; #@! TF.GenerationSoftware,Kicad,Pcbnew,9.0.5
; #@! TF.FileFunction,Plated,1,6,PTH
FMAT,2
METRIC
; #@! TA.AperFunction,Plated,PTH,ViaDrill
T1C0.300
; #@! TA.AperFunction,Plated,PTH,ComponentDrill
T2C0.635
; #@! TA.AperFunction,Plated,PTH,ComponentDrill
T3C0.762
; #@! TA.AperFunction,Plated,PTH,ComponentDrill
T4C0.800
; #@! TA.AperFunction,Plated,PTH,ComponentDrill
T5C0.889
; #@! TA.AperFunction,Plated,PTH,ViaDrill
T6C0.900
; #@! TA.AperFunction,Plated,PTH,ComponentDrill
T7C0.900
; #@! TA.AperFunction,Plated,PTH,ComponentDrill
T8C1.020
; #@! TA.AperFunction,Plated,PTH,ComponentDrill
T9C1.067
; #@! TA.AperFunction,Plated,PTH,ComponentDrill
T10C1.100
; #@! TA.AperFunction,Plated,PTH,ComponentDrill
T11C1.118
; #@! TA.AperFunction,Plated,PTH,ComponentDrill
T12C1.600
; #@! TA.AperFunction,Plated,PTH,ComponentDrill
T13C1.854
; #@! TA.AperFunction,Plated,PTH,ViaDrill
T14C1.900
; #@! TA.AperFunction,Plated,PTH,ViaDrill
T15C3.200
%
G90
G05
T1
X141.7Y-115.15
X144.025Y-115.75
X144.1Y-117.7
X145.475Y-127.325
X145.95Y-115.7
X162.35Y-120.275
X164.1Y-121.875
X166.025Y-119.475
T2
X160.0Y-117.1
X160.0Y-119.64
X160.0Y-122.18
X160.0Y-124.72
X160.0Y-127.26
X160.0Y-129.8
X160.0Y-132.34
X160.0Y-134.88
X160.0Y-137.42
X160.0Y-139.96
X160.0Y-142.5
X160.0Y-145.04
X163.0Y-124.72
X163.0Y-127.26
X163.0Y-129.8
X163.0Y-132.34
X177.7Y-117.0
X177.7Y-119.54
X177.7Y-122.08
X177.7Y-124.62
X177.7Y-127.16
X177.7Y-129.7
X177.7Y-132.24
X177.7Y-134.78
X177.7Y-137.32
X177.7Y-139.86
X177.7Y-142.4
X177.7Y-144.94
X177.7Y-147.48
X177.7Y-150.02
X177.7Y-152.56
X177.7Y-155.1
T3
X59.611Y-136.5
X59.611Y-153.2
X60.011Y-119.2
X61.611Y-130.5
X61.611Y-142.5
X61.611Y-147.2
X61.611Y-159.2
X62.011Y-113.2
X62.011Y-125.2
X73.811Y-130.5
X73.811Y-142.5
X73.811Y-147.2
X73.811Y-159.2
X74.211Y-113.2
X74.211Y-125.2
X193.8Y-135.0
X194.3Y-118.6
X194.4Y-151.7
X195.8Y-129.0
X195.8Y-141.0
X196.3Y-112.6
X196.3Y-124.6
X196.4Y-145.7
X196.4Y-157.7
X208.0Y-129.0
X208.0Y-141.0
X208.5Y-112.6
X208.5Y-124.6
X208.6Y-145.7
X208.6Y-157.7
T4
X57.315Y-80.614
X57.325Y-83.725
X62.315Y-80.614
X62.325Y-83.725
X113.725Y-135.275
X113.725Y-140.275
X116.8Y-135.275
X116.8Y-140.275
X135.15Y-135.775
X135.15Y-140.775
X138.225Y-135.775
X138.225Y-140.775
X207.825Y-80.2
X207.85Y-77.15
X212.825Y-80.2
X212.85Y-77.15
T5
X87.76Y-141.875
X87.785Y-138.45
X99.19Y-141.875
X99.215Y-138.45
X179.485Y-107.4
X179.485Y-111.677
X190.915Y-107.4
X190.915Y-111.677
T6
X64.8Y-66.125
X64.8Y-68.675
X64.8Y-73.775
X64.8Y-76.325
X64.8Y-78.875
X64.8Y-81.425
X67.35Y-66.1
X67.35Y-76.3
X67.35Y-78.85
X67.35Y-81.4
X70.075Y-66.1
X70.075Y-68.65
X70.075Y-71.2
X70.075Y-73.75
X70.075Y-76.3
X70.075Y-78.85
X70.075Y-81.4
X72.625Y-66.125
X72.625Y-68.675
X72.625Y-71.225
X72.625Y-73.775
X72.625Y-76.325
X72.625Y-78.875
X72.625Y-81.425
X75.175Y-66.1
X75.175Y-68.65
X75.175Y-71.2
X75.175Y-73.75
X75.175Y-76.3
X75.175Y-78.85
X75.175Y-81.4
X77.725Y-66.1
X77.725Y-68.65
X77.725Y-71.2
X77.725Y-73.75
X77.725Y-76.3
X77.725Y-78.85
X77.725Y-81.4
X79.35Y-136.775
X79.575Y-90.35
X79.575Y-92.9
X79.575Y-95.45
X79.575Y-98.0
X79.575Y-100.55
X79.575Y-108.2
X79.575Y-110.75
X79.575Y-113.3
X79.575Y-115.85
X79.575Y-118.4
X79.575Y-120.95
X79.575Y-123.5
X79.575Y-126.05
X79.575Y-128.6
X79.575Y-131.15
X79.575Y-133.7
X80.275Y-66.125
X80.275Y-68.675
X80.275Y-71.225
X80.275Y-73.775
X80.275Y-76.325
X80.275Y-78.875
X80.275Y-81.425
X81.5Y-136.775
X81.625Y-142.625
X82.125Y-90.375
X82.125Y-92.925
X82.125Y-95.475
X82.125Y-98.025
X82.125Y-100.575
X82.125Y-103.125
X82.125Y-105.675
X82.125Y-108.225
X82.125Y-110.775
X82.125Y-113.325
X82.125Y-115.875
X82.125Y-118.425
X82.125Y-120.975
X82.125Y-123.525
X82.125Y-126.075
X82.125Y-128.625
X82.125Y-131.175
X82.125Y-133.725
X83.8Y-142.625
X102.3Y-83.6
X102.3Y-86.15
X102.3Y-88.7
X102.3Y-91.25
X102.3Y-93.8
X102.3Y-96.35
X102.3Y-98.9
X102.3Y-101.45
X102.3Y-104.0
X102.3Y-106.55
X102.3Y-109.1
X102.3Y-111.65
X102.3Y-114.2
X102.3Y-116.75
X102.3Y-119.3
X102.3Y-121.85
X102.3Y-124.4
X102.3Y-126.95
X104.85Y-83.625
X104.85Y-86.175
X104.85Y-88.725
X104.85Y-91.275
X104.85Y-93.825
X104.85Y-96.375
X104.85Y-98.925
X104.85Y-101.475
X104.85Y-104.025
X104.85Y-106.575
X104.85Y-109.125
X104.85Y-111.675
X104.85Y-114.225
X104.85Y-116.775
X104.85Y-119.325
X104.85Y-121.875
X104.85Y-124.425
X104.85Y-126.975
X107.4Y-83.6
X107.4Y-86.15
X107.4Y-88.7
X107.4Y-91.25
X107.4Y-93.8
X107.4Y-96.35
X107.4Y-98.9
X107.4Y-101.45
X107.4Y-104.0
X107.4Y-106.55
X107.4Y-109.1
X107.4Y-111.65
X107.4Y-114.2
X107.4Y-116.75
X107.4Y-119.3
X107.4Y-121.85
X107.4Y-124.4
X107.4Y-126.95
X109.95Y-83.6
X109.95Y-86.15
X109.95Y-88.7
X109.95Y-91.25
X109.95Y-93.8
X109.95Y-96.35
X109.95Y-98.9
X109.95Y-101.45
X109.95Y-104.0
X109.95Y-106.55
X109.95Y-109.1
X109.95Y-111.65
X109.95Y-114.2
X109.95Y-116.75
X109.95Y-119.3
X109.95Y-121.85
X109.95Y-124.4
X109.95Y-126.95
X112.5Y-83.625
X112.5Y-86.175
X112.5Y-88.725
X112.5Y-91.275
X112.5Y-93.825
X112.5Y-96.375
X112.5Y-98.925
X112.5Y-101.475
X112.5Y-104.025
X112.5Y-106.575
X112.5Y-109.125
X112.5Y-111.675
X112.5Y-114.225
X112.5Y-116.775
X112.5Y-119.325
X112.5Y-121.875
X112.5Y-124.425
X112.5Y-126.975
X115.05Y-83.6
X115.05Y-86.15
X115.05Y-88.7
X115.05Y-91.25
X115.05Y-93.8
X115.05Y-96.35
X115.05Y-98.9
X115.05Y-101.45
X115.05Y-104.0
X115.05Y-106.55
X115.05Y-109.1
X115.05Y-111.65
X115.05Y-114.2
X115.05Y-116.75
X115.05Y-119.3
X115.05Y-121.85
X115.05Y-124.4
X115.05Y-126.95
X117.775Y-83.6
X117.775Y-86.15
X117.775Y-88.7
X117.775Y-91.25
X117.775Y-93.8
X117.775Y-96.35
X117.775Y-98.9
X117.775Y-101.45
X117.775Y-104.0
X117.775Y-106.55
X117.775Y-109.1
X117.775Y-111.65
X117.775Y-114.2
X117.775Y-116.75
X117.775Y-119.3
X117.775Y-121.85
X117.775Y-124.4
X117.775Y-126.95
X120.325Y-83.625
X120.325Y-86.175
X120.325Y-88.725
X120.325Y-91.275
X120.325Y-93.825
X120.325Y-96.375
X120.325Y-98.925
X120.325Y-101.475
X120.325Y-104.025
X120.325Y-106.575
X120.325Y-109.125
X120.325Y-111.675
X120.325Y-114.225
X120.325Y-116.775
X120.325Y-119.325
X120.325Y-121.875
X120.325Y-124.425
X120.325Y-126.975
X122.875Y-83.6
X122.875Y-86.15
X122.875Y-88.7
X122.875Y-91.25
X122.875Y-93.8
X122.875Y-96.35
X122.875Y-98.9
X122.875Y-101.45
X122.875Y-104.0
X122.875Y-106.55
X122.875Y-109.1
X122.875Y-111.65
X122.875Y-114.2
X122.875Y-116.75
X122.875Y-119.3
X122.875Y-121.85
X122.875Y-124.4
X122.875Y-126.95
X125.425Y-83.6
X125.425Y-86.15
X125.425Y-88.7
X125.425Y-91.25
X125.425Y-93.8
X125.425Y-96.35
X125.425Y-98.9
X125.425Y-101.45
X125.425Y-104.0
X125.425Y-106.55
X125.425Y-109.1
X125.425Y-111.65
X125.425Y-114.2
X125.425Y-116.75
X125.425Y-119.3
X125.425Y-121.85
X125.425Y-124.4
X125.425Y-126.95
X127.975Y-83.625
X127.975Y-86.175
X127.975Y-88.725
X127.975Y-91.275
X127.975Y-93.825
X127.975Y-96.375
X127.975Y-98.925
X127.975Y-101.475
X127.975Y-104.025
X127.975Y-106.575
X127.975Y-109.125
X127.975Y-111.675
X127.975Y-114.225
X127.975Y-116.775
X127.975Y-119.325
X127.975Y-121.875
X127.975Y-124.425
X127.975Y-126.975
X130.525Y-83.6
X130.525Y-86.15
X130.525Y-88.7
X130.525Y-91.25
X130.525Y-93.8
X130.525Y-96.35
X130.525Y-98.9
X130.525Y-101.45
X130.525Y-104.0
X130.525Y-106.55
X130.525Y-109.1
X130.525Y-111.65
X130.525Y-114.2
X130.525Y-116.75
X130.525Y-119.3
X130.525Y-121.85
X130.525Y-124.4
X130.525Y-126.95
X133.075Y-83.6
X133.075Y-86.15
X133.075Y-88.7
X133.075Y-91.25
X133.075Y-93.8
X133.075Y-96.35
X133.075Y-98.9
X133.075Y-101.45
X133.075Y-104.0
X133.075Y-106.55
X133.075Y-109.1
X133.075Y-111.65
X133.075Y-114.2
X133.075Y-116.75
X133.075Y-119.3
X133.075Y-121.85
X133.075Y-124.4
X133.075Y-126.95
X135.625Y-83.625
X135.625Y-86.175
X135.625Y-88.725
X135.625Y-91.275
X135.625Y-93.825
X135.625Y-96.375
X135.625Y-98.925
X135.625Y-101.475
X135.625Y-104.025
X135.625Y-106.575
X135.625Y-109.125
X135.625Y-111.675
X135.625Y-114.225
X135.625Y-116.775
X135.625Y-119.325
X135.625Y-121.875
X135.625Y-124.425
X135.625Y-126.975
X138.175Y-83.6
X138.175Y-86.15
X138.175Y-88.7
X138.175Y-91.25
X138.175Y-93.8
X138.175Y-96.35
X138.175Y-98.9
X138.175Y-101.45
X138.175Y-104.0
X138.175Y-106.55
X138.175Y-109.1
X138.175Y-111.65
X138.175Y-114.2
X138.175Y-116.75
X138.175Y-119.3
X138.175Y-121.85
X138.175Y-124.4
X138.175Y-126.95
X157.775Y-79.775
X157.775Y-82.325
X157.775Y-84.875
X157.775Y-87.425
X157.775Y-89.975
X157.775Y-92.525
X157.775Y-95.075
X157.775Y-97.625
X157.775Y-100.175
X157.775Y-102.725
X157.775Y-105.275
X157.775Y-107.825
X157.775Y-110.375
X157.775Y-112.925
X160.325Y-79.8
X160.325Y-82.35
X160.325Y-84.9
X160.325Y-87.45
X160.325Y-90.0
X160.325Y-92.55
X160.325Y-95.1
X160.325Y-97.65
X160.325Y-100.2
X160.325Y-102.75
X160.325Y-105.3
X160.325Y-107.85
X160.325Y-110.4
X160.325Y-112.95
X162.875Y-79.775
X162.875Y-82.325
X162.875Y-84.875
X162.875Y-87.425
X162.875Y-89.975
X162.875Y-92.525
X162.875Y-95.075
X162.875Y-97.625
X162.875Y-100.175
X162.875Y-102.725
X162.875Y-105.275
X162.875Y-107.825
X162.875Y-110.375
X162.875Y-112.925
X165.425Y-79.775
X165.425Y-82.325
X165.425Y-84.875
X165.425Y-87.425
X165.425Y-89.975
X165.425Y-92.525
X165.425Y-95.075
X165.425Y-97.625
X165.425Y-100.175
X165.425Y-102.725
X165.425Y-105.275
X165.425Y-107.825
X165.425Y-110.375
X165.425Y-112.925
X167.975Y-69.6
X167.975Y-72.15
X167.975Y-74.7
X167.975Y-77.25
X167.975Y-79.8
X167.975Y-82.35
X167.975Y-84.9
X167.975Y-87.45
X167.975Y-90.0
X167.975Y-92.55
X167.975Y-95.1
X167.975Y-97.65
X167.975Y-100.2
X167.975Y-102.75
X167.975Y-105.3
X167.975Y-107.85
X167.975Y-110.4
X167.975Y-112.95
X170.525Y-69.575
X170.525Y-72.125
X170.525Y-74.675
X170.525Y-77.225
X170.525Y-79.775
X170.525Y-82.325
X170.525Y-84.875
X170.525Y-87.425
X170.525Y-89.975
X170.525Y-92.525
X170.525Y-95.075
X170.525Y-97.625
X170.525Y-100.175
X170.525Y-102.725
X170.525Y-105.275
X170.525Y-107.825
X170.525Y-110.375
X170.525Y-112.925
X173.25Y-69.575
X173.25Y-72.125
X173.25Y-74.675
X173.25Y-77.225
X173.25Y-79.775
X173.25Y-82.325
X173.25Y-84.875
X173.25Y-87.425
X173.25Y-89.975
X173.25Y-92.525
X173.25Y-95.075
X173.25Y-97.625
X173.25Y-100.175
X173.25Y-102.725
X173.25Y-105.275
X173.25Y-107.825
X173.25Y-110.375
X173.25Y-112.925
X175.8Y-69.6
X175.8Y-72.15
X175.8Y-74.7
X175.8Y-77.25
X175.8Y-79.8
X175.8Y-82.35
X175.8Y-84.9
X175.8Y-87.45
X175.8Y-90.0
X175.8Y-92.55
X175.8Y-95.1
X175.8Y-97.65
X175.8Y-100.2
X175.8Y-102.75
X175.8Y-105.3
X175.8Y-107.85
X175.8Y-110.4
X175.8Y-112.95
X178.35Y-69.575
X178.35Y-72.125
X178.35Y-74.675
X178.35Y-77.225
X178.35Y-79.775
X178.35Y-82.325
X178.35Y-84.875
X178.35Y-87.425
X178.35Y-89.975
X178.35Y-92.525
X178.35Y-95.075
X178.35Y-97.625
X178.35Y-100.175
X178.35Y-102.725
X180.9Y-69.575
X180.9Y-72.125
X180.9Y-74.675
X180.9Y-77.225
X180.9Y-79.775
X180.9Y-82.325
X180.9Y-84.875
X180.9Y-87.425
X180.9Y-89.975
X180.9Y-92.525
X180.9Y-95.075
X180.9Y-97.625
X180.9Y-100.175
X180.9Y-102.725
X183.45Y-69.6
X183.45Y-72.15
X183.45Y-74.7
X183.45Y-77.25
X183.45Y-79.8
X183.45Y-82.35
X183.45Y-84.9
X183.45Y-87.45
X183.45Y-90.0
X183.45Y-92.55
X183.45Y-95.1
X183.45Y-97.65
X183.45Y-100.2
X183.45Y-102.75
X184.8Y-128.334
X186.0Y-69.575
X186.0Y-72.125
X186.0Y-74.675
X186.0Y-77.225
X186.0Y-79.775
X186.0Y-82.325
X186.0Y-84.875
X186.0Y-87.425
X186.0Y-89.975
X186.0Y-92.525
X186.0Y-95.075
X186.0Y-97.625
X186.0Y-100.175
X186.0Y-102.725
X186.975Y-128.334
X187.1Y-134.184
X189.25Y-134.184
T7
X87.0Y-81.96
X87.0Y-84.5
X87.0Y-87.04
X87.0Y-89.58
X87.0Y-92.12
X87.0Y-94.66
X87.0Y-97.2
X87.0Y-99.74
X87.0Y-102.28
X87.0Y-104.82
X87.0Y-107.36
X87.0Y-109.9
X87.0Y-112.44
X87.0Y-114.98
X87.0Y-117.52
X87.0Y-120.06
X87.0Y-122.6
X87.0Y-125.14
X87.0Y-127.68
X87.0Y-130.22
X89.54Y-81.96
X89.54Y-84.5
X89.54Y-87.04
X89.54Y-89.58
X89.54Y-92.12
X89.54Y-94.66
X89.54Y-97.2
X89.54Y-99.74
X89.54Y-102.28
X89.54Y-104.82
X89.54Y-107.36
X89.54Y-109.9
X89.54Y-112.44
X89.54Y-114.98
X89.54Y-117.52
X89.54Y-120.06
X89.54Y-122.6
X89.54Y-125.14
X89.54Y-127.68
X89.54Y-130.22
X147.96Y-81.86
X147.96Y-84.4
X147.96Y-86.94
X147.96Y-89.48
X147.96Y-92.02
X147.96Y-94.56
X147.96Y-97.1
X147.96Y-99.64
X147.96Y-102.18
X147.96Y-104.72
X147.96Y-107.26
X147.96Y-109.8
X147.96Y-112.34
X147.96Y-114.88
X147.96Y-117.42
X147.96Y-119.96
X147.96Y-122.5
X147.96Y-125.04
X147.96Y-127.58
X147.96Y-130.12
X150.5Y-81.86
X150.5Y-84.4
X150.5Y-86.94
X150.5Y-89.48
X150.5Y-92.02
X150.5Y-94.56
X150.5Y-97.1
X150.5Y-99.64
X150.5Y-102.18
X150.5Y-104.72
X150.5Y-107.26
X150.5Y-109.8
X150.5Y-112.34
X150.5Y-114.88
X150.5Y-117.42
X150.5Y-119.96
X150.5Y-122.5
X150.5Y-125.04
X150.5Y-127.58
X150.5Y-130.12
T8
X57.375Y-92.68
X57.375Y-95.22
X57.375Y-97.76
X59.915Y-92.68
X59.915Y-95.22
X59.915Y-97.76
X62.455Y-92.68
X62.455Y-95.22
X62.455Y-97.76
X153.147Y-62.612
X153.147Y-65.153
X153.147Y-67.692
X157.812Y-62.612
X157.812Y-65.153
X157.812Y-67.692
X207.325Y-89.35
X207.325Y-91.89
X207.325Y-94.43
X209.865Y-89.35
X209.865Y-91.89
X209.865Y-94.43
X212.405Y-89.35
X212.405Y-91.89
X212.405Y-94.43
T9
X101.92Y-71.6
X107.0Y-71.6
X121.4Y-71.4
X126.48Y-71.4
T10
X64.425Y-131.295
X64.425Y-141.455
X64.575Y-147.945
X64.575Y-158.105
X65.075Y-114.17
X65.075Y-124.33
X199.125Y-129.695
X199.125Y-139.855
X199.55Y-113.325
X199.55Y-123.485
X199.975Y-146.895
X199.975Y-157.055
T11
X70.05Y-83.597
X70.05Y-98.1
X109.725Y-130.6
X109.725Y-145.103
X130.7Y-131.2
X130.7Y-145.703
X199.625Y-80.672
X199.625Y-95.175
T12
X88.005Y-153.45
X95.625Y-153.45
X103.245Y-153.45
X110.865Y-153.45
X118.485Y-153.45
X126.105Y-153.45
T13
X69.61Y-107.215
X75.11Y-107.215
X194.465Y-105.46
X199.965Y-105.46
T14
X96.2Y-75.5
X131.8Y-75.5
T15
X66.875Y-71.375
X80.575Y-147.15
X187.125Y-146.7
X202.675Y-71.375
M30
