%TF.GenerationSoftware,KiCad,Pcbnew,9.0.6*%
%TF.CreationDate,2026-02-16T23:31:55-07:00*%
%TF.ProjectId,Capstone,43617073-746f-46e6-952e-6b696361645f,rev?*%
%TF.SameCoordinates,Original*%
%TF.FileFunction,Plated,1,6,PTH,Drill*%
%TF.FilePolarity,Positive*%
%FSLAX46Y46*%
G04 Gerber Fmt 4.6, Leading zero omitted, Abs format (unit mm)*
G04 Created by KiCad (PCBNEW 9.0.6) date 2026-02-16 23:31:55*
%MOMM*%
%LPD*%
G01*
G04 APERTURE LIST*
%TA.AperFunction,ViaDrill*%
%ADD10C,0.300000*%
%TD*%
%TA.AperFunction,ComponentDrill*%
%ADD11C,0.635000*%
%TD*%
%TA.AperFunction,ComponentDrill*%
%ADD12C,0.762000*%
%TD*%
%TA.AperFunction,ComponentDrill*%
%ADD13C,0.800000*%
%TD*%
%TA.AperFunction,ComponentDrill*%
%ADD14C,0.889000*%
%TD*%
%TA.AperFunction,ViaDrill*%
%ADD15C,0.900000*%
%TD*%
%TA.AperFunction,ComponentDrill*%
%ADD16C,0.900000*%
%TD*%
%TA.AperFunction,ComponentDrill*%
%ADD17C,1.020000*%
%TD*%
%TA.AperFunction,ComponentDrill*%
%ADD18C,1.066800*%
%TD*%
%TA.AperFunction,ComponentDrill*%
%ADD19C,1.100000*%
%TD*%
%TA.AperFunction,ComponentDrill*%
%ADD20C,1.117600*%
%TD*%
%TA.AperFunction,ComponentDrill*%
%ADD21C,1.600000*%
%TD*%
%TA.AperFunction,ComponentDrill*%
%ADD22C,1.854200*%
%TD*%
%TA.AperFunction,ViaDrill*%
%ADD23C,1.900000*%
%TD*%
%TA.AperFunction,ViaDrill*%
%ADD24C,3.200000*%
%TD*%
G04 APERTURE END LIST*
D10*
X141700000Y-115150000D03*
X144025000Y-115750000D03*
X144100000Y-117700000D03*
X145475000Y-127325000D03*
X145950000Y-115700000D03*
X162350000Y-120275000D03*
X164100000Y-121875000D03*
X166025000Y-119475000D03*
X189000000Y-127000000D03*
D11*
%TO.C,J9*%
X160000000Y-117100000D03*
X160000000Y-119640000D03*
X160000000Y-122180000D03*
X160000000Y-124720000D03*
X160000000Y-127260000D03*
X160000000Y-129800000D03*
X160000000Y-132340000D03*
X160000000Y-134880000D03*
X160000000Y-137420000D03*
X160000000Y-139960000D03*
X160000000Y-142500000D03*
X160000000Y-145040000D03*
%TO.C,J8*%
X163000000Y-124720000D03*
X163000000Y-127260000D03*
X163000000Y-129800000D03*
X163000000Y-132340000D03*
%TO.C,J11*%
X177700000Y-117000000D03*
X177700000Y-119540000D03*
X177700000Y-122080000D03*
X177700000Y-124620000D03*
X177700000Y-127160000D03*
X177700000Y-129700000D03*
X177700000Y-132240000D03*
X177700000Y-134780000D03*
X177700000Y-137320000D03*
X177700000Y-139860000D03*
X177700000Y-142400000D03*
X177700000Y-144940000D03*
X177700000Y-147480000D03*
X177700000Y-150020000D03*
X177700000Y-152560000D03*
X177700000Y-155100000D03*
D12*
%TO.C,K5*%
X59610938Y-136500000D03*
%TO.C,K6*%
X59610938Y-153200000D03*
%TO.C,K2*%
X60010938Y-119200000D03*
%TO.C,K5*%
X61610938Y-130500000D03*
X61610938Y-142500000D03*
%TO.C,K6*%
X61610938Y-147200000D03*
X61610938Y-159200000D03*
%TO.C,K2*%
X62010938Y-113200000D03*
X62010938Y-125200000D03*
%TO.C,K5*%
X73810938Y-130500000D03*
X73810938Y-142500000D03*
%TO.C,K6*%
X73810938Y-147200000D03*
X73810938Y-159200000D03*
%TO.C,K2*%
X74210938Y-113200000D03*
X74210938Y-125200000D03*
%TO.C,K3*%
X193800000Y-135000000D03*
%TO.C,K1*%
X194300000Y-118600000D03*
%TO.C,K4*%
X194400000Y-151700000D03*
%TO.C,K3*%
X195800000Y-129000000D03*
X195800000Y-141000000D03*
%TO.C,K1*%
X196300000Y-112600000D03*
X196300000Y-124600000D03*
%TO.C,K4*%
X196400000Y-145700000D03*
X196400000Y-157700000D03*
%TO.C,K3*%
X208000000Y-129000000D03*
X208000000Y-141000000D03*
%TO.C,K1*%
X208500000Y-112600000D03*
X208500000Y-124600000D03*
%TO.C,K4*%
X208600000Y-145700000D03*
X208600000Y-157700000D03*
D13*
%TO.C,C3*%
X57315400Y-80614400D03*
%TO.C,C7*%
X57325000Y-83725000D03*
%TO.C,C3*%
X62315400Y-80614400D03*
%TO.C,C7*%
X62325000Y-83725000D03*
%TO.C,C2*%
X113725000Y-135275000D03*
X113725000Y-140275000D03*
%TO.C,C5*%
X116800000Y-135275000D03*
X116800000Y-140275000D03*
%TO.C,C1*%
X135150000Y-135775000D03*
X135150000Y-140775000D03*
%TO.C,C6*%
X138225000Y-135775000D03*
X138225000Y-140775000D03*
%TO.C,C8*%
X207825000Y-80200000D03*
%TO.C,C4*%
X207850000Y-77150000D03*
%TO.C,C8*%
X212825000Y-80200000D03*
%TO.C,C4*%
X212850000Y-77150000D03*
D14*
%TO.C,R2*%
X87760000Y-141875000D03*
%TO.C,R1*%
X87785000Y-138450000D03*
%TO.C,R2*%
X99190000Y-141875000D03*
%TO.C,R1*%
X99215000Y-138450000D03*
%TO.C,R3*%
X179485000Y-107400000D03*
%TO.C,R4*%
X179485000Y-111676600D03*
%TO.C,R3*%
X190915000Y-107400000D03*
%TO.C,R4*%
X190915000Y-111676600D03*
%TD*%
D15*
X64800000Y-66125000D03*
X64800000Y-68675000D03*
X64800000Y-73775000D03*
X64800000Y-76325000D03*
X64800000Y-78875000D03*
X64800000Y-81425000D03*
X67350000Y-66100000D03*
X67350000Y-76300000D03*
X67350000Y-78850000D03*
X67350000Y-81400000D03*
X70075000Y-66100000D03*
X70075000Y-68650000D03*
X70075000Y-71200000D03*
X70075000Y-73750000D03*
X70075000Y-76300000D03*
X70075000Y-78850000D03*
X70075000Y-81400000D03*
X72625000Y-66125000D03*
X72625000Y-68675000D03*
X72625000Y-71225000D03*
X72625000Y-73775000D03*
X72625000Y-76325000D03*
X72625000Y-78875000D03*
X72625000Y-81425000D03*
X75175000Y-66100000D03*
X75175000Y-68650000D03*
X75175000Y-71200000D03*
X75175000Y-73750000D03*
X75175000Y-76300000D03*
X75175000Y-78850000D03*
X75175000Y-81400000D03*
X77725000Y-66100000D03*
X77725000Y-68650000D03*
X77725000Y-71200000D03*
X77725000Y-73750000D03*
X77725000Y-76300000D03*
X77725000Y-78850000D03*
X77725000Y-81400000D03*
X79350001Y-136775000D03*
X79575000Y-90350000D03*
X79575000Y-92900000D03*
X79575000Y-95450000D03*
X79575000Y-98000000D03*
X79575000Y-100550000D03*
X79575000Y-108200000D03*
X79575000Y-110750000D03*
X79575000Y-113300000D03*
X79575000Y-115850000D03*
X79575000Y-118400000D03*
X79575000Y-120950000D03*
X79575000Y-123500000D03*
X79575000Y-126050000D03*
X79575000Y-128600000D03*
X79575000Y-131150000D03*
X79575000Y-133700000D03*
X80275000Y-66125000D03*
X80275000Y-68675000D03*
X80275000Y-71225000D03*
X80275000Y-73775000D03*
X80275000Y-76325000D03*
X80275000Y-78875000D03*
X80275000Y-81425000D03*
X81500001Y-136775000D03*
X81625001Y-142625000D03*
X82125000Y-90375000D03*
X82125000Y-92925000D03*
X82125000Y-95475000D03*
X82125000Y-98025000D03*
X82125000Y-100575000D03*
X82125000Y-103125000D03*
X82125000Y-105675000D03*
X82125000Y-108225000D03*
X82125000Y-110775000D03*
X82125000Y-113325000D03*
X82125000Y-115875000D03*
X82125000Y-118425000D03*
X82125000Y-120975000D03*
X82125000Y-123525000D03*
X82125000Y-126075000D03*
X82125000Y-128625000D03*
X82125000Y-131175000D03*
X82125000Y-133725000D03*
X83800001Y-142625000D03*
X102300000Y-83600000D03*
X102300000Y-86150000D03*
X102300000Y-88700000D03*
X102300000Y-91250000D03*
X102300000Y-93800000D03*
X102300000Y-96350000D03*
X102300000Y-98900000D03*
X102300000Y-101450000D03*
X102300000Y-104000000D03*
X102300000Y-106550000D03*
X102300000Y-109100000D03*
X102300000Y-111650000D03*
X102300000Y-114200000D03*
X102300000Y-116750000D03*
X102300000Y-119300000D03*
X102300000Y-121850000D03*
X102300000Y-124400000D03*
X102300000Y-126950000D03*
X104850000Y-83625000D03*
X104850000Y-86175000D03*
X104850000Y-88725000D03*
X104850000Y-91275000D03*
X104850000Y-93825000D03*
X104850000Y-96375000D03*
X104850000Y-98925000D03*
X104850000Y-101475000D03*
X104850000Y-104025000D03*
X104850000Y-106575000D03*
X104850000Y-109125000D03*
X104850000Y-111675000D03*
X104850000Y-114225000D03*
X104850000Y-116775000D03*
X104850000Y-119325000D03*
X104850000Y-121875000D03*
X104850000Y-124425000D03*
X104850000Y-126975000D03*
X107400000Y-83600000D03*
X107400000Y-86150000D03*
X107400000Y-88700000D03*
X107400000Y-91250000D03*
X107400000Y-93800000D03*
X107400000Y-96350000D03*
X107400000Y-98900000D03*
X107400000Y-101450000D03*
X107400000Y-104000000D03*
X107400000Y-106550000D03*
X107400000Y-109100000D03*
X107400000Y-111650000D03*
X107400000Y-114200000D03*
X107400000Y-116750000D03*
X107400000Y-119300000D03*
X107400000Y-121850000D03*
X107400000Y-124400000D03*
X107400000Y-126950000D03*
X109950000Y-83600000D03*
X109950000Y-86150000D03*
X109950000Y-88700000D03*
X109950000Y-91250000D03*
X109950000Y-93800000D03*
X109950000Y-96350000D03*
X109950000Y-98900000D03*
X109950000Y-101450000D03*
X109950000Y-104000000D03*
X109950000Y-106550000D03*
X109950000Y-109100000D03*
X109950000Y-111650000D03*
X109950000Y-114200000D03*
X109950000Y-116750000D03*
X109950000Y-119300000D03*
X109950000Y-121850000D03*
X109950000Y-124400000D03*
X109950000Y-126950000D03*
X112500000Y-83625000D03*
X112500000Y-86175000D03*
X112500000Y-88725000D03*
X112500000Y-91275000D03*
X112500000Y-93825000D03*
X112500000Y-96375000D03*
X112500000Y-98925000D03*
X112500000Y-101475000D03*
X112500000Y-104025000D03*
X112500000Y-106575000D03*
X112500000Y-109125000D03*
X112500000Y-111675000D03*
X112500000Y-114225000D03*
X112500000Y-116775000D03*
X112500000Y-119325000D03*
X112500000Y-121875000D03*
X112500000Y-124425000D03*
X112500000Y-126975000D03*
X115050000Y-83600000D03*
X115050000Y-86150000D03*
X115050000Y-88700000D03*
X115050000Y-91250000D03*
X115050000Y-93800000D03*
X115050000Y-96350000D03*
X115050000Y-98900000D03*
X115050000Y-101450000D03*
X115050000Y-104000000D03*
X115050000Y-106550000D03*
X115050000Y-109100000D03*
X115050000Y-111650000D03*
X115050000Y-114200000D03*
X115050000Y-116750000D03*
X115050000Y-119300000D03*
X115050000Y-121850000D03*
X115050000Y-124400000D03*
X115050000Y-126950000D03*
X117775000Y-83600000D03*
X117775000Y-86150000D03*
X117775000Y-88700000D03*
X117775000Y-91250000D03*
X117775000Y-93800000D03*
X117775000Y-96350000D03*
X117775000Y-98900000D03*
X117775000Y-101450000D03*
X117775000Y-104000000D03*
X117775000Y-106550000D03*
X117775000Y-109100000D03*
X117775000Y-111650000D03*
X117775000Y-114200000D03*
X117775000Y-116750000D03*
X117775000Y-119300000D03*
X117775000Y-121850000D03*
X117775000Y-124400000D03*
X117775000Y-126950000D03*
X120325000Y-83625000D03*
X120325000Y-86175000D03*
X120325000Y-88725000D03*
X120325000Y-91275000D03*
X120325000Y-93825000D03*
X120325000Y-96375000D03*
X120325000Y-98925000D03*
X120325000Y-101475000D03*
X120325000Y-104025000D03*
X120325000Y-106575000D03*
X120325000Y-109125000D03*
X120325000Y-111675000D03*
X120325000Y-114225000D03*
X120325000Y-116775000D03*
X120325000Y-119325000D03*
X120325000Y-121875000D03*
X120325000Y-124425000D03*
X120325000Y-126975000D03*
X122875000Y-83600000D03*
X122875000Y-86150000D03*
X122875000Y-88700000D03*
X122875000Y-91250000D03*
X122875000Y-93800000D03*
X122875000Y-96350000D03*
X122875000Y-98900000D03*
X122875000Y-101450000D03*
X122875000Y-104000000D03*
X122875000Y-106550000D03*
X122875000Y-109100000D03*
X122875000Y-111650000D03*
X122875000Y-114200000D03*
X122875000Y-116750000D03*
X122875000Y-119300000D03*
X122875000Y-121850000D03*
X122875000Y-124400000D03*
X122875000Y-126950000D03*
X125425000Y-83600000D03*
X125425000Y-86150000D03*
X125425000Y-88700000D03*
X125425000Y-91250000D03*
X125425000Y-93800000D03*
X125425000Y-96350000D03*
X125425000Y-98900000D03*
X125425000Y-101450000D03*
X125425000Y-104000000D03*
X125425000Y-106550000D03*
X125425000Y-109100000D03*
X125425000Y-111650000D03*
X125425000Y-114200000D03*
X125425000Y-116750000D03*
X125425000Y-119300000D03*
X125425000Y-121850000D03*
X125425000Y-124400000D03*
X125425000Y-126950000D03*
X127975000Y-83625000D03*
X127975000Y-86175000D03*
X127975000Y-88725000D03*
X127975000Y-91275000D03*
X127975000Y-93825000D03*
X127975000Y-96375000D03*
X127975000Y-98925000D03*
X127975000Y-101475000D03*
X127975000Y-104025000D03*
X127975000Y-106575000D03*
X127975000Y-109125000D03*
X127975000Y-111675000D03*
X127975000Y-114225000D03*
X127975000Y-116775000D03*
X127975000Y-119325000D03*
X127975000Y-121875000D03*
X127975000Y-124425000D03*
X127975000Y-126975000D03*
X130525000Y-83600000D03*
X130525000Y-86150000D03*
X130525000Y-88700000D03*
X130525000Y-91250000D03*
X130525000Y-93800000D03*
X130525000Y-96350000D03*
X130525000Y-98900000D03*
X130525000Y-101450000D03*
X130525000Y-104000000D03*
X130525000Y-106550000D03*
X130525000Y-109100000D03*
X130525000Y-111650000D03*
X130525000Y-114200000D03*
X130525000Y-116750000D03*
X130525000Y-119300000D03*
X130525000Y-121850000D03*
X130525000Y-124400000D03*
X130525000Y-126950000D03*
X133075000Y-83600000D03*
X133075000Y-86150000D03*
X133075000Y-88700000D03*
X133075000Y-91250000D03*
X133075000Y-93800000D03*
X133075000Y-96350000D03*
X133075000Y-98900000D03*
X133075000Y-101450000D03*
X133075000Y-104000000D03*
X133075000Y-106550000D03*
X133075000Y-109100000D03*
X133075000Y-111650000D03*
X133075000Y-114200000D03*
X133075000Y-116750000D03*
X133075000Y-119300000D03*
X133075000Y-121850000D03*
X133075000Y-124400000D03*
X133075000Y-126950000D03*
X135625000Y-83625000D03*
X135625000Y-86175000D03*
X135625000Y-88725000D03*
X135625000Y-91275000D03*
X135625000Y-93825000D03*
X135625000Y-96375000D03*
X135625000Y-98925000D03*
X135625000Y-101475000D03*
X135625000Y-104025000D03*
X135625000Y-106575000D03*
X135625000Y-109125000D03*
X135625000Y-111675000D03*
X135625000Y-114225000D03*
X135625000Y-116775000D03*
X135625000Y-119325000D03*
X135625000Y-121875000D03*
X135625000Y-124425000D03*
X135625000Y-126975000D03*
X138175000Y-83600000D03*
X138175000Y-86150000D03*
X138175000Y-88700000D03*
X138175000Y-91250000D03*
X138175000Y-93800000D03*
X138175000Y-96350000D03*
X138175000Y-98900000D03*
X138175000Y-101450000D03*
X138175000Y-104000000D03*
X138175000Y-106550000D03*
X138175000Y-109100000D03*
X138175000Y-111650000D03*
X138175000Y-114200000D03*
X138175000Y-116750000D03*
X138175000Y-119300000D03*
X138175000Y-121850000D03*
X138175000Y-124400000D03*
X138175000Y-126950000D03*
X157775000Y-79775000D03*
X157775000Y-82325000D03*
X157775000Y-84875000D03*
X157775000Y-87425000D03*
X157775000Y-89975000D03*
X157775000Y-92525000D03*
X157775000Y-95075000D03*
X157775000Y-97625000D03*
X157775000Y-100175000D03*
X157775000Y-102725000D03*
X157775000Y-105275000D03*
X157775000Y-107825000D03*
X157775000Y-110375000D03*
X157775000Y-112925000D03*
X160325000Y-79800000D03*
X160325000Y-82350000D03*
X160325000Y-84900000D03*
X160325000Y-87450000D03*
X160325000Y-90000000D03*
X160325000Y-92550000D03*
X160325000Y-95100000D03*
X160325000Y-97650000D03*
X160325000Y-100200000D03*
X160325000Y-102750000D03*
X160325000Y-105300000D03*
X160325000Y-107850000D03*
X160325000Y-110400000D03*
X160325000Y-112950000D03*
X162875000Y-79775000D03*
X162875000Y-82325000D03*
X162875000Y-84875000D03*
X162875000Y-87425000D03*
X162875000Y-89975000D03*
X162875000Y-92525000D03*
X162875000Y-95075000D03*
X162875000Y-97625000D03*
X162875000Y-100175000D03*
X162875000Y-102725000D03*
X162875000Y-105275000D03*
X162875000Y-107825000D03*
X162875000Y-110375000D03*
X162875000Y-112925000D03*
X165425000Y-79775000D03*
X165425000Y-82325000D03*
X165425000Y-84875000D03*
X165425000Y-87425000D03*
X165425000Y-89975000D03*
X165425000Y-92525000D03*
X165425000Y-95075000D03*
X165425000Y-97625000D03*
X165425000Y-100175000D03*
X165425000Y-102725000D03*
X165425000Y-105275000D03*
X165425000Y-107825000D03*
X165425000Y-110375000D03*
X165425000Y-112925000D03*
X167975000Y-69600000D03*
X167975000Y-72150000D03*
X167975000Y-74700000D03*
X167975000Y-77250000D03*
X167975000Y-79800000D03*
X167975000Y-82350000D03*
X167975000Y-84900000D03*
X167975000Y-87450000D03*
X167975000Y-90000000D03*
X167975000Y-92550000D03*
X167975000Y-95100000D03*
X167975000Y-97650000D03*
X167975000Y-100200000D03*
X167975000Y-102750000D03*
X167975000Y-105300000D03*
X167975000Y-107850000D03*
X167975000Y-110400000D03*
X167975000Y-112950000D03*
X170525000Y-69575000D03*
X170525000Y-72125000D03*
X170525000Y-74675000D03*
X170525000Y-77225000D03*
X170525000Y-79775000D03*
X170525000Y-82325000D03*
X170525000Y-84875000D03*
X170525000Y-87425000D03*
X170525000Y-89975000D03*
X170525000Y-92525000D03*
X170525000Y-95075000D03*
X170525000Y-97625000D03*
X170525000Y-100175000D03*
X170525000Y-102725000D03*
X170525000Y-105275000D03*
X170525000Y-107825000D03*
X170525000Y-110375000D03*
X170525000Y-112925000D03*
X173250000Y-69575000D03*
X173250000Y-72125000D03*
X173250000Y-74675000D03*
X173250000Y-77225000D03*
X173250000Y-79775000D03*
X173250000Y-82325000D03*
X173250000Y-84875000D03*
X173250000Y-87425000D03*
X173250000Y-89975000D03*
X173250000Y-92525000D03*
X173250000Y-95075000D03*
X173250000Y-97625000D03*
X173250000Y-100175000D03*
X173250000Y-102725000D03*
X173250000Y-105275000D03*
X173250000Y-107825000D03*
X173250000Y-110375000D03*
X173250000Y-112925000D03*
X175800000Y-69600000D03*
X175800000Y-72150000D03*
X175800000Y-74700000D03*
X175800000Y-77250000D03*
X175800000Y-79800000D03*
X175800000Y-82350000D03*
X175800000Y-84900000D03*
X175800000Y-87450000D03*
X175800000Y-90000000D03*
X175800000Y-92550000D03*
X175800000Y-95100000D03*
X175800000Y-97650000D03*
X175800000Y-100200000D03*
X175800000Y-102750000D03*
X175800000Y-105300000D03*
X175800000Y-107850000D03*
X175800000Y-110400000D03*
X175800000Y-112950000D03*
X178350000Y-69575000D03*
X178350000Y-72125000D03*
X178350000Y-74675000D03*
X178350000Y-77225000D03*
X178350000Y-79775000D03*
X178350000Y-82325000D03*
X178350000Y-84875000D03*
X178350000Y-87425000D03*
X178350000Y-89975000D03*
X178350000Y-92525000D03*
X178350000Y-95075000D03*
X178350000Y-97625000D03*
X178350000Y-100175000D03*
X178350000Y-102725000D03*
X180900000Y-69575000D03*
X180900000Y-72125000D03*
X180900000Y-74675000D03*
X180900000Y-77225000D03*
X180900000Y-79775000D03*
X180900000Y-82325000D03*
X180900000Y-84875000D03*
X180900000Y-87425000D03*
X180900000Y-89975000D03*
X180900000Y-92525000D03*
X180900000Y-95075000D03*
X180900000Y-97625000D03*
X180900000Y-100175000D03*
X180900000Y-102725000D03*
X183450000Y-69600000D03*
X183450000Y-72150000D03*
X183450000Y-74700000D03*
X183450000Y-77250000D03*
X183450000Y-79800000D03*
X183450000Y-82350000D03*
X183450000Y-84900000D03*
X183450000Y-87450000D03*
X183450000Y-90000000D03*
X183450000Y-92550000D03*
X183450000Y-95100000D03*
X183450000Y-97650000D03*
X183450000Y-100200000D03*
X183450000Y-102750000D03*
X184800001Y-128333600D03*
X186000000Y-69575000D03*
X186000000Y-72125000D03*
X186000000Y-74675000D03*
X186000000Y-77225000D03*
X186000000Y-79775000D03*
X186000000Y-82325000D03*
X186000000Y-84875000D03*
X186000000Y-87425000D03*
X186000000Y-89975000D03*
X186000000Y-92525000D03*
X186000000Y-95075000D03*
X186000000Y-97625000D03*
X186000000Y-100175000D03*
X186000000Y-102725000D03*
X186975001Y-128333600D03*
X187100001Y-134183600D03*
X189250001Y-134183600D03*
D16*
%TO.C,J3*%
X87000000Y-81960000D03*
X87000000Y-84500000D03*
X87000000Y-87040000D03*
X87000000Y-89580000D03*
X87000000Y-92120000D03*
X87000000Y-94660000D03*
X87000000Y-97200000D03*
X87000000Y-99740000D03*
X87000000Y-102280000D03*
X87000000Y-104820000D03*
X87000000Y-107360000D03*
X87000000Y-109900000D03*
X87000000Y-112440000D03*
X87000000Y-114980000D03*
X87000000Y-117520000D03*
X87000000Y-120060000D03*
X87000000Y-122600000D03*
X87000000Y-125140000D03*
X87000000Y-127680000D03*
X87000000Y-130220000D03*
X89540000Y-81960000D03*
X89540000Y-84500000D03*
X89540000Y-87040000D03*
X89540000Y-89580000D03*
X89540000Y-92120000D03*
X89540000Y-94660000D03*
X89540000Y-97200000D03*
X89540000Y-99740000D03*
X89540000Y-102280000D03*
X89540000Y-104820000D03*
X89540000Y-107360000D03*
X89540000Y-109900000D03*
X89540000Y-112440000D03*
X89540000Y-114980000D03*
X89540000Y-117520000D03*
X89540000Y-120060000D03*
X89540000Y-122600000D03*
X89540000Y-125140000D03*
X89540000Y-127680000D03*
X89540000Y-130220000D03*
%TO.C,J2*%
X147960000Y-81860000D03*
X147960000Y-84400000D03*
X147960000Y-86940000D03*
X147960000Y-89480000D03*
X147960000Y-92020000D03*
X147960000Y-94560000D03*
X147960000Y-97100000D03*
X147960000Y-99640000D03*
X147960000Y-102180000D03*
X147960000Y-104720000D03*
X147960000Y-107260000D03*
X147960000Y-109800000D03*
X147960000Y-112340000D03*
X147960000Y-114880000D03*
X147960000Y-117420000D03*
X147960000Y-119960000D03*
X147960000Y-122500000D03*
X147960000Y-125040000D03*
X147960000Y-127580000D03*
X147960000Y-130120000D03*
X150500000Y-81860000D03*
X150500000Y-84400000D03*
X150500000Y-86940000D03*
X150500000Y-89480000D03*
X150500000Y-92020000D03*
X150500000Y-94560000D03*
X150500000Y-97100000D03*
X150500000Y-99640000D03*
X150500000Y-102180000D03*
X150500000Y-104720000D03*
X150500000Y-107260000D03*
X150500000Y-109800000D03*
X150500000Y-112340000D03*
X150500000Y-114880000D03*
X150500000Y-117420000D03*
X150500000Y-119960000D03*
X150500000Y-122500000D03*
X150500000Y-125040000D03*
X150500000Y-127580000D03*
X150500000Y-130120000D03*
D17*
%TO.C,J7*%
X57375000Y-92680000D03*
X57375000Y-95220000D03*
X57375000Y-97760000D03*
X59915000Y-92680000D03*
X59915000Y-95220000D03*
X59915000Y-97760000D03*
X62455000Y-92680000D03*
X62455000Y-95220000D03*
X62455000Y-97760000D03*
%TO.C,J10*%
X153147500Y-62612500D03*
X153147500Y-65152500D03*
X153147500Y-67692500D03*
%TO.C,J12*%
X157812500Y-62612500D03*
X157812500Y-65152500D03*
X157812500Y-67692500D03*
%TO.C,J6*%
X207325000Y-89350000D03*
X207325000Y-91890000D03*
X207325000Y-94430000D03*
X209865000Y-89350000D03*
X209865000Y-91890000D03*
X209865000Y-94430000D03*
X212405000Y-89350000D03*
X212405000Y-91890000D03*
X212405000Y-94430000D03*
D18*
%TO.C,R6*%
X101920000Y-71600000D03*
X107000000Y-71600000D03*
%TO.C,R5*%
X121400000Y-71400000D03*
X126480000Y-71400000D03*
D19*
%TO.C,D5*%
X64425000Y-131295000D03*
X64425000Y-141455000D03*
%TO.C,D6*%
X64575000Y-147945000D03*
X64575000Y-158105000D03*
%TO.C,D2*%
X65075000Y-114170000D03*
X65075000Y-124330000D03*
%TO.C,D3*%
X199125000Y-129695000D03*
X199125000Y-139855000D03*
%TO.C,D1*%
X199550000Y-113325000D03*
X199550000Y-123485000D03*
%TO.C,D4*%
X199975000Y-146895000D03*
X199975000Y-157055000D03*
D20*
%TO.C,D8*%
X70050000Y-83596800D03*
X70050000Y-98100200D03*
%TO.C,D10*%
X109725000Y-130599800D03*
X109725000Y-145103200D03*
%TO.C,D9*%
X130700000Y-131199800D03*
X130700000Y-145703200D03*
%TO.C,D7*%
X199625000Y-80671800D03*
X199625000Y-95175200D03*
D21*
%TO.C,J1*%
X88005000Y-153450000D03*
X95625000Y-153450000D03*
X103245000Y-153450000D03*
X110865000Y-153450000D03*
X118485000Y-153450000D03*
X126105000Y-153450000D03*
D22*
%TO.C,J5*%
X69610251Y-107214600D03*
X75110250Y-107214600D03*
%TO.C,J4*%
X194464750Y-105460400D03*
X199964749Y-105460400D03*
%TD*%
D23*
X96200000Y-75500000D03*
X131800000Y-75500000D03*
D24*
X66875000Y-71375000D03*
X80575000Y-147150000D03*
X187125000Y-146700000D03*
X202675000Y-71375000D03*
M02*
