%TF.GenerationSoftware,KiCad,Pcbnew,9.0.6*%
%TF.CreationDate,2026-02-16T23:15:22-07:00*%
%TF.ProjectId,Capstone,43617073-746f-46e6-952e-6b696361645f,rev?*%
%TF.SameCoordinates,Original*%
%TF.FileFunction,Legend,Bot*%
%TF.FilePolarity,Positive*%
%FSLAX46Y46*%
G04 Gerber Fmt 4.6, Leading zero omitted, Abs format (unit mm)*
G04 Created by KiCad (PCBNEW 9.0.6) date 2026-02-16 23:15:22*
%MOMM*%
%LPD*%
G01*
G04 APERTURE LIST*
G04 Aperture macros list*
%AMRoundRect*
0 Rectangle with rounded corners*
0 $1 Rounding radius*
0 $2 $3 $4 $5 $6 $7 $8 $9 X,Y pos of 4 corners*
0 Add a 4 corners polygon primitive as box body*
4,1,4,$2,$3,$4,$5,$6,$7,$8,$9,$2,$3,0*
0 Add four circle primitives for the rounded corners*
1,1,$1+$1,$2,$3*
1,1,$1+$1,$4,$5*
1,1,$1+$1,$6,$7*
1,1,$1+$1,$8,$9*
0 Add four rect primitives between the rounded corners*
20,1,$1+$1,$2,$3,$4,$5,0*
20,1,$1+$1,$4,$5,$6,$7,0*
20,1,$1+$1,$6,$7,$8,$9,0*
20,1,$1+$1,$8,$9,$2,$3,0*%
G04 Aperture macros list end*
%ADD10C,0.300000*%
%ADD11C,0.200000*%
%ADD12C,0.100000*%
%ADD13C,0.150000*%
%ADD14C,0.098425*%
%ADD15C,0.508000*%
%ADD16C,0.127000*%
%ADD17C,0.152400*%
%ADD18C,2.362200*%
%ADD19R,1.397000X1.397000*%
%ADD20C,1.397000*%
%ADD21RoundRect,0.249999X-0.850001X0.850001X-0.850001X-0.850001X0.850001X-0.850001X0.850001X0.850001X0*%
%ADD22C,2.200000*%
%ADD23RoundRect,0.102000X-0.685000X-0.685000X0.685000X-0.685000X0.685000X0.685000X-0.685000X0.685000X0*%
%ADD24C,1.574000*%
%ADD25RoundRect,0.102000X0.625000X-0.625000X0.625000X0.625000X-0.625000X0.625000X-0.625000X-0.625000X0*%
%ADD26C,1.454000*%
%ADD27RoundRect,0.102000X0.492500X-0.492500X0.492500X0.492500X-0.492500X0.492500X-0.492500X-0.492500X0*%
%ADD28C,1.189000*%
%ADD29C,1.354000*%
%ADD30R,1.625600X1.625600*%
%ADD31C,1.625600*%
%ADD32C,1.574800*%
%ADD33C,1.524000*%
%ADD34RoundRect,0.102000X-2.760000X1.045000X-2.760000X-1.045000X2.760000X-1.045000X2.760000X1.045000X0*%
%ADD35RoundRect,0.102000X1.400000X-1.075000X1.400000X1.075000X-1.400000X1.075000X-1.400000X-1.075000X0*%
%ADD36RoundRect,0.102000X-1.400000X1.075000X-1.400000X-1.075000X1.400000X-1.075000X1.400000X1.075000X0*%
%ADD37RoundRect,0.102000X-1.045000X-2.760000X1.045000X-2.760000X1.045000X2.760000X-1.045000X2.760000X0*%
%ADD38RoundRect,0.102000X1.200000X1.200000X-1.200000X1.200000X-1.200000X-1.200000X1.200000X-1.200000X0*%
%ADD39C,2.604000*%
%ADD40C,1.400000*%
%TA.AperFunction,Profile*%
%ADD41C,0.050000*%
%TD*%
G04 APERTURE END LIST*
D10*
X187311653Y-103097971D02*
X187549748Y-103097971D01*
X187549748Y-103097971D02*
X188025939Y-102050352D01*
X188025939Y-102050352D02*
X188264034Y-99955114D01*
X188264034Y-99955114D02*
X188264034Y-89478923D01*
X188264034Y-89478923D02*
X188502129Y-87383685D01*
X188502129Y-87383685D02*
X188978320Y-86336066D01*
X188978320Y-86336066D02*
X188502129Y-85288447D01*
X188502129Y-85288447D02*
X188264034Y-83193209D01*
X188264034Y-83193209D02*
X188264034Y-72717019D01*
X188264034Y-72717019D02*
X188025939Y-70621780D01*
X188025939Y-70621780D02*
X187549748Y-69574161D01*
X187549748Y-69574161D02*
X187311653Y-69574161D01*
D11*
X189924950Y-95062469D02*
X190305902Y-95062469D01*
X189924950Y-94300564D02*
X190305902Y-94300564D01*
X191924950Y-93443421D02*
X189924950Y-93443421D01*
X189924950Y-93443421D02*
X189924950Y-92681516D01*
X189924950Y-92681516D02*
X190020188Y-92491040D01*
X190020188Y-92491040D02*
X190115426Y-92395802D01*
X190115426Y-92395802D02*
X190305902Y-92300564D01*
X190305902Y-92300564D02*
X190591616Y-92300564D01*
X190591616Y-92300564D02*
X190782092Y-92395802D01*
X190782092Y-92395802D02*
X190877331Y-92491040D01*
X190877331Y-92491040D02*
X190972569Y-92681516D01*
X190972569Y-92681516D02*
X190972569Y-93443421D01*
X191924950Y-91443421D02*
X190591616Y-91443421D01*
X190972569Y-91443421D02*
X190782092Y-91348183D01*
X190782092Y-91348183D02*
X190686854Y-91252945D01*
X190686854Y-91252945D02*
X190591616Y-91062469D01*
X190591616Y-91062469D02*
X190591616Y-90871992D01*
X191924950Y-89919612D02*
X191829712Y-90110088D01*
X191829712Y-90110088D02*
X191734473Y-90205326D01*
X191734473Y-90205326D02*
X191543997Y-90300564D01*
X191543997Y-90300564D02*
X190972569Y-90300564D01*
X190972569Y-90300564D02*
X190782092Y-90205326D01*
X190782092Y-90205326D02*
X190686854Y-90110088D01*
X190686854Y-90110088D02*
X190591616Y-89919612D01*
X190591616Y-89919612D02*
X190591616Y-89633897D01*
X190591616Y-89633897D02*
X190686854Y-89443421D01*
X190686854Y-89443421D02*
X190782092Y-89348183D01*
X190782092Y-89348183D02*
X190972569Y-89252945D01*
X190972569Y-89252945D02*
X191543997Y-89252945D01*
X191543997Y-89252945D02*
X191734473Y-89348183D01*
X191734473Y-89348183D02*
X191829712Y-89443421D01*
X191829712Y-89443421D02*
X191924950Y-89633897D01*
X191924950Y-89633897D02*
X191924950Y-89919612D01*
X190591616Y-88681516D02*
X190591616Y-87919612D01*
X189924950Y-88395802D02*
X191639235Y-88395802D01*
X191639235Y-88395802D02*
X191829712Y-88300564D01*
X191829712Y-88300564D02*
X191924950Y-88110088D01*
X191924950Y-88110088D02*
X191924950Y-87919612D01*
X191924950Y-86967231D02*
X191829712Y-87157707D01*
X191829712Y-87157707D02*
X191734473Y-87252945D01*
X191734473Y-87252945D02*
X191543997Y-87348183D01*
X191543997Y-87348183D02*
X190972569Y-87348183D01*
X190972569Y-87348183D02*
X190782092Y-87252945D01*
X190782092Y-87252945D02*
X190686854Y-87157707D01*
X190686854Y-87157707D02*
X190591616Y-86967231D01*
X190591616Y-86967231D02*
X190591616Y-86681516D01*
X190591616Y-86681516D02*
X190686854Y-86491040D01*
X190686854Y-86491040D02*
X190782092Y-86395802D01*
X190782092Y-86395802D02*
X190972569Y-86300564D01*
X190972569Y-86300564D02*
X191543997Y-86300564D01*
X191543997Y-86300564D02*
X191734473Y-86395802D01*
X191734473Y-86395802D02*
X191829712Y-86491040D01*
X191829712Y-86491040D02*
X191924950Y-86681516D01*
X191924950Y-86681516D02*
X191924950Y-86967231D01*
X190877331Y-84776754D02*
X190972569Y-84491040D01*
X190972569Y-84491040D02*
X191067807Y-84395802D01*
X191067807Y-84395802D02*
X191258283Y-84300564D01*
X191258283Y-84300564D02*
X191543997Y-84300564D01*
X191543997Y-84300564D02*
X191734473Y-84395802D01*
X191734473Y-84395802D02*
X191829712Y-84491040D01*
X191829712Y-84491040D02*
X191924950Y-84681516D01*
X191924950Y-84681516D02*
X191924950Y-85443421D01*
X191924950Y-85443421D02*
X189924950Y-85443421D01*
X189924950Y-85443421D02*
X189924950Y-84776754D01*
X189924950Y-84776754D02*
X190020188Y-84586278D01*
X190020188Y-84586278D02*
X190115426Y-84491040D01*
X190115426Y-84491040D02*
X190305902Y-84395802D01*
X190305902Y-84395802D02*
X190496378Y-84395802D01*
X190496378Y-84395802D02*
X190686854Y-84491040D01*
X190686854Y-84491040D02*
X190782092Y-84586278D01*
X190782092Y-84586278D02*
X190877331Y-84776754D01*
X190877331Y-84776754D02*
X190877331Y-85443421D01*
X191924950Y-83157707D02*
X191829712Y-83348183D01*
X191829712Y-83348183D02*
X191734473Y-83443421D01*
X191734473Y-83443421D02*
X191543997Y-83538659D01*
X191543997Y-83538659D02*
X190972569Y-83538659D01*
X190972569Y-83538659D02*
X190782092Y-83443421D01*
X190782092Y-83443421D02*
X190686854Y-83348183D01*
X190686854Y-83348183D02*
X190591616Y-83157707D01*
X190591616Y-83157707D02*
X190591616Y-82871992D01*
X190591616Y-82871992D02*
X190686854Y-82681516D01*
X190686854Y-82681516D02*
X190782092Y-82586278D01*
X190782092Y-82586278D02*
X190972569Y-82491040D01*
X190972569Y-82491040D02*
X191543997Y-82491040D01*
X191543997Y-82491040D02*
X191734473Y-82586278D01*
X191734473Y-82586278D02*
X191829712Y-82681516D01*
X191829712Y-82681516D02*
X191924950Y-82871992D01*
X191924950Y-82871992D02*
X191924950Y-83157707D01*
X191924950Y-80776754D02*
X190877331Y-80776754D01*
X190877331Y-80776754D02*
X190686854Y-80871992D01*
X190686854Y-80871992D02*
X190591616Y-81062468D01*
X190591616Y-81062468D02*
X190591616Y-81443421D01*
X190591616Y-81443421D02*
X190686854Y-81633897D01*
X191829712Y-80776754D02*
X191924950Y-80967230D01*
X191924950Y-80967230D02*
X191924950Y-81443421D01*
X191924950Y-81443421D02*
X191829712Y-81633897D01*
X191829712Y-81633897D02*
X191639235Y-81729135D01*
X191639235Y-81729135D02*
X191448759Y-81729135D01*
X191448759Y-81729135D02*
X191258283Y-81633897D01*
X191258283Y-81633897D02*
X191163045Y-81443421D01*
X191163045Y-81443421D02*
X191163045Y-80967230D01*
X191163045Y-80967230D02*
X191067807Y-80776754D01*
X191924950Y-79824373D02*
X190591616Y-79824373D01*
X190972569Y-79824373D02*
X190782092Y-79729135D01*
X190782092Y-79729135D02*
X190686854Y-79633897D01*
X190686854Y-79633897D02*
X190591616Y-79443421D01*
X190591616Y-79443421D02*
X190591616Y-79252944D01*
X191924950Y-77729135D02*
X189924950Y-77729135D01*
X191829712Y-77729135D02*
X191924950Y-77919611D01*
X191924950Y-77919611D02*
X191924950Y-78300564D01*
X191924950Y-78300564D02*
X191829712Y-78491040D01*
X191829712Y-78491040D02*
X191734473Y-78586278D01*
X191734473Y-78586278D02*
X191543997Y-78681516D01*
X191543997Y-78681516D02*
X190972569Y-78681516D01*
X190972569Y-78681516D02*
X190782092Y-78586278D01*
X190782092Y-78586278D02*
X190686854Y-78491040D01*
X190686854Y-78491040D02*
X190591616Y-78300564D01*
X190591616Y-78300564D02*
X190591616Y-77919611D01*
X190591616Y-77919611D02*
X190686854Y-77729135D01*
X189924950Y-76871992D02*
X190305902Y-76871992D01*
X189924950Y-76110087D02*
X190305902Y-76110087D01*
X193144838Y-93729135D02*
X193144838Y-92586278D01*
X195144838Y-93157707D02*
X193144838Y-93157707D01*
X195144838Y-91919611D02*
X193144838Y-91919611D01*
X195144838Y-91062468D02*
X194097219Y-91062468D01*
X194097219Y-91062468D02*
X193906742Y-91157706D01*
X193906742Y-91157706D02*
X193811504Y-91348182D01*
X193811504Y-91348182D02*
X193811504Y-91633897D01*
X193811504Y-91633897D02*
X193906742Y-91824373D01*
X193906742Y-91824373D02*
X194001980Y-91919611D01*
X195144838Y-90110087D02*
X193811504Y-90110087D01*
X194192457Y-90110087D02*
X194001980Y-90014849D01*
X194001980Y-90014849D02*
X193906742Y-89919611D01*
X193906742Y-89919611D02*
X193811504Y-89729135D01*
X193811504Y-89729135D02*
X193811504Y-89538658D01*
X193811504Y-88014849D02*
X195144838Y-88014849D01*
X193811504Y-88871992D02*
X194859123Y-88871992D01*
X194859123Y-88871992D02*
X195049600Y-88776754D01*
X195049600Y-88776754D02*
X195144838Y-88586278D01*
X195144838Y-88586278D02*
X195144838Y-88300563D01*
X195144838Y-88300563D02*
X195049600Y-88110087D01*
X195049600Y-88110087D02*
X194954361Y-88014849D01*
X195144838Y-85538658D02*
X193144838Y-85538658D01*
X194097219Y-85538658D02*
X194097219Y-84395801D01*
X195144838Y-84395801D02*
X193144838Y-84395801D01*
X195144838Y-83157706D02*
X195049600Y-83348182D01*
X195049600Y-83348182D02*
X194954361Y-83443420D01*
X194954361Y-83443420D02*
X194763885Y-83538658D01*
X194763885Y-83538658D02*
X194192457Y-83538658D01*
X194192457Y-83538658D02*
X194001980Y-83443420D01*
X194001980Y-83443420D02*
X193906742Y-83348182D01*
X193906742Y-83348182D02*
X193811504Y-83157706D01*
X193811504Y-83157706D02*
X193811504Y-82871991D01*
X193811504Y-82871991D02*
X193906742Y-82681515D01*
X193906742Y-82681515D02*
X194001980Y-82586277D01*
X194001980Y-82586277D02*
X194192457Y-82491039D01*
X194192457Y-82491039D02*
X194763885Y-82491039D01*
X194763885Y-82491039D02*
X194954361Y-82586277D01*
X194954361Y-82586277D02*
X195049600Y-82681515D01*
X195049600Y-82681515D02*
X195144838Y-82871991D01*
X195144838Y-82871991D02*
X195144838Y-83157706D01*
X195144838Y-81348182D02*
X195049600Y-81538658D01*
X195049600Y-81538658D02*
X194859123Y-81633896D01*
X194859123Y-81633896D02*
X193144838Y-81633896D01*
X195049600Y-79824372D02*
X195144838Y-80014848D01*
X195144838Y-80014848D02*
X195144838Y-80395801D01*
X195144838Y-80395801D02*
X195049600Y-80586277D01*
X195049600Y-80586277D02*
X194859123Y-80681515D01*
X194859123Y-80681515D02*
X194097219Y-80681515D01*
X194097219Y-80681515D02*
X193906742Y-80586277D01*
X193906742Y-80586277D02*
X193811504Y-80395801D01*
X193811504Y-80395801D02*
X193811504Y-80014848D01*
X193811504Y-80014848D02*
X193906742Y-79824372D01*
X193906742Y-79824372D02*
X194097219Y-79729134D01*
X194097219Y-79729134D02*
X194287695Y-79729134D01*
X194287695Y-79729134D02*
X194478171Y-80681515D01*
X195049600Y-78967229D02*
X195144838Y-78776753D01*
X195144838Y-78776753D02*
X195144838Y-78395801D01*
X195144838Y-78395801D02*
X195049600Y-78205324D01*
X195049600Y-78205324D02*
X194859123Y-78110086D01*
X194859123Y-78110086D02*
X194763885Y-78110086D01*
X194763885Y-78110086D02*
X194573409Y-78205324D01*
X194573409Y-78205324D02*
X194478171Y-78395801D01*
X194478171Y-78395801D02*
X194478171Y-78681515D01*
X194478171Y-78681515D02*
X194382933Y-78871991D01*
X194382933Y-78871991D02*
X194192457Y-78967229D01*
X194192457Y-78967229D02*
X194097219Y-78967229D01*
X194097219Y-78967229D02*
X193906742Y-78871991D01*
X193906742Y-78871991D02*
X193811504Y-78681515D01*
X193811504Y-78681515D02*
X193811504Y-78395801D01*
X193811504Y-78395801D02*
X193906742Y-78205324D01*
D12*
X68449032Y-145957419D02*
X68449032Y-144957419D01*
X67877604Y-145957419D02*
X68306175Y-145385990D01*
X67877604Y-144957419D02*
X68449032Y-145528847D01*
X66972842Y-144957419D02*
X67449032Y-144957419D01*
X67449032Y-144957419D02*
X67496651Y-145433609D01*
X67496651Y-145433609D02*
X67449032Y-145385990D01*
X67449032Y-145385990D02*
X67353794Y-145338371D01*
X67353794Y-145338371D02*
X67115699Y-145338371D01*
X67115699Y-145338371D02*
X67020461Y-145385990D01*
X67020461Y-145385990D02*
X66972842Y-145433609D01*
X66972842Y-145433609D02*
X66925223Y-145528847D01*
X66925223Y-145528847D02*
X66925223Y-145766942D01*
X66925223Y-145766942D02*
X66972842Y-145862180D01*
X66972842Y-145862180D02*
X67020461Y-145909800D01*
X67020461Y-145909800D02*
X67115699Y-145957419D01*
X67115699Y-145957419D02*
X67353794Y-145957419D01*
X67353794Y-145957419D02*
X67449032Y-145909800D01*
X67449032Y-145909800D02*
X67496651Y-145862180D01*
D13*
X59991666Y-84084580D02*
X60039285Y-84132200D01*
X60039285Y-84132200D02*
X60182142Y-84179819D01*
X60182142Y-84179819D02*
X60277380Y-84179819D01*
X60277380Y-84179819D02*
X60420237Y-84132200D01*
X60420237Y-84132200D02*
X60515475Y-84036961D01*
X60515475Y-84036961D02*
X60563094Y-83941723D01*
X60563094Y-83941723D02*
X60610713Y-83751247D01*
X60610713Y-83751247D02*
X60610713Y-83608390D01*
X60610713Y-83608390D02*
X60563094Y-83417914D01*
X60563094Y-83417914D02*
X60515475Y-83322676D01*
X60515475Y-83322676D02*
X60420237Y-83227438D01*
X60420237Y-83227438D02*
X60277380Y-83179819D01*
X60277380Y-83179819D02*
X60182142Y-83179819D01*
X60182142Y-83179819D02*
X60039285Y-83227438D01*
X60039285Y-83227438D02*
X59991666Y-83275057D01*
X59658332Y-83179819D02*
X58991666Y-83179819D01*
X58991666Y-83179819D02*
X59420237Y-84179819D01*
D14*
X101939519Y-130571907D02*
X101958267Y-130553159D01*
X101958267Y-130553159D02*
X101977014Y-130496916D01*
X101977014Y-130496916D02*
X101977014Y-130459421D01*
X101977014Y-130459421D02*
X101958267Y-130403178D01*
X101958267Y-130403178D02*
X101920771Y-130365683D01*
X101920771Y-130365683D02*
X101883276Y-130346935D01*
X101883276Y-130346935D02*
X101808285Y-130328187D01*
X101808285Y-130328187D02*
X101752042Y-130328187D01*
X101752042Y-130328187D02*
X101677052Y-130346935D01*
X101677052Y-130346935D02*
X101639556Y-130365683D01*
X101639556Y-130365683D02*
X101602061Y-130403178D01*
X101602061Y-130403178D02*
X101583313Y-130459421D01*
X101583313Y-130459421D02*
X101583313Y-130496916D01*
X101583313Y-130496916D02*
X101602061Y-130553159D01*
X101602061Y-130553159D02*
X101620809Y-130571907D01*
X101977014Y-130946860D02*
X101977014Y-130721888D01*
X101977014Y-130834374D02*
X101583313Y-130834374D01*
X101583313Y-130834374D02*
X101639556Y-130796879D01*
X101639556Y-130796879D02*
X101677052Y-130759384D01*
X101677052Y-130759384D02*
X101695799Y-130721888D01*
X101977014Y-131321813D02*
X101977014Y-131096841D01*
X101977014Y-131209327D02*
X101583313Y-131209327D01*
X101583313Y-131209327D02*
X101639556Y-131171832D01*
X101639556Y-131171832D02*
X101677052Y-131134337D01*
X101677052Y-131134337D02*
X101695799Y-131096841D01*
D12*
X68849032Y-128657419D02*
X68849032Y-127657419D01*
X68277604Y-128657419D02*
X68706175Y-128085990D01*
X68277604Y-127657419D02*
X68849032Y-128228847D01*
X67896651Y-127752657D02*
X67849032Y-127705038D01*
X67849032Y-127705038D02*
X67753794Y-127657419D01*
X67753794Y-127657419D02*
X67515699Y-127657419D01*
X67515699Y-127657419D02*
X67420461Y-127705038D01*
X67420461Y-127705038D02*
X67372842Y-127752657D01*
X67372842Y-127752657D02*
X67325223Y-127847895D01*
X67325223Y-127847895D02*
X67325223Y-127943133D01*
X67325223Y-127943133D02*
X67372842Y-128085990D01*
X67372842Y-128085990D02*
X67944270Y-128657419D01*
X67944270Y-128657419D02*
X67325223Y-128657419D01*
X68449032Y-162657419D02*
X68449032Y-161657419D01*
X67877604Y-162657419D02*
X68306175Y-162085990D01*
X67877604Y-161657419D02*
X68449032Y-162228847D01*
X67020461Y-161657419D02*
X67210937Y-161657419D01*
X67210937Y-161657419D02*
X67306175Y-161705038D01*
X67306175Y-161705038D02*
X67353794Y-161752657D01*
X67353794Y-161752657D02*
X67449032Y-161895514D01*
X67449032Y-161895514D02*
X67496651Y-162085990D01*
X67496651Y-162085990D02*
X67496651Y-162466942D01*
X67496651Y-162466942D02*
X67449032Y-162562180D01*
X67449032Y-162562180D02*
X67401413Y-162609800D01*
X67401413Y-162609800D02*
X67306175Y-162657419D01*
X67306175Y-162657419D02*
X67115699Y-162657419D01*
X67115699Y-162657419D02*
X67020461Y-162609800D01*
X67020461Y-162609800D02*
X66972842Y-162562180D01*
X66972842Y-162562180D02*
X66925223Y-162466942D01*
X66925223Y-162466942D02*
X66925223Y-162228847D01*
X66925223Y-162228847D02*
X66972842Y-162133609D01*
X66972842Y-162133609D02*
X67020461Y-162085990D01*
X67020461Y-162085990D02*
X67115699Y-162038371D01*
X67115699Y-162038371D02*
X67306175Y-162038371D01*
X67306175Y-162038371D02*
X67401413Y-162085990D01*
X67401413Y-162085990D02*
X67449032Y-162133609D01*
X67449032Y-162133609D02*
X67496651Y-162228847D01*
X203138094Y-128057419D02*
X203138094Y-127057419D01*
X202566666Y-128057419D02*
X202995237Y-127485990D01*
X202566666Y-127057419D02*
X203138094Y-127628847D01*
X201614285Y-128057419D02*
X202185713Y-128057419D01*
X201899999Y-128057419D02*
X201899999Y-127057419D01*
X201899999Y-127057419D02*
X201995237Y-127200276D01*
X201995237Y-127200276D02*
X202090475Y-127295514D01*
X202090475Y-127295514D02*
X202185713Y-127343133D01*
D13*
X200079819Y-87185405D02*
X199079819Y-87185405D01*
X199079819Y-87185405D02*
X199079819Y-87423500D01*
X199079819Y-87423500D02*
X199127438Y-87566357D01*
X199127438Y-87566357D02*
X199222676Y-87661595D01*
X199222676Y-87661595D02*
X199317914Y-87709214D01*
X199317914Y-87709214D02*
X199508390Y-87756833D01*
X199508390Y-87756833D02*
X199651247Y-87756833D01*
X199651247Y-87756833D02*
X199841723Y-87709214D01*
X199841723Y-87709214D02*
X199936961Y-87661595D01*
X199936961Y-87661595D02*
X200032200Y-87566357D01*
X200032200Y-87566357D02*
X200079819Y-87423500D01*
X200079819Y-87423500D02*
X200079819Y-87185405D01*
X199079819Y-88090167D02*
X199079819Y-88756833D01*
X199079819Y-88756833D02*
X200079819Y-88328262D01*
X107791009Y-143716666D02*
X107791009Y-143383333D01*
X108314819Y-143383333D02*
X107314819Y-143383333D01*
X107314819Y-143383333D02*
X107314819Y-143859523D01*
X108314819Y-144764285D02*
X108314819Y-144192857D01*
X108314819Y-144478571D02*
X107314819Y-144478571D01*
X107314819Y-144478571D02*
X107457676Y-144383333D01*
X107457676Y-144383333D02*
X107552914Y-144288095D01*
X107552914Y-144288095D02*
X107600533Y-144192857D01*
X63021009Y-91791666D02*
X63021009Y-91458333D01*
X63544819Y-91458333D02*
X62544819Y-91458333D01*
X62544819Y-91458333D02*
X62544819Y-91934523D01*
X62544819Y-92220238D02*
X62544819Y-92839285D01*
X62544819Y-92839285D02*
X62925771Y-92505952D01*
X62925771Y-92505952D02*
X62925771Y-92648809D01*
X62925771Y-92648809D02*
X62973390Y-92744047D01*
X62973390Y-92744047D02*
X63021009Y-92791666D01*
X63021009Y-92791666D02*
X63116247Y-92839285D01*
X63116247Y-92839285D02*
X63354342Y-92839285D01*
X63354342Y-92839285D02*
X63449580Y-92791666D01*
X63449580Y-92791666D02*
X63497200Y-92744047D01*
X63497200Y-92744047D02*
X63544819Y-92648809D01*
X63544819Y-92648809D02*
X63544819Y-92363095D01*
X63544819Y-92363095D02*
X63497200Y-92267857D01*
X63497200Y-92267857D02*
X63449580Y-92220238D01*
X210641666Y-77634580D02*
X210689285Y-77682200D01*
X210689285Y-77682200D02*
X210832142Y-77729819D01*
X210832142Y-77729819D02*
X210927380Y-77729819D01*
X210927380Y-77729819D02*
X211070237Y-77682200D01*
X211070237Y-77682200D02*
X211165475Y-77586961D01*
X211165475Y-77586961D02*
X211213094Y-77491723D01*
X211213094Y-77491723D02*
X211260713Y-77301247D01*
X211260713Y-77301247D02*
X211260713Y-77158390D01*
X211260713Y-77158390D02*
X211213094Y-76967914D01*
X211213094Y-76967914D02*
X211165475Y-76872676D01*
X211165475Y-76872676D02*
X211070237Y-76777438D01*
X211070237Y-76777438D02*
X210927380Y-76729819D01*
X210927380Y-76729819D02*
X210832142Y-76729819D01*
X210832142Y-76729819D02*
X210689285Y-76777438D01*
X210689285Y-76777438D02*
X210641666Y-76825057D01*
X209784523Y-77063152D02*
X209784523Y-77729819D01*
X210022618Y-76682200D02*
X210260713Y-77396485D01*
X210260713Y-77396485D02*
X209641666Y-77396485D01*
X70504819Y-90110405D02*
X69504819Y-90110405D01*
X69504819Y-90110405D02*
X69504819Y-90348500D01*
X69504819Y-90348500D02*
X69552438Y-90491357D01*
X69552438Y-90491357D02*
X69647676Y-90586595D01*
X69647676Y-90586595D02*
X69742914Y-90634214D01*
X69742914Y-90634214D02*
X69933390Y-90681833D01*
X69933390Y-90681833D02*
X70076247Y-90681833D01*
X70076247Y-90681833D02*
X70266723Y-90634214D01*
X70266723Y-90634214D02*
X70361961Y-90586595D01*
X70361961Y-90586595D02*
X70457200Y-90491357D01*
X70457200Y-90491357D02*
X70504819Y-90348500D01*
X70504819Y-90348500D02*
X70504819Y-90110405D01*
X69933390Y-91253262D02*
X69885771Y-91158024D01*
X69885771Y-91158024D02*
X69838152Y-91110405D01*
X69838152Y-91110405D02*
X69742914Y-91062786D01*
X69742914Y-91062786D02*
X69695295Y-91062786D01*
X69695295Y-91062786D02*
X69600057Y-91110405D01*
X69600057Y-91110405D02*
X69552438Y-91158024D01*
X69552438Y-91158024D02*
X69504819Y-91253262D01*
X69504819Y-91253262D02*
X69504819Y-91443738D01*
X69504819Y-91443738D02*
X69552438Y-91538976D01*
X69552438Y-91538976D02*
X69600057Y-91586595D01*
X69600057Y-91586595D02*
X69695295Y-91634214D01*
X69695295Y-91634214D02*
X69742914Y-91634214D01*
X69742914Y-91634214D02*
X69838152Y-91586595D01*
X69838152Y-91586595D02*
X69885771Y-91538976D01*
X69885771Y-91538976D02*
X69933390Y-91443738D01*
X69933390Y-91443738D02*
X69933390Y-91253262D01*
X69933390Y-91253262D02*
X69981009Y-91158024D01*
X69981009Y-91158024D02*
X70028628Y-91110405D01*
X70028628Y-91110405D02*
X70123866Y-91062786D01*
X70123866Y-91062786D02*
X70314342Y-91062786D01*
X70314342Y-91062786D02*
X70409580Y-91110405D01*
X70409580Y-91110405D02*
X70457200Y-91158024D01*
X70457200Y-91158024D02*
X70504819Y-91253262D01*
X70504819Y-91253262D02*
X70504819Y-91443738D01*
X70504819Y-91443738D02*
X70457200Y-91538976D01*
X70457200Y-91538976D02*
X70409580Y-91586595D01*
X70409580Y-91586595D02*
X70314342Y-91634214D01*
X70314342Y-91634214D02*
X70123866Y-91634214D01*
X70123866Y-91634214D02*
X70028628Y-91586595D01*
X70028628Y-91586595D02*
X69981009Y-91538976D01*
X69981009Y-91538976D02*
X69933390Y-91443738D01*
D14*
X57643492Y-91903919D02*
X57662240Y-91922667D01*
X57662240Y-91922667D02*
X57718483Y-91941414D01*
X57718483Y-91941414D02*
X57755978Y-91941414D01*
X57755978Y-91941414D02*
X57812221Y-91922667D01*
X57812221Y-91922667D02*
X57849717Y-91885171D01*
X57849717Y-91885171D02*
X57868464Y-91847676D01*
X57868464Y-91847676D02*
X57887212Y-91772685D01*
X57887212Y-91772685D02*
X57887212Y-91716442D01*
X57887212Y-91716442D02*
X57868464Y-91641452D01*
X57868464Y-91641452D02*
X57849717Y-91603956D01*
X57849717Y-91603956D02*
X57812221Y-91566461D01*
X57812221Y-91566461D02*
X57755978Y-91547713D01*
X57755978Y-91547713D02*
X57718483Y-91547713D01*
X57718483Y-91547713D02*
X57662240Y-91566461D01*
X57662240Y-91566461D02*
X57643492Y-91585209D01*
X57268539Y-91941414D02*
X57493511Y-91941414D01*
X57381025Y-91941414D02*
X57381025Y-91547713D01*
X57381025Y-91547713D02*
X57418520Y-91603956D01*
X57418520Y-91603956D02*
X57456016Y-91641452D01*
X57456016Y-91641452D02*
X57493511Y-91660199D01*
X57024820Y-91547713D02*
X56987324Y-91547713D01*
X56987324Y-91547713D02*
X56949829Y-91566461D01*
X56949829Y-91566461D02*
X56931081Y-91585209D01*
X56931081Y-91585209D02*
X56912334Y-91622704D01*
X56912334Y-91622704D02*
X56893586Y-91697695D01*
X56893586Y-91697695D02*
X56893586Y-91791433D01*
X56893586Y-91791433D02*
X56912334Y-91866424D01*
X56912334Y-91866424D02*
X56931081Y-91903919D01*
X56931081Y-91903919D02*
X56949829Y-91922667D01*
X56949829Y-91922667D02*
X56987324Y-91941414D01*
X56987324Y-91941414D02*
X57024820Y-91941414D01*
X57024820Y-91941414D02*
X57062315Y-91922667D01*
X57062315Y-91922667D02*
X57081063Y-91903919D01*
X57081063Y-91903919D02*
X57099810Y-91866424D01*
X57099810Y-91866424D02*
X57118558Y-91791433D01*
X57118558Y-91791433D02*
X57118558Y-91697695D01*
X57118558Y-91697695D02*
X57099810Y-91622704D01*
X57099810Y-91622704D02*
X57081063Y-91585209D01*
X57081063Y-91585209D02*
X57062315Y-91566461D01*
X57062315Y-91566461D02*
X57024820Y-91547713D01*
X122564519Y-131046907D02*
X122583267Y-131028159D01*
X122583267Y-131028159D02*
X122602014Y-130971916D01*
X122602014Y-130971916D02*
X122602014Y-130934421D01*
X122602014Y-130934421D02*
X122583267Y-130878178D01*
X122583267Y-130878178D02*
X122545771Y-130840683D01*
X122545771Y-130840683D02*
X122508276Y-130821935D01*
X122508276Y-130821935D02*
X122433285Y-130803187D01*
X122433285Y-130803187D02*
X122377042Y-130803187D01*
X122377042Y-130803187D02*
X122302052Y-130821935D01*
X122302052Y-130821935D02*
X122264556Y-130840683D01*
X122264556Y-130840683D02*
X122227061Y-130878178D01*
X122227061Y-130878178D02*
X122208313Y-130934421D01*
X122208313Y-130934421D02*
X122208313Y-130971916D01*
X122208313Y-130971916D02*
X122227061Y-131028159D01*
X122227061Y-131028159D02*
X122245809Y-131046907D01*
X122602014Y-131421860D02*
X122602014Y-131196888D01*
X122602014Y-131309374D02*
X122208313Y-131309374D01*
X122208313Y-131309374D02*
X122264556Y-131271879D01*
X122264556Y-131271879D02*
X122302052Y-131234384D01*
X122302052Y-131234384D02*
X122320799Y-131196888D01*
X122245809Y-131571841D02*
X122227061Y-131590589D01*
X122227061Y-131590589D02*
X122208313Y-131628084D01*
X122208313Y-131628084D02*
X122208313Y-131721823D01*
X122208313Y-131721823D02*
X122227061Y-131759318D01*
X122227061Y-131759318D02*
X122245809Y-131778066D01*
X122245809Y-131778066D02*
X122283304Y-131796813D01*
X122283304Y-131796813D02*
X122320799Y-131796813D01*
X122320799Y-131796813D02*
X122377042Y-131778066D01*
X122377042Y-131778066D02*
X122602014Y-131553094D01*
X122602014Y-131553094D02*
X122602014Y-131796813D01*
X207740616Y-88289519D02*
X207759364Y-88308267D01*
X207759364Y-88308267D02*
X207815607Y-88327014D01*
X207815607Y-88327014D02*
X207853102Y-88327014D01*
X207853102Y-88327014D02*
X207909345Y-88308267D01*
X207909345Y-88308267D02*
X207946841Y-88270771D01*
X207946841Y-88270771D02*
X207965588Y-88233276D01*
X207965588Y-88233276D02*
X207984336Y-88158285D01*
X207984336Y-88158285D02*
X207984336Y-88102042D01*
X207984336Y-88102042D02*
X207965588Y-88027052D01*
X207965588Y-88027052D02*
X207946841Y-87989556D01*
X207946841Y-87989556D02*
X207909345Y-87952061D01*
X207909345Y-87952061D02*
X207853102Y-87933313D01*
X207853102Y-87933313D02*
X207815607Y-87933313D01*
X207815607Y-87933313D02*
X207759364Y-87952061D01*
X207759364Y-87952061D02*
X207740616Y-87970809D01*
X207553140Y-88327014D02*
X207478149Y-88327014D01*
X207478149Y-88327014D02*
X207440654Y-88308267D01*
X207440654Y-88308267D02*
X207421906Y-88289519D01*
X207421906Y-88289519D02*
X207384411Y-88233276D01*
X207384411Y-88233276D02*
X207365663Y-88158285D01*
X207365663Y-88158285D02*
X207365663Y-88008304D01*
X207365663Y-88008304D02*
X207384411Y-87970809D01*
X207384411Y-87970809D02*
X207403158Y-87952061D01*
X207403158Y-87952061D02*
X207440654Y-87933313D01*
X207440654Y-87933313D02*
X207515644Y-87933313D01*
X207515644Y-87933313D02*
X207553140Y-87952061D01*
X207553140Y-87952061D02*
X207571887Y-87970809D01*
X207571887Y-87970809D02*
X207590635Y-88008304D01*
X207590635Y-88008304D02*
X207590635Y-88102042D01*
X207590635Y-88102042D02*
X207571887Y-88139538D01*
X207571887Y-88139538D02*
X207553140Y-88158285D01*
X207553140Y-88158285D02*
X207515644Y-88177033D01*
X207515644Y-88177033D02*
X207440654Y-88177033D01*
X207440654Y-88177033D02*
X207403158Y-88158285D01*
X207403158Y-88158285D02*
X207384411Y-88139538D01*
X207384411Y-88139538D02*
X207365663Y-88102042D01*
D12*
X203238094Y-161157419D02*
X203238094Y-160157419D01*
X202666666Y-161157419D02*
X203095237Y-160585990D01*
X202666666Y-160157419D02*
X203238094Y-160728847D01*
X201809523Y-160490752D02*
X201809523Y-161157419D01*
X202047618Y-160109800D02*
X202285713Y-160824085D01*
X202285713Y-160824085D02*
X201666666Y-160824085D01*
D13*
X201346009Y-88666666D02*
X201346009Y-88333333D01*
X201869819Y-88333333D02*
X200869819Y-88333333D01*
X200869819Y-88333333D02*
X200869819Y-88809523D01*
X200965057Y-89142857D02*
X200917438Y-89190476D01*
X200917438Y-89190476D02*
X200869819Y-89285714D01*
X200869819Y-89285714D02*
X200869819Y-89523809D01*
X200869819Y-89523809D02*
X200917438Y-89619047D01*
X200917438Y-89619047D02*
X200965057Y-89666666D01*
X200965057Y-89666666D02*
X201060295Y-89714285D01*
X201060295Y-89714285D02*
X201155533Y-89714285D01*
X201155533Y-89714285D02*
X201298390Y-89666666D01*
X201298390Y-89666666D02*
X201869819Y-89095238D01*
X201869819Y-89095238D02*
X201869819Y-89714285D01*
D12*
X202638094Y-144457419D02*
X202638094Y-143457419D01*
X202066666Y-144457419D02*
X202495237Y-143885990D01*
X202066666Y-143457419D02*
X202638094Y-144028847D01*
X201733332Y-143457419D02*
X201114285Y-143457419D01*
X201114285Y-143457419D02*
X201447618Y-143838371D01*
X201447618Y-143838371D02*
X201304761Y-143838371D01*
X201304761Y-143838371D02*
X201209523Y-143885990D01*
X201209523Y-143885990D02*
X201161904Y-143933609D01*
X201161904Y-143933609D02*
X201114285Y-144028847D01*
X201114285Y-144028847D02*
X201114285Y-144266942D01*
X201114285Y-144266942D02*
X201161904Y-144362180D01*
X201161904Y-144362180D02*
X201209523Y-144409800D01*
X201209523Y-144409800D02*
X201304761Y-144457419D01*
X201304761Y-144457419D02*
X201590475Y-144457419D01*
X201590475Y-144457419D02*
X201685713Y-144409800D01*
X201685713Y-144409800D02*
X201733332Y-144362180D01*
D13*
X210566666Y-80509580D02*
X210614285Y-80557200D01*
X210614285Y-80557200D02*
X210757142Y-80604819D01*
X210757142Y-80604819D02*
X210852380Y-80604819D01*
X210852380Y-80604819D02*
X210995237Y-80557200D01*
X210995237Y-80557200D02*
X211090475Y-80461961D01*
X211090475Y-80461961D02*
X211138094Y-80366723D01*
X211138094Y-80366723D02*
X211185713Y-80176247D01*
X211185713Y-80176247D02*
X211185713Y-80033390D01*
X211185713Y-80033390D02*
X211138094Y-79842914D01*
X211138094Y-79842914D02*
X211090475Y-79747676D01*
X211090475Y-79747676D02*
X210995237Y-79652438D01*
X210995237Y-79652438D02*
X210852380Y-79604819D01*
X210852380Y-79604819D02*
X210757142Y-79604819D01*
X210757142Y-79604819D02*
X210614285Y-79652438D01*
X210614285Y-79652438D02*
X210566666Y-79700057D01*
X209995237Y-80033390D02*
X210090475Y-79985771D01*
X210090475Y-79985771D02*
X210138094Y-79938152D01*
X210138094Y-79938152D02*
X210185713Y-79842914D01*
X210185713Y-79842914D02*
X210185713Y-79795295D01*
X210185713Y-79795295D02*
X210138094Y-79700057D01*
X210138094Y-79700057D02*
X210090475Y-79652438D01*
X210090475Y-79652438D02*
X209995237Y-79604819D01*
X209995237Y-79604819D02*
X209804761Y-79604819D01*
X209804761Y-79604819D02*
X209709523Y-79652438D01*
X209709523Y-79652438D02*
X209661904Y-79700057D01*
X209661904Y-79700057D02*
X209614285Y-79795295D01*
X209614285Y-79795295D02*
X209614285Y-79842914D01*
X209614285Y-79842914D02*
X209661904Y-79938152D01*
X209661904Y-79938152D02*
X209709523Y-79985771D01*
X209709523Y-79985771D02*
X209804761Y-80033390D01*
X209804761Y-80033390D02*
X209995237Y-80033390D01*
X209995237Y-80033390D02*
X210090475Y-80081009D01*
X210090475Y-80081009D02*
X210138094Y-80128628D01*
X210138094Y-80128628D02*
X210185713Y-80223866D01*
X210185713Y-80223866D02*
X210185713Y-80414342D01*
X210185713Y-80414342D02*
X210138094Y-80509580D01*
X210138094Y-80509580D02*
X210090475Y-80557200D01*
X210090475Y-80557200D02*
X209995237Y-80604819D01*
X209995237Y-80604819D02*
X209804761Y-80604819D01*
X209804761Y-80604819D02*
X209709523Y-80557200D01*
X209709523Y-80557200D02*
X209661904Y-80509580D01*
X209661904Y-80509580D02*
X209614285Y-80414342D01*
X209614285Y-80414342D02*
X209614285Y-80223866D01*
X209614285Y-80223866D02*
X209661904Y-80128628D01*
X209661904Y-80128628D02*
X209709523Y-80081009D01*
X209709523Y-80081009D02*
X209804761Y-80033390D01*
X126936666Y-146100866D02*
X126936666Y-147100866D01*
X126936666Y-147100866D02*
X127003333Y-147300866D01*
X127003333Y-147300866D02*
X127136666Y-147434200D01*
X127136666Y-147434200D02*
X127336666Y-147500866D01*
X127336666Y-147500866D02*
X127470000Y-147500866D01*
X125536666Y-147500866D02*
X126336666Y-147500866D01*
X125936666Y-147500866D02*
X125936666Y-146100866D01*
X125936666Y-146100866D02*
X126069999Y-146300866D01*
X126069999Y-146300866D02*
X126203333Y-146434200D01*
X126203333Y-146434200D02*
X126336666Y-146500866D01*
X59982066Y-80973980D02*
X60029685Y-81021600D01*
X60029685Y-81021600D02*
X60172542Y-81069219D01*
X60172542Y-81069219D02*
X60267780Y-81069219D01*
X60267780Y-81069219D02*
X60410637Y-81021600D01*
X60410637Y-81021600D02*
X60505875Y-80926361D01*
X60505875Y-80926361D02*
X60553494Y-80831123D01*
X60553494Y-80831123D02*
X60601113Y-80640647D01*
X60601113Y-80640647D02*
X60601113Y-80497790D01*
X60601113Y-80497790D02*
X60553494Y-80307314D01*
X60553494Y-80307314D02*
X60505875Y-80212076D01*
X60505875Y-80212076D02*
X60410637Y-80116838D01*
X60410637Y-80116838D02*
X60267780Y-80069219D01*
X60267780Y-80069219D02*
X60172542Y-80069219D01*
X60172542Y-80069219D02*
X60029685Y-80116838D01*
X60029685Y-80116838D02*
X59982066Y-80164457D01*
X59648732Y-80069219D02*
X59029685Y-80069219D01*
X59029685Y-80069219D02*
X59363018Y-80450171D01*
X59363018Y-80450171D02*
X59220161Y-80450171D01*
X59220161Y-80450171D02*
X59124923Y-80497790D01*
X59124923Y-80497790D02*
X59077304Y-80545409D01*
X59077304Y-80545409D02*
X59029685Y-80640647D01*
X59029685Y-80640647D02*
X59029685Y-80878742D01*
X59029685Y-80878742D02*
X59077304Y-80973980D01*
X59077304Y-80973980D02*
X59124923Y-81021600D01*
X59124923Y-81021600D02*
X59220161Y-81069219D01*
X59220161Y-81069219D02*
X59505875Y-81069219D01*
X59505875Y-81069219D02*
X59601113Y-81021600D01*
X59601113Y-81021600D02*
X59648732Y-80973980D01*
X128716009Y-144241666D02*
X128716009Y-143908333D01*
X129239819Y-143908333D02*
X128239819Y-143908333D01*
X128239819Y-143908333D02*
X128239819Y-144384523D01*
X128573152Y-145194047D02*
X129239819Y-145194047D01*
X128192200Y-144955952D02*
X128906485Y-144717857D01*
X128906485Y-144717857D02*
X128906485Y-145336904D01*
D15*
X200345749Y-101348800D02*
G75*
G02*
X199583749Y-101348800I-381000J0D01*
G01*
X199583749Y-101348800D02*
G75*
G02*
X200345749Y-101348800I381000J0D01*
G01*
X69991251Y-111326200D02*
G75*
G02*
X69229251Y-111326200I-381000J0D01*
G01*
X69229251Y-111326200D02*
G75*
G02*
X69991251Y-111326200I381000J0D01*
G01*
D11*
X77210938Y-144250000D02*
X58210938Y-144250000D01*
X58210938Y-128750000D01*
X77210938Y-128750000D01*
X77210938Y-144250000D01*
D16*
X57825000Y-82475000D02*
X57825000Y-82830000D01*
X57825000Y-84975000D02*
X57825000Y-84620000D01*
X61825000Y-82475000D02*
X57825000Y-82475000D01*
X61825000Y-82475000D02*
X61825000Y-82830000D01*
X61825000Y-84975000D02*
X57825000Y-84975000D01*
X61825000Y-84975000D02*
X61825000Y-84620000D01*
X102400000Y-132235000D02*
X102400000Y-134715000D01*
X107900000Y-132235000D02*
X107900000Y-134715000D01*
D11*
X77610938Y-126950000D02*
X58610938Y-126950000D01*
X58610938Y-111450000D01*
X77610938Y-111450000D01*
X77610938Y-126950000D01*
X77210938Y-160950000D02*
X58210938Y-160950000D01*
X58210938Y-145450000D01*
X77210938Y-145450000D01*
X77210938Y-160950000D01*
X211900000Y-126350000D02*
X192900000Y-126350000D01*
X192900000Y-110850000D01*
X211900000Y-110850000D01*
X211900000Y-126350000D01*
D17*
X197720000Y-83986500D02*
X201530000Y-83986500D01*
X197720000Y-91860500D02*
X197720000Y-83986500D01*
X198990000Y-78462000D02*
X200260000Y-78462000D01*
X198990000Y-79224000D02*
X200260000Y-79224000D01*
X199625000Y-78462000D02*
X198990000Y-79224000D01*
X199625000Y-78462000D02*
X199117000Y-79224000D01*
X199625000Y-78462000D02*
X199244000Y-79224000D01*
X199625000Y-78462000D02*
X199371000Y-79224000D01*
X199625000Y-78462000D02*
X199498000Y-79224000D01*
X199625000Y-78462000D02*
X199752000Y-79224000D01*
X199625000Y-78462000D02*
X199879000Y-79224000D01*
X199625000Y-78462000D02*
X200006000Y-79224000D01*
X199625000Y-78462000D02*
X200133000Y-79224000D01*
X199625000Y-78462000D02*
X200260000Y-79224000D01*
X199625000Y-79478000D02*
X199625000Y-78208000D01*
X201530000Y-83986500D02*
X201530000Y-91860500D01*
X201530000Y-91860500D02*
X197720000Y-91860500D01*
D16*
X103955000Y-142725000D02*
X103955000Y-144725000D01*
X106495000Y-144725000D02*
X106495000Y-142725000D01*
X64455000Y-91450000D02*
X64455000Y-93450000D01*
X66995000Y-93450000D02*
X66995000Y-91450000D01*
X208350000Y-75900000D02*
X208350000Y-76255000D01*
X208350000Y-75900000D02*
X212350000Y-75900000D01*
X208350000Y-78400000D02*
X208350000Y-78045000D01*
X208350000Y-78400000D02*
X212350000Y-78400000D01*
X212350000Y-75900000D02*
X212350000Y-76255000D01*
X212350000Y-78400000D02*
X212350000Y-78045000D01*
D17*
X68145000Y-86911500D02*
X71955000Y-86911500D01*
X68145000Y-94785500D02*
X68145000Y-86911500D01*
X69415000Y-81387000D02*
X70685000Y-81387000D01*
X69415000Y-82149000D02*
X70685000Y-82149000D01*
X70050000Y-81387000D02*
X69415000Y-82149000D01*
X70050000Y-81387000D02*
X69542000Y-82149000D01*
X70050000Y-81387000D02*
X69669000Y-82149000D01*
X70050000Y-81387000D02*
X69796000Y-82149000D01*
X70050000Y-81387000D02*
X69923000Y-82149000D01*
X70050000Y-81387000D02*
X70177000Y-82149000D01*
X70050000Y-81387000D02*
X70304000Y-82149000D01*
X70050000Y-81387000D02*
X70431000Y-82149000D01*
X70050000Y-81387000D02*
X70558000Y-82149000D01*
X70050000Y-81387000D02*
X70685000Y-82149000D01*
X70050000Y-82403000D02*
X70050000Y-81133000D01*
X71955000Y-86911500D02*
X71955000Y-94785500D01*
X71955000Y-94785500D02*
X68145000Y-94785500D01*
D16*
X58800400Y-85664400D02*
X61280400Y-85664400D01*
X58800400Y-91164400D02*
X61280400Y-91164400D01*
X123025000Y-132710000D02*
X123025000Y-135190000D01*
X128525000Y-132710000D02*
X128525000Y-135190000D01*
X209085000Y-82050000D02*
X211565000Y-82050000D01*
X209085000Y-87550000D02*
X211565000Y-87550000D01*
D11*
X212000000Y-159450000D02*
X193000000Y-159450000D01*
X193000000Y-143950000D01*
X212000000Y-143950000D01*
X212000000Y-159450000D01*
D16*
X202780000Y-88325000D02*
X202780000Y-90325000D01*
X205320000Y-90325000D02*
X205320000Y-88325000D01*
D11*
X211400000Y-142750000D02*
X192400000Y-142750000D01*
X192400000Y-127250000D01*
X211400000Y-127250000D01*
X211400000Y-142750000D01*
D16*
X208325000Y-78950000D02*
X208325000Y-79305000D01*
X208325000Y-81450000D02*
X208325000Y-81095000D01*
X212325000Y-78950000D02*
X208325000Y-78950000D01*
X212325000Y-78950000D02*
X212325000Y-79305000D01*
X212325000Y-81450000D02*
X208325000Y-81450000D01*
X212325000Y-81450000D02*
X212325000Y-81095000D01*
X84195000Y-148750000D02*
X84195000Y-161350000D01*
X84195000Y-161350000D02*
X129915000Y-161350000D01*
X129915000Y-148750000D02*
X84195000Y-148750000D01*
X129915000Y-161350000D02*
X129915000Y-148750000D01*
D11*
X126205000Y-147750000D02*
G75*
G02*
X126005000Y-147750000I-100000J0D01*
G01*
X126005000Y-147750000D02*
G75*
G02*
X126205000Y-147750000I100000J0D01*
G01*
D16*
X57815400Y-79364400D02*
X57815400Y-79719400D01*
X57815400Y-79364400D02*
X61815400Y-79364400D01*
X57815400Y-81864400D02*
X57815400Y-81509400D01*
X57815400Y-81864400D02*
X61815400Y-81864400D01*
X61815400Y-79364400D02*
X61815400Y-79719400D01*
X61815400Y-81864400D02*
X61815400Y-81509400D01*
X124880000Y-143250000D02*
X124880000Y-145250000D01*
X127420000Y-145250000D02*
X127420000Y-143250000D01*
%LPC*%
D18*
X199964749Y-105460400D03*
X194464750Y-105460400D03*
D19*
X99190000Y-141875000D03*
D20*
X87760000Y-141875000D03*
D21*
X64575000Y-147945000D03*
D22*
X64575000Y-158105000D03*
D21*
X199975000Y-146895000D03*
D22*
X199975000Y-157055000D03*
D23*
X57375000Y-97760000D03*
D24*
X57375000Y-95220000D03*
X57375000Y-92680000D03*
X59915000Y-97760000D03*
X59915000Y-95220000D03*
X59915000Y-92680000D03*
X62455000Y-97760000D03*
X62455000Y-95220000D03*
X62455000Y-92680000D03*
D25*
X87000000Y-130220000D03*
D26*
X89540000Y-130220000D03*
X87000000Y-127680000D03*
X89540000Y-127680000D03*
X87000000Y-125140000D03*
X89540000Y-125140000D03*
X87000000Y-122600000D03*
X89540000Y-122600000D03*
X87000000Y-120060000D03*
X89540000Y-120060000D03*
X87000000Y-117520000D03*
X89540000Y-117520000D03*
X87000000Y-114980000D03*
X89540000Y-114980000D03*
X87000000Y-112440000D03*
X89540000Y-112440000D03*
X87000000Y-109900000D03*
X89540000Y-109900000D03*
X87000000Y-107360000D03*
X89540000Y-107360000D03*
X87000000Y-104820000D03*
X89540000Y-104820000D03*
X87000000Y-102280000D03*
X89540000Y-102280000D03*
X87000000Y-99740000D03*
X89540000Y-99740000D03*
X87000000Y-97200000D03*
X89540000Y-97200000D03*
X87000000Y-94660000D03*
X89540000Y-94660000D03*
X87000000Y-92120000D03*
X89540000Y-92120000D03*
X87000000Y-89580000D03*
X89540000Y-89580000D03*
X87000000Y-87040000D03*
X89540000Y-87040000D03*
X87000000Y-84500000D03*
X89540000Y-84500000D03*
X87000000Y-81960000D03*
X89540000Y-81960000D03*
D21*
X199550000Y-113325000D03*
D22*
X199550000Y-123485000D03*
D25*
X147960000Y-130120000D03*
D26*
X150500000Y-130120000D03*
X147960000Y-127580000D03*
X150500000Y-127580000D03*
X147960000Y-125040000D03*
X150500000Y-125040000D03*
X147960000Y-122500000D03*
X150500000Y-122500000D03*
X147960000Y-119960000D03*
X150500000Y-119960000D03*
X147960000Y-117420000D03*
X150500000Y-117420000D03*
X147960000Y-114880000D03*
X150500000Y-114880000D03*
X147960000Y-112340000D03*
X150500000Y-112340000D03*
X147960000Y-109800000D03*
X150500000Y-109800000D03*
X147960000Y-107260000D03*
X150500000Y-107260000D03*
X147960000Y-104720000D03*
X150500000Y-104720000D03*
X147960000Y-102180000D03*
X150500000Y-102180000D03*
X147960000Y-99640000D03*
X150500000Y-99640000D03*
X147960000Y-97100000D03*
X150500000Y-97100000D03*
X147960000Y-94560000D03*
X150500000Y-94560000D03*
X147960000Y-92020000D03*
X150500000Y-92020000D03*
X147960000Y-89480000D03*
X150500000Y-89480000D03*
X147960000Y-86940000D03*
X150500000Y-86940000D03*
X147960000Y-84400000D03*
X150500000Y-84400000D03*
X147960000Y-81860000D03*
X150500000Y-81860000D03*
D27*
X163000000Y-132340000D03*
D28*
X163000000Y-129800000D03*
X163000000Y-127260000D03*
X163000000Y-124720000D03*
D21*
X199125000Y-129695000D03*
D22*
X199125000Y-139855000D03*
D29*
X113725000Y-140275000D03*
X113725000Y-135275000D03*
D30*
X130700000Y-145703200D03*
D31*
X130700000Y-131199800D03*
D29*
X138225000Y-140775000D03*
X138225000Y-135775000D03*
X135150000Y-140775000D03*
X135150000Y-135775000D03*
D27*
X160000000Y-145040000D03*
D28*
X160000000Y-142500000D03*
X160000000Y-139960000D03*
X160000000Y-137420000D03*
X160000000Y-134880000D03*
X160000000Y-132340000D03*
X160000000Y-129800000D03*
X160000000Y-127260000D03*
X160000000Y-124720000D03*
X160000000Y-122180000D03*
X160000000Y-119640000D03*
X160000000Y-117100000D03*
D19*
X87785000Y-138450000D03*
D20*
X99215000Y-138450000D03*
D23*
X153147500Y-67692500D03*
D24*
X153147500Y-65152500D03*
X153147500Y-62612500D03*
D32*
X121400000Y-71400000D03*
X126480000Y-71400000D03*
D27*
X177700000Y-155100000D03*
D28*
X177700000Y-152560000D03*
X177700000Y-150020000D03*
X177700000Y-147480000D03*
X177700000Y-144940000D03*
X177700000Y-142400000D03*
X177700000Y-139860000D03*
X177700000Y-137320000D03*
X177700000Y-134780000D03*
X177700000Y-132240000D03*
X177700000Y-129700000D03*
X177700000Y-127160000D03*
X177700000Y-124620000D03*
X177700000Y-122080000D03*
X177700000Y-119540000D03*
X177700000Y-117000000D03*
D21*
X64425000Y-131295000D03*
D22*
X64425000Y-141455000D03*
D23*
X207325000Y-94430000D03*
D24*
X207325000Y-91890000D03*
X207325000Y-89350000D03*
X209865000Y-94430000D03*
X209865000Y-91890000D03*
X209865000Y-89350000D03*
X212405000Y-94430000D03*
X212405000Y-91890000D03*
X212405000Y-89350000D03*
D19*
X179485000Y-107400000D03*
D20*
X190915000Y-107400000D03*
D18*
X69610251Y-107214600D03*
X75110250Y-107214600D03*
D30*
X109725000Y-145103200D03*
D31*
X109725000Y-130599800D03*
D32*
X101920000Y-71600000D03*
X107000000Y-71600000D03*
D19*
X179485000Y-111676600D03*
D20*
X190915000Y-111676600D03*
D23*
X157812500Y-67692500D03*
D24*
X157812500Y-65152500D03*
X157812500Y-62612500D03*
D29*
X116800000Y-140275000D03*
X116800000Y-135275000D03*
D21*
X65075000Y-114170000D03*
D22*
X65075000Y-124330000D03*
D33*
X73810938Y-130500000D03*
X61610938Y-130500000D03*
X73810938Y-142500000D03*
X59610938Y-136500000D03*
X61610938Y-142500000D03*
D29*
X62325000Y-83725000D03*
X57325000Y-83725000D03*
D34*
X105150000Y-130868000D03*
X105150000Y-136082000D03*
D33*
X74210938Y-113200000D03*
X62010938Y-113200000D03*
X74210938Y-125200000D03*
X60010938Y-119200000D03*
X62010938Y-125200000D03*
X73810938Y-147200000D03*
X61610938Y-147200000D03*
X73810938Y-159200000D03*
X59610938Y-153200000D03*
X61610938Y-159200000D03*
X208500000Y-112600000D03*
X196300000Y-112600000D03*
X208500000Y-124600000D03*
X194300000Y-118600000D03*
X196300000Y-124600000D03*
D30*
X199625000Y-80671800D03*
D31*
X199625000Y-95175200D03*
D35*
X105225000Y-146180000D03*
X105225000Y-141270000D03*
D36*
X65725000Y-89995000D03*
X65725000Y-94905000D03*
D29*
X207850000Y-77150000D03*
X212850000Y-77150000D03*
D30*
X70050000Y-83596800D03*
D31*
X70050000Y-98100200D03*
D37*
X57433400Y-88414400D03*
X62647400Y-88414400D03*
D34*
X125775000Y-131343000D03*
X125775000Y-136557000D03*
D37*
X207718000Y-84800000D03*
X212932000Y-84800000D03*
D33*
X208600000Y-145700000D03*
X196400000Y-145700000D03*
X208600000Y-157700000D03*
X194400000Y-151700000D03*
X196400000Y-157700000D03*
D36*
X204050000Y-86870000D03*
X204050000Y-91780000D03*
D33*
X208000000Y-129000000D03*
X195800000Y-129000000D03*
X208000000Y-141000000D03*
X193800000Y-135000000D03*
X195800000Y-141000000D03*
D29*
X212825000Y-80200000D03*
X207825000Y-80200000D03*
D38*
X126105000Y-153450000D03*
D39*
X118485000Y-153450000D03*
X110865000Y-153450000D03*
X103245000Y-153450000D03*
X95625000Y-153450000D03*
X88005000Y-153450000D03*
D29*
X57315400Y-80614400D03*
X62315400Y-80614400D03*
D35*
X126150000Y-146705000D03*
X126150000Y-141795000D03*
D40*
X186000000Y-95075000D03*
X133075000Y-114200000D03*
X64800000Y-73775000D03*
X102300000Y-104000000D03*
X167975000Y-74700000D03*
X160325000Y-82350000D03*
X64800000Y-78875000D03*
X180900000Y-74675000D03*
X167975000Y-112950000D03*
X167975000Y-100200000D03*
X180900000Y-77225000D03*
X183450000Y-77250000D03*
X162875000Y-107825000D03*
X120325000Y-121875000D03*
X170525000Y-102725000D03*
X178350000Y-87425000D03*
X138175000Y-116750000D03*
X115050000Y-98900000D03*
X175800000Y-84900000D03*
X64800000Y-68675000D03*
X165425000Y-105275000D03*
X130525000Y-109100000D03*
X130525000Y-121850000D03*
X80275000Y-71225000D03*
X157775000Y-82325000D03*
X173250000Y-102725000D03*
X120325000Y-119325000D03*
X165425000Y-107825000D03*
X167975000Y-107850000D03*
X112500000Y-121875000D03*
X170525000Y-74675000D03*
X133075000Y-104000000D03*
X125425000Y-83600000D03*
X80275000Y-78875000D03*
X186000000Y-77225000D03*
X165425000Y-97625000D03*
X107400000Y-101450000D03*
X112500000Y-124425000D03*
X75175000Y-81400000D03*
X109950000Y-86150000D03*
X102300000Y-96350000D03*
X157775000Y-110375000D03*
X165425000Y-112925000D03*
X178350000Y-95075000D03*
X133075000Y-106550000D03*
X125425000Y-101450000D03*
X133075000Y-86150000D03*
X167975000Y-95100000D03*
X135625000Y-124425000D03*
X109950000Y-104000000D03*
X120325000Y-106575000D03*
X135625000Y-104025000D03*
X160325000Y-97650000D03*
X133075000Y-109100000D03*
X120325000Y-104025000D03*
X138175000Y-106550000D03*
X167975000Y-77250000D03*
X104850000Y-91275000D03*
X102300000Y-98900000D03*
X70075000Y-78850000D03*
X178350000Y-97625000D03*
X70075000Y-71200000D03*
X115050000Y-114200000D03*
X157775000Y-100175000D03*
X82125000Y-108225000D03*
X112500000Y-91275000D03*
X115050000Y-86150000D03*
X125425000Y-106550000D03*
X109950000Y-83600000D03*
X133075000Y-124400000D03*
X80275000Y-66125000D03*
X157775000Y-105275000D03*
X104850000Y-116775000D03*
X102300000Y-109100000D03*
X183450000Y-79800000D03*
X64800000Y-81425000D03*
X167975000Y-79800000D03*
X102300000Y-121850000D03*
X79575000Y-115850000D03*
X82125000Y-120975000D03*
X67350000Y-78850000D03*
X104850000Y-104025000D03*
X173250000Y-72125000D03*
X170525000Y-100175000D03*
X75175000Y-73750000D03*
X122875000Y-91250000D03*
X130525000Y-96350000D03*
X109950000Y-114200000D03*
X180900000Y-79775000D03*
X135625000Y-119325000D03*
X175800000Y-82350000D03*
X175800000Y-74700000D03*
X79575000Y-100550000D03*
X125425000Y-111650000D03*
X178350000Y-79775000D03*
X127975000Y-121875000D03*
X82125000Y-103125000D03*
X135625000Y-91275000D03*
X186000000Y-87425000D03*
X162875000Y-87425000D03*
X102300000Y-119300000D03*
X112500000Y-86175000D03*
X127975000Y-91275000D03*
X117775000Y-111650000D03*
X135625000Y-109125000D03*
X102300000Y-86150000D03*
X170525000Y-89975000D03*
X180900000Y-72125000D03*
X82125000Y-100575000D03*
X115050000Y-104000000D03*
X107400000Y-119300000D03*
X135625000Y-106575000D03*
X170525000Y-107825000D03*
X77725000Y-76300000D03*
X102300000Y-83600000D03*
X186000000Y-92525000D03*
X130525000Y-124400000D03*
X79575000Y-95450000D03*
X120325000Y-93825000D03*
X112500000Y-116775000D03*
X72625000Y-68675000D03*
X162875000Y-95075000D03*
X160325000Y-102750000D03*
X109950000Y-106550000D03*
X138175000Y-121850000D03*
X107400000Y-104000000D03*
X117775000Y-126950000D03*
X127975000Y-126975000D03*
X107400000Y-121850000D03*
X178350000Y-69575000D03*
X107400000Y-126950000D03*
X115050000Y-101450000D03*
X167975000Y-102750000D03*
X115050000Y-83600000D03*
X157775000Y-107825000D03*
X162875000Y-100175000D03*
X180900000Y-84875000D03*
X165425000Y-89975000D03*
X133075000Y-83600000D03*
X75175000Y-76300000D03*
X109950000Y-124400000D03*
X117775000Y-88700000D03*
X170525000Y-79775000D03*
X109950000Y-91250000D03*
X175800000Y-92550000D03*
X175800000Y-97650000D03*
X120325000Y-88725000D03*
X79575000Y-123500000D03*
X109950000Y-126950000D03*
X102300000Y-124400000D03*
X127975000Y-98925000D03*
X138175000Y-114200000D03*
X102300000Y-106550000D03*
X130525000Y-86150000D03*
X64800000Y-66125000D03*
X162875000Y-112925000D03*
X180900000Y-87425000D03*
X104850000Y-106575000D03*
X122875000Y-83600000D03*
X75175000Y-68650000D03*
X180900000Y-89975000D03*
X122875000Y-93800000D03*
X135625000Y-126975000D03*
X117775000Y-121850000D03*
X117775000Y-83600000D03*
X162875000Y-92525000D03*
X127975000Y-96375000D03*
X67350000Y-81400000D03*
X178350000Y-82325000D03*
X112500000Y-101475000D03*
X82125000Y-98025000D03*
X183450000Y-95100000D03*
X138175000Y-83600000D03*
X79575000Y-98000000D03*
X173250000Y-69575000D03*
X125425000Y-98900000D03*
X165425000Y-102725000D03*
X173250000Y-77225000D03*
X138175000Y-98900000D03*
X102300000Y-93800000D03*
X173250000Y-92525000D03*
X135625000Y-121875000D03*
X186000000Y-84875000D03*
X109950000Y-88700000D03*
X112500000Y-98925000D03*
X165425000Y-100175000D03*
X180900000Y-82325000D03*
X178350000Y-102725000D03*
X120325000Y-116775000D03*
X109950000Y-119300000D03*
X82125000Y-113325000D03*
X160325000Y-84900000D03*
X175800000Y-110400000D03*
X135625000Y-88725000D03*
X127975000Y-88725000D03*
X107400000Y-88700000D03*
X117775000Y-124400000D03*
X117775000Y-106550000D03*
X133075000Y-93800000D03*
X122875000Y-88700000D03*
X180900000Y-102725000D03*
X135625000Y-101475000D03*
X112500000Y-104025000D03*
X183450000Y-72150000D03*
X79575000Y-110750000D03*
X135625000Y-111675000D03*
X75175000Y-66100000D03*
X165425000Y-92525000D03*
X127975000Y-86175000D03*
X167975000Y-82350000D03*
X173250000Y-82325000D03*
X107400000Y-98900000D03*
X167975000Y-69600000D03*
X112500000Y-83625000D03*
X127975000Y-83625000D03*
X183450000Y-102750000D03*
X72625000Y-81425000D03*
X107400000Y-106550000D03*
X122875000Y-106550000D03*
X80275000Y-68675000D03*
X82125000Y-131175000D03*
X175800000Y-95100000D03*
X117775000Y-91250000D03*
X117775000Y-116750000D03*
X70075000Y-66100000D03*
X82125000Y-105675000D03*
X117775000Y-119300000D03*
X125425000Y-91250000D03*
X120325000Y-98925000D03*
X170525000Y-84875000D03*
X130525000Y-83600000D03*
X175800000Y-90000000D03*
X135625000Y-83625000D03*
X82125000Y-128625000D03*
X186000000Y-102725000D03*
X186000000Y-74675000D03*
X79575000Y-90350000D03*
X130525000Y-119300000D03*
X162875000Y-79775000D03*
X165425000Y-95075000D03*
X135625000Y-98925000D03*
X125425000Y-104000000D03*
X115050000Y-116750000D03*
X120325000Y-91275000D03*
X102300000Y-91250000D03*
X70075000Y-73750000D03*
X178350000Y-92525000D03*
X120325000Y-124425000D03*
X79575000Y-131150000D03*
X102300000Y-111650000D03*
X157775000Y-89975000D03*
X120325000Y-86175000D03*
X173250000Y-105275000D03*
X64800000Y-76325000D03*
X77725000Y-66100000D03*
X130525000Y-88700000D03*
X157775000Y-97625000D03*
X178350000Y-72125000D03*
X180900000Y-95075000D03*
X104850000Y-114225000D03*
X175800000Y-107850000D03*
X82125000Y-92925000D03*
X135625000Y-114225000D03*
X160325000Y-87450000D03*
X77725000Y-73750000D03*
X133075000Y-119300000D03*
X165425000Y-84875000D03*
X79575000Y-92900000D03*
X173250000Y-79775000D03*
X104850000Y-119325000D03*
X160325000Y-95100000D03*
X127975000Y-93825000D03*
X175800000Y-72150000D03*
X115050000Y-124400000D03*
X112500000Y-106575000D03*
X133075000Y-96350000D03*
X160325000Y-90000000D03*
X160325000Y-107850000D03*
X183450000Y-74700000D03*
X77725000Y-81400000D03*
X138175000Y-93800000D03*
X186000000Y-82325000D03*
X170525000Y-105275000D03*
X138175000Y-124400000D03*
X130525000Y-106550000D03*
X127975000Y-106575000D03*
X173250000Y-89975000D03*
X178350000Y-89975000D03*
X77725000Y-78850000D03*
X167975000Y-110400000D03*
X104850000Y-86175000D03*
X75175000Y-78850000D03*
X82125000Y-95475000D03*
X127975000Y-109125000D03*
X133075000Y-88700000D03*
X109950000Y-96350000D03*
X104850000Y-98925000D03*
X165425000Y-82325000D03*
X133075000Y-121850000D03*
X117775000Y-93800000D03*
X162875000Y-97625000D03*
X109950000Y-111650000D03*
X160325000Y-92550000D03*
X104850000Y-101475000D03*
X173250000Y-110375000D03*
X170525000Y-87425000D03*
X160325000Y-100200000D03*
X104850000Y-121875000D03*
X157775000Y-95075000D03*
X120325000Y-109125000D03*
X122875000Y-98900000D03*
X127975000Y-111675000D03*
X165425000Y-79775000D03*
X122875000Y-111650000D03*
X115050000Y-111650000D03*
X173250000Y-97625000D03*
X122875000Y-116750000D03*
X104850000Y-88725000D03*
X173250000Y-95075000D03*
X127975000Y-101475000D03*
X117775000Y-109100000D03*
X72625000Y-76325000D03*
X138175000Y-109100000D03*
X180900000Y-92525000D03*
X127975000Y-119325000D03*
X173250000Y-84875000D03*
X79575000Y-113300000D03*
X170525000Y-77225000D03*
X72625000Y-73775000D03*
X112500000Y-126975000D03*
X138175000Y-119300000D03*
X138175000Y-111650000D03*
X138175000Y-96350000D03*
X122875000Y-119300000D03*
X117775000Y-114200000D03*
X183450000Y-82350000D03*
X112500000Y-119325000D03*
X112500000Y-96375000D03*
X117775000Y-86150000D03*
X173250000Y-107825000D03*
X135625000Y-93825000D03*
X125425000Y-96350000D03*
X133075000Y-98900000D03*
X180900000Y-100175000D03*
X107400000Y-83600000D03*
X183450000Y-100200000D03*
X115050000Y-88700000D03*
X79575000Y-118400000D03*
X104850000Y-111675000D03*
X115050000Y-119300000D03*
X186000000Y-72125000D03*
X138175000Y-91250000D03*
X138175000Y-88700000D03*
X138175000Y-104000000D03*
X104850000Y-83625000D03*
X157775000Y-79775000D03*
X104850000Y-124425000D03*
X175800000Y-112950000D03*
X133075000Y-126950000D03*
X173250000Y-87425000D03*
X130525000Y-111650000D03*
X125425000Y-119300000D03*
X80275000Y-73775000D03*
X112500000Y-93825000D03*
X115050000Y-91250000D03*
X117775000Y-101450000D03*
X104850000Y-109125000D03*
X122875000Y-101450000D03*
X82125000Y-123525000D03*
X133075000Y-101450000D03*
X167975000Y-105300000D03*
X180900000Y-97625000D03*
X160325000Y-105300000D03*
X135625000Y-96375000D03*
X82125000Y-133725000D03*
X102300000Y-101450000D03*
X125425000Y-88700000D03*
X167975000Y-84900000D03*
X160325000Y-112950000D03*
X80275000Y-76325000D03*
X122875000Y-104000000D03*
X79575000Y-120950000D03*
X125425000Y-124400000D03*
X112500000Y-114225000D03*
X175800000Y-100200000D03*
X162875000Y-110375000D03*
X167975000Y-90000000D03*
X120325000Y-83625000D03*
X178350000Y-100175000D03*
X173250000Y-74675000D03*
X115050000Y-106550000D03*
X79575000Y-133700000D03*
X107400000Y-86150000D03*
X162875000Y-82325000D03*
X170525000Y-110375000D03*
X170525000Y-92525000D03*
X130525000Y-116750000D03*
X122875000Y-86150000D03*
X117775000Y-98900000D03*
X170525000Y-72125000D03*
X82125000Y-118425000D03*
X157775000Y-102725000D03*
X183450000Y-69600000D03*
X122875000Y-121850000D03*
X125425000Y-116750000D03*
X127975000Y-114225000D03*
X183450000Y-90000000D03*
X125425000Y-121850000D03*
X125425000Y-109100000D03*
X79575000Y-128600000D03*
X162875000Y-102725000D03*
X183450000Y-84900000D03*
X115050000Y-96350000D03*
X72625000Y-71225000D03*
X104850000Y-126975000D03*
X186000000Y-79775000D03*
X75175000Y-71200000D03*
X130525000Y-93800000D03*
X107400000Y-111650000D03*
X175800000Y-102750000D03*
X157775000Y-112925000D03*
X175800000Y-77250000D03*
X70075000Y-68650000D03*
X127975000Y-104025000D03*
X107400000Y-96350000D03*
X67350000Y-76300000D03*
X186000000Y-100175000D03*
X77725000Y-71200000D03*
X122875000Y-114200000D03*
X125425000Y-126950000D03*
X77725000Y-68650000D03*
X120325000Y-114225000D03*
X162875000Y-84875000D03*
X178350000Y-84875000D03*
X130525000Y-126950000D03*
X109950000Y-121850000D03*
X160325000Y-110400000D03*
X175800000Y-105300000D03*
X138175000Y-86150000D03*
X183450000Y-92550000D03*
X120325000Y-126975000D03*
X186000000Y-97625000D03*
X125425000Y-114200000D03*
X165425000Y-110375000D03*
X102300000Y-126950000D03*
X183450000Y-97650000D03*
X70075000Y-76300000D03*
X117775000Y-96350000D03*
X127975000Y-116775000D03*
X167975000Y-87450000D03*
X107400000Y-116750000D03*
X109950000Y-101450000D03*
X127975000Y-124425000D03*
X160325000Y-79800000D03*
X67350000Y-66100000D03*
X107400000Y-114200000D03*
X162875000Y-89975000D03*
X102300000Y-116750000D03*
X122875000Y-126950000D03*
X115050000Y-121850000D03*
X135625000Y-86175000D03*
X120325000Y-111675000D03*
X109950000Y-116750000D03*
X120325000Y-101475000D03*
X112500000Y-111675000D03*
X122875000Y-96350000D03*
X82125000Y-115875000D03*
X125425000Y-93800000D03*
X170525000Y-82325000D03*
X72625000Y-78875000D03*
X167975000Y-92550000D03*
X170525000Y-95075000D03*
X109950000Y-98900000D03*
X104850000Y-96375000D03*
X102300000Y-88700000D03*
X115050000Y-126950000D03*
X170525000Y-97625000D03*
X107400000Y-93800000D03*
X175800000Y-87450000D03*
X117775000Y-104000000D03*
X70075000Y-81400000D03*
X80275000Y-81425000D03*
X82125000Y-90375000D03*
X120325000Y-96375000D03*
X79575000Y-126050000D03*
X170525000Y-69575000D03*
X130525000Y-114200000D03*
X157775000Y-84875000D03*
X138175000Y-101450000D03*
X133075000Y-116750000D03*
X104850000Y-93825000D03*
X130525000Y-98900000D03*
X162875000Y-105275000D03*
X180900000Y-69575000D03*
X79575000Y-108200000D03*
X167975000Y-72150000D03*
X115050000Y-109100000D03*
X130525000Y-101450000D03*
X183450000Y-87450000D03*
X178350000Y-77225000D03*
X107400000Y-91250000D03*
X107400000Y-124400000D03*
X122875000Y-109100000D03*
X138175000Y-126950000D03*
X157775000Y-92525000D03*
X133075000Y-91250000D03*
X82125000Y-110775000D03*
X186000000Y-69575000D03*
X167975000Y-97650000D03*
X173250000Y-100175000D03*
X109950000Y-93800000D03*
X125425000Y-86150000D03*
X165425000Y-87425000D03*
X173250000Y-112925000D03*
X170525000Y-112925000D03*
X112500000Y-109125000D03*
X115050000Y-93800000D03*
X107400000Y-109100000D03*
X109950000Y-109100000D03*
X130525000Y-104000000D03*
X122875000Y-124400000D03*
X186000000Y-89975000D03*
X130525000Y-91250000D03*
X82125000Y-126075000D03*
X135625000Y-116775000D03*
X102300000Y-114200000D03*
X175800000Y-69600000D03*
X157775000Y-87425000D03*
X112500000Y-88725000D03*
X133075000Y-111650000D03*
X178350000Y-74675000D03*
X72625000Y-66125000D03*
X175800000Y-79800000D03*
X81500001Y-136775000D03*
X81625001Y-142625000D03*
X189250001Y-134183600D03*
X79350001Y-136775000D03*
X184800001Y-128333600D03*
X83800001Y-142625000D03*
X187100001Y-134183600D03*
X186975001Y-128333600D03*
%LPD*%
D41*
X54540000Y-59000000D02*
X215040000Y-59000000D01*
X215040000Y-162500000D01*
X54540000Y-162500000D01*
X54540000Y-59000000D01*
M02*
