%TF.GenerationSoftware,KiCad,Pcbnew,9.0.6*%
%TF.CreationDate,2026-02-16T23:15:22-07:00*%
%TF.ProjectId,Capstone,43617073-746f-46e6-952e-6b696361645f,rev?*%
%TF.SameCoordinates,Original*%
%TF.FileFunction,AssemblyDrawing,Bot*%
%FSLAX46Y46*%
G04 Gerber Fmt 4.6, Leading zero omitted, Abs format (unit mm)*
G04 Created by KiCad (PCBNEW 9.0.6) date 2026-02-16 23:15:22*
%MOMM*%
%LPD*%
G01*
G04 APERTURE LIST*
%ADD10C,0.150000*%
%ADD11C,0.098425*%
%ADD12C,0.127000*%
%ADD13C,0.025400*%
%ADD14C,0.200000*%
%ADD15C,0.100000*%
%ADD16C,0.100000*%
%TD*%
%TA.AperFunction,Profile*%
%ADD17C,0.050000*%
%TD*%
G04 APERTURE END LIST*
D10*
X187607201Y-132161638D02*
X187654820Y-132304495D01*
X187654820Y-132304495D02*
X187654820Y-132542590D01*
X187654820Y-132542590D02*
X187607201Y-132637828D01*
X187607201Y-132637828D02*
X187559581Y-132685447D01*
X187559581Y-132685447D02*
X187464343Y-132733066D01*
X187464343Y-132733066D02*
X187369105Y-132733066D01*
X187369105Y-132733066D02*
X187273867Y-132685447D01*
X187273867Y-132685447D02*
X187226248Y-132637828D01*
X187226248Y-132637828D02*
X187178629Y-132542590D01*
X187178629Y-132542590D02*
X187131010Y-132352114D01*
X187131010Y-132352114D02*
X187083391Y-132256876D01*
X187083391Y-132256876D02*
X187035772Y-132209257D01*
X187035772Y-132209257D02*
X186940534Y-132161638D01*
X186940534Y-132161638D02*
X186845296Y-132161638D01*
X186845296Y-132161638D02*
X186750058Y-132209257D01*
X186750058Y-132209257D02*
X186702439Y-132256876D01*
X186702439Y-132256876D02*
X186654820Y-132352114D01*
X186654820Y-132352114D02*
X186654820Y-132590209D01*
X186654820Y-132590209D02*
X186702439Y-132733066D01*
X187607201Y-133114019D02*
X187654820Y-133256876D01*
X187654820Y-133256876D02*
X187654820Y-133494971D01*
X187654820Y-133494971D02*
X187607201Y-133590209D01*
X187607201Y-133590209D02*
X187559581Y-133637828D01*
X187559581Y-133637828D02*
X187464343Y-133685447D01*
X187464343Y-133685447D02*
X187369105Y-133685447D01*
X187369105Y-133685447D02*
X187273867Y-133637828D01*
X187273867Y-133637828D02*
X187226248Y-133590209D01*
X187226248Y-133590209D02*
X187178629Y-133494971D01*
X187178629Y-133494971D02*
X187131010Y-133304495D01*
X187131010Y-133304495D02*
X187083391Y-133209257D01*
X187083391Y-133209257D02*
X187035772Y-133161638D01*
X187035772Y-133161638D02*
X186940534Y-133114019D01*
X186940534Y-133114019D02*
X186845296Y-133114019D01*
X186845296Y-133114019D02*
X186750058Y-133161638D01*
X186750058Y-133161638D02*
X186702439Y-133209257D01*
X186702439Y-133209257D02*
X186654820Y-133304495D01*
X186654820Y-133304495D02*
X186654820Y-133542590D01*
X186654820Y-133542590D02*
X186702439Y-133685447D01*
X187654820Y-134114019D02*
X186654820Y-134114019D01*
X186654820Y-134114019D02*
X187369105Y-134447352D01*
X187369105Y-134447352D02*
X186654820Y-134780685D01*
X186654820Y-134780685D02*
X187654820Y-134780685D01*
X186654820Y-135685447D02*
X186654820Y-135494971D01*
X186654820Y-135494971D02*
X186702439Y-135399733D01*
X186702439Y-135399733D02*
X186750058Y-135352114D01*
X186750058Y-135352114D02*
X186892915Y-135256876D01*
X186892915Y-135256876D02*
X187083391Y-135209257D01*
X187083391Y-135209257D02*
X187464343Y-135209257D01*
X187464343Y-135209257D02*
X187559581Y-135256876D01*
X187559581Y-135256876D02*
X187607201Y-135304495D01*
X187607201Y-135304495D02*
X187654820Y-135399733D01*
X187654820Y-135399733D02*
X187654820Y-135590209D01*
X187654820Y-135590209D02*
X187607201Y-135685447D01*
X187607201Y-135685447D02*
X187559581Y-135733066D01*
X187559581Y-135733066D02*
X187464343Y-135780685D01*
X187464343Y-135780685D02*
X187226248Y-135780685D01*
X187226248Y-135780685D02*
X187131010Y-135733066D01*
X187131010Y-135733066D02*
X187083391Y-135685447D01*
X187083391Y-135685447D02*
X187035772Y-135590209D01*
X187035772Y-135590209D02*
X187035772Y-135399733D01*
X187035772Y-135399733D02*
X187083391Y-135304495D01*
X187083391Y-135304495D02*
X187131010Y-135256876D01*
X187131010Y-135256876D02*
X187226248Y-135209257D01*
X187654820Y-136209257D02*
X186654820Y-136209257D01*
X186654820Y-136209257D02*
X187654820Y-136780685D01*
X187654820Y-136780685D02*
X186654820Y-136780685D01*
X186654820Y-137161638D02*
X186654820Y-137828304D01*
X186654820Y-137828304D02*
X187654820Y-137399733D01*
X186654820Y-138399733D02*
X186654820Y-138494971D01*
X186654820Y-138494971D02*
X186702439Y-138590209D01*
X186702439Y-138590209D02*
X186750058Y-138637828D01*
X186750058Y-138637828D02*
X186845296Y-138685447D01*
X186845296Y-138685447D02*
X187035772Y-138733066D01*
X187035772Y-138733066D02*
X187273867Y-138733066D01*
X187273867Y-138733066D02*
X187464343Y-138685447D01*
X187464343Y-138685447D02*
X187559581Y-138637828D01*
X187559581Y-138637828D02*
X187607201Y-138590209D01*
X187607201Y-138590209D02*
X187654820Y-138494971D01*
X187654820Y-138494971D02*
X187654820Y-138399733D01*
X187654820Y-138399733D02*
X187607201Y-138304495D01*
X187607201Y-138304495D02*
X187559581Y-138256876D01*
X187559581Y-138256876D02*
X187464343Y-138209257D01*
X187464343Y-138209257D02*
X187273867Y-138161638D01*
X187273867Y-138161638D02*
X187035772Y-138161638D01*
X187035772Y-138161638D02*
X186845296Y-138209257D01*
X186845296Y-138209257D02*
X186750058Y-138256876D01*
X186750058Y-138256876D02*
X186702439Y-138304495D01*
X186702439Y-138304495D02*
X186654820Y-138399733D01*
X186654820Y-139352114D02*
X186654820Y-139447352D01*
X186654820Y-139447352D02*
X186702439Y-139542590D01*
X186702439Y-139542590D02*
X186750058Y-139590209D01*
X186750058Y-139590209D02*
X186845296Y-139637828D01*
X186845296Y-139637828D02*
X187035772Y-139685447D01*
X187035772Y-139685447D02*
X187273867Y-139685447D01*
X187273867Y-139685447D02*
X187464343Y-139637828D01*
X187464343Y-139637828D02*
X187559581Y-139590209D01*
X187559581Y-139590209D02*
X187607201Y-139542590D01*
X187607201Y-139542590D02*
X187654820Y-139447352D01*
X187654820Y-139447352D02*
X187654820Y-139352114D01*
X187654820Y-139352114D02*
X187607201Y-139256876D01*
X187607201Y-139256876D02*
X187559581Y-139209257D01*
X187559581Y-139209257D02*
X187464343Y-139161638D01*
X187464343Y-139161638D02*
X187273867Y-139114019D01*
X187273867Y-139114019D02*
X187035772Y-139114019D01*
X187035772Y-139114019D02*
X186845296Y-139161638D01*
X186845296Y-139161638D02*
X186750058Y-139209257D01*
X186750058Y-139209257D02*
X186702439Y-139256876D01*
X186702439Y-139256876D02*
X186654820Y-139352114D01*
X186750058Y-140066400D02*
X186702439Y-140114019D01*
X186702439Y-140114019D02*
X186654820Y-140209257D01*
X186654820Y-140209257D02*
X186654820Y-140447352D01*
X186654820Y-140447352D02*
X186702439Y-140542590D01*
X186702439Y-140542590D02*
X186750058Y-140590209D01*
X186750058Y-140590209D02*
X186845296Y-140637828D01*
X186845296Y-140637828D02*
X186940534Y-140637828D01*
X186940534Y-140637828D02*
X187083391Y-140590209D01*
X187083391Y-140590209D02*
X187654820Y-140018781D01*
X187654820Y-140018781D02*
X187654820Y-140637828D01*
X187654820Y-141066400D02*
X186654820Y-141066400D01*
X187654820Y-141637828D02*
X187083391Y-141209257D01*
X186654820Y-141637828D02*
X187226248Y-141066400D01*
X187131010Y-142399733D02*
X187131010Y-142066400D01*
X187654820Y-142066400D02*
X186654820Y-142066400D01*
X186654820Y-142066400D02*
X186654820Y-142542590D01*
X186654820Y-142923543D02*
X187464343Y-142923543D01*
X187464343Y-142923543D02*
X187559581Y-142971162D01*
X187559581Y-142971162D02*
X187607201Y-143018781D01*
X187607201Y-143018781D02*
X187654820Y-143114019D01*
X187654820Y-143114019D02*
X187654820Y-143304495D01*
X187654820Y-143304495D02*
X187607201Y-143399733D01*
X187607201Y-143399733D02*
X187559581Y-143447352D01*
X187559581Y-143447352D02*
X187464343Y-143494971D01*
X187464343Y-143494971D02*
X186654820Y-143494971D01*
X187750058Y-143733067D02*
X187750058Y-144494971D01*
X187654820Y-145209257D02*
X187654820Y-144733067D01*
X187654820Y-144733067D02*
X186654820Y-144733067D01*
X187131010Y-145875924D02*
X187131010Y-145542591D01*
X187654820Y-145542591D02*
X186654820Y-145542591D01*
X186654820Y-145542591D02*
X186654820Y-146018781D01*
X78767799Y-146554761D02*
X78720179Y-146411904D01*
X78720179Y-146411904D02*
X78720179Y-146173809D01*
X78720179Y-146173809D02*
X78767799Y-146078571D01*
X78767799Y-146078571D02*
X78815418Y-146030952D01*
X78815418Y-146030952D02*
X78910656Y-145983333D01*
X78910656Y-145983333D02*
X79005894Y-145983333D01*
X79005894Y-145983333D02*
X79101132Y-146030952D01*
X79101132Y-146030952D02*
X79148751Y-146078571D01*
X79148751Y-146078571D02*
X79196370Y-146173809D01*
X79196370Y-146173809D02*
X79243989Y-146364285D01*
X79243989Y-146364285D02*
X79291608Y-146459523D01*
X79291608Y-146459523D02*
X79339227Y-146507142D01*
X79339227Y-146507142D02*
X79434465Y-146554761D01*
X79434465Y-146554761D02*
X79529703Y-146554761D01*
X79529703Y-146554761D02*
X79624941Y-146507142D01*
X79624941Y-146507142D02*
X79672560Y-146459523D01*
X79672560Y-146459523D02*
X79720179Y-146364285D01*
X79720179Y-146364285D02*
X79720179Y-146126190D01*
X79720179Y-146126190D02*
X79672560Y-145983333D01*
X78767799Y-145602380D02*
X78720179Y-145459523D01*
X78720179Y-145459523D02*
X78720179Y-145221428D01*
X78720179Y-145221428D02*
X78767799Y-145126190D01*
X78767799Y-145126190D02*
X78815418Y-145078571D01*
X78815418Y-145078571D02*
X78910656Y-145030952D01*
X78910656Y-145030952D02*
X79005894Y-145030952D01*
X79005894Y-145030952D02*
X79101132Y-145078571D01*
X79101132Y-145078571D02*
X79148751Y-145126190D01*
X79148751Y-145126190D02*
X79196370Y-145221428D01*
X79196370Y-145221428D02*
X79243989Y-145411904D01*
X79243989Y-145411904D02*
X79291608Y-145507142D01*
X79291608Y-145507142D02*
X79339227Y-145554761D01*
X79339227Y-145554761D02*
X79434465Y-145602380D01*
X79434465Y-145602380D02*
X79529703Y-145602380D01*
X79529703Y-145602380D02*
X79624941Y-145554761D01*
X79624941Y-145554761D02*
X79672560Y-145507142D01*
X79672560Y-145507142D02*
X79720179Y-145411904D01*
X79720179Y-145411904D02*
X79720179Y-145173809D01*
X79720179Y-145173809D02*
X79672560Y-145030952D01*
X78720179Y-144602380D02*
X79720179Y-144602380D01*
X79720179Y-144602380D02*
X79005894Y-144269047D01*
X79005894Y-144269047D02*
X79720179Y-143935714D01*
X79720179Y-143935714D02*
X78720179Y-143935714D01*
X79720179Y-143030952D02*
X79720179Y-143221428D01*
X79720179Y-143221428D02*
X79672560Y-143316666D01*
X79672560Y-143316666D02*
X79624941Y-143364285D01*
X79624941Y-143364285D02*
X79482084Y-143459523D01*
X79482084Y-143459523D02*
X79291608Y-143507142D01*
X79291608Y-143507142D02*
X78910656Y-143507142D01*
X78910656Y-143507142D02*
X78815418Y-143459523D01*
X78815418Y-143459523D02*
X78767799Y-143411904D01*
X78767799Y-143411904D02*
X78720179Y-143316666D01*
X78720179Y-143316666D02*
X78720179Y-143126190D01*
X78720179Y-143126190D02*
X78767799Y-143030952D01*
X78767799Y-143030952D02*
X78815418Y-142983333D01*
X78815418Y-142983333D02*
X78910656Y-142935714D01*
X78910656Y-142935714D02*
X79148751Y-142935714D01*
X79148751Y-142935714D02*
X79243989Y-142983333D01*
X79243989Y-142983333D02*
X79291608Y-143030952D01*
X79291608Y-143030952D02*
X79339227Y-143126190D01*
X79339227Y-143126190D02*
X79339227Y-143316666D01*
X79339227Y-143316666D02*
X79291608Y-143411904D01*
X79291608Y-143411904D02*
X79243989Y-143459523D01*
X79243989Y-143459523D02*
X79148751Y-143507142D01*
X78720179Y-142507142D02*
X79720179Y-142507142D01*
X79720179Y-142507142D02*
X78720179Y-141935714D01*
X78720179Y-141935714D02*
X79720179Y-141935714D01*
X79720179Y-141554761D02*
X79720179Y-140888095D01*
X79720179Y-140888095D02*
X78720179Y-141316666D01*
X79720179Y-140316666D02*
X79720179Y-140221428D01*
X79720179Y-140221428D02*
X79672560Y-140126190D01*
X79672560Y-140126190D02*
X79624941Y-140078571D01*
X79624941Y-140078571D02*
X79529703Y-140030952D01*
X79529703Y-140030952D02*
X79339227Y-139983333D01*
X79339227Y-139983333D02*
X79101132Y-139983333D01*
X79101132Y-139983333D02*
X78910656Y-140030952D01*
X78910656Y-140030952D02*
X78815418Y-140078571D01*
X78815418Y-140078571D02*
X78767799Y-140126190D01*
X78767799Y-140126190D02*
X78720179Y-140221428D01*
X78720179Y-140221428D02*
X78720179Y-140316666D01*
X78720179Y-140316666D02*
X78767799Y-140411904D01*
X78767799Y-140411904D02*
X78815418Y-140459523D01*
X78815418Y-140459523D02*
X78910656Y-140507142D01*
X78910656Y-140507142D02*
X79101132Y-140554761D01*
X79101132Y-140554761D02*
X79339227Y-140554761D01*
X79339227Y-140554761D02*
X79529703Y-140507142D01*
X79529703Y-140507142D02*
X79624941Y-140459523D01*
X79624941Y-140459523D02*
X79672560Y-140411904D01*
X79672560Y-140411904D02*
X79720179Y-140316666D01*
X79720179Y-139364285D02*
X79720179Y-139269047D01*
X79720179Y-139269047D02*
X79672560Y-139173809D01*
X79672560Y-139173809D02*
X79624941Y-139126190D01*
X79624941Y-139126190D02*
X79529703Y-139078571D01*
X79529703Y-139078571D02*
X79339227Y-139030952D01*
X79339227Y-139030952D02*
X79101132Y-139030952D01*
X79101132Y-139030952D02*
X78910656Y-139078571D01*
X78910656Y-139078571D02*
X78815418Y-139126190D01*
X78815418Y-139126190D02*
X78767799Y-139173809D01*
X78767799Y-139173809D02*
X78720179Y-139269047D01*
X78720179Y-139269047D02*
X78720179Y-139364285D01*
X78720179Y-139364285D02*
X78767799Y-139459523D01*
X78767799Y-139459523D02*
X78815418Y-139507142D01*
X78815418Y-139507142D02*
X78910656Y-139554761D01*
X78910656Y-139554761D02*
X79101132Y-139602380D01*
X79101132Y-139602380D02*
X79339227Y-139602380D01*
X79339227Y-139602380D02*
X79529703Y-139554761D01*
X79529703Y-139554761D02*
X79624941Y-139507142D01*
X79624941Y-139507142D02*
X79672560Y-139459523D01*
X79672560Y-139459523D02*
X79720179Y-139364285D01*
X79624941Y-138649999D02*
X79672560Y-138602380D01*
X79672560Y-138602380D02*
X79720179Y-138507142D01*
X79720179Y-138507142D02*
X79720179Y-138269047D01*
X79720179Y-138269047D02*
X79672560Y-138173809D01*
X79672560Y-138173809D02*
X79624941Y-138126190D01*
X79624941Y-138126190D02*
X79529703Y-138078571D01*
X79529703Y-138078571D02*
X79434465Y-138078571D01*
X79434465Y-138078571D02*
X79291608Y-138126190D01*
X79291608Y-138126190D02*
X78720179Y-138697618D01*
X78720179Y-138697618D02*
X78720179Y-138078571D01*
X78720179Y-137649999D02*
X79720179Y-137649999D01*
X78720179Y-137078571D02*
X79291608Y-137507142D01*
X79720179Y-137078571D02*
X79148751Y-137649999D01*
X79243989Y-136316666D02*
X79243989Y-136649999D01*
X78720179Y-136649999D02*
X79720179Y-136649999D01*
X79720179Y-136649999D02*
X79720179Y-136173809D01*
X79720179Y-135792856D02*
X78910656Y-135792856D01*
X78910656Y-135792856D02*
X78815418Y-135745237D01*
X78815418Y-135745237D02*
X78767799Y-135697618D01*
X78767799Y-135697618D02*
X78720179Y-135602380D01*
X78720179Y-135602380D02*
X78720179Y-135411904D01*
X78720179Y-135411904D02*
X78767799Y-135316666D01*
X78767799Y-135316666D02*
X78815418Y-135269047D01*
X78815418Y-135269047D02*
X78910656Y-135221428D01*
X78910656Y-135221428D02*
X79720179Y-135221428D01*
X78624941Y-134983333D02*
X78624941Y-134221428D01*
X78720179Y-133507142D02*
X78720179Y-133983332D01*
X78720179Y-133983332D02*
X79720179Y-133983332D01*
X79243989Y-132840475D02*
X79243989Y-133173808D01*
X78720179Y-133173808D02*
X79720179Y-133173808D01*
X79720179Y-133173808D02*
X79720179Y-132697618D01*
X68472842Y-127573866D02*
X68425223Y-127526247D01*
X68425223Y-127526247D02*
X68329985Y-127478628D01*
X68329985Y-127478628D02*
X68139509Y-127573866D01*
X68139509Y-127573866D02*
X68044271Y-127526247D01*
X68044271Y-127526247D02*
X67996652Y-127478628D01*
X69449032Y-136954819D02*
X69449032Y-135954819D01*
X68877604Y-136954819D02*
X69306175Y-136383390D01*
X68877604Y-135954819D02*
X69449032Y-136526247D01*
X67972842Y-135954819D02*
X68449032Y-135954819D01*
X68449032Y-135954819D02*
X68496651Y-136431009D01*
X68496651Y-136431009D02*
X68449032Y-136383390D01*
X68449032Y-136383390D02*
X68353794Y-136335771D01*
X68353794Y-136335771D02*
X68115699Y-136335771D01*
X68115699Y-136335771D02*
X68020461Y-136383390D01*
X68020461Y-136383390D02*
X67972842Y-136431009D01*
X67972842Y-136431009D02*
X67925223Y-136526247D01*
X67925223Y-136526247D02*
X67925223Y-136764342D01*
X67925223Y-136764342D02*
X67972842Y-136859580D01*
X67972842Y-136859580D02*
X68020461Y-136907200D01*
X68020461Y-136907200D02*
X68115699Y-136954819D01*
X68115699Y-136954819D02*
X68353794Y-136954819D01*
X68353794Y-136954819D02*
X68449032Y-136907200D01*
X68449032Y-136907200D02*
X68496651Y-136859580D01*
X67523809Y-83931009D02*
X67857142Y-83931009D01*
X67857142Y-84454819D02*
X67857142Y-83454819D01*
X67857142Y-83454819D02*
X67380952Y-83454819D01*
X66476190Y-83502438D02*
X66571428Y-83454819D01*
X66571428Y-83454819D02*
X66714285Y-83454819D01*
X66714285Y-83454819D02*
X66857142Y-83502438D01*
X66857142Y-83502438D02*
X66952380Y-83597676D01*
X66952380Y-83597676D02*
X66999999Y-83692914D01*
X66999999Y-83692914D02*
X67047618Y-83883390D01*
X67047618Y-83883390D02*
X67047618Y-84026247D01*
X67047618Y-84026247D02*
X66999999Y-84216723D01*
X66999999Y-84216723D02*
X66952380Y-84311961D01*
X66952380Y-84311961D02*
X66857142Y-84407200D01*
X66857142Y-84407200D02*
X66714285Y-84454819D01*
X66714285Y-84454819D02*
X66619047Y-84454819D01*
X66619047Y-84454819D02*
X66476190Y-84407200D01*
X66476190Y-84407200D02*
X66428571Y-84359580D01*
X66428571Y-84359580D02*
X66428571Y-84026247D01*
X66428571Y-84026247D02*
X66619047Y-84026247D01*
X65476190Y-84454819D02*
X66047618Y-84454819D01*
X65761904Y-84454819D02*
X65761904Y-83454819D01*
X65761904Y-83454819D02*
X65857142Y-83597676D01*
X65857142Y-83597676D02*
X65952380Y-83692914D01*
X65952380Y-83692914D02*
X66047618Y-83740533D01*
X64904761Y-83883390D02*
X64999999Y-83835771D01*
X64999999Y-83835771D02*
X65047618Y-83788152D01*
X65047618Y-83788152D02*
X65095237Y-83692914D01*
X65095237Y-83692914D02*
X65095237Y-83645295D01*
X65095237Y-83645295D02*
X65047618Y-83550057D01*
X65047618Y-83550057D02*
X64999999Y-83502438D01*
X64999999Y-83502438D02*
X64904761Y-83454819D01*
X64904761Y-83454819D02*
X64714285Y-83454819D01*
X64714285Y-83454819D02*
X64619047Y-83502438D01*
X64619047Y-83502438D02*
X64571428Y-83550057D01*
X64571428Y-83550057D02*
X64523809Y-83645295D01*
X64523809Y-83645295D02*
X64523809Y-83692914D01*
X64523809Y-83692914D02*
X64571428Y-83788152D01*
X64571428Y-83788152D02*
X64619047Y-83835771D01*
X64619047Y-83835771D02*
X64714285Y-83883390D01*
X64714285Y-83883390D02*
X64904761Y-83883390D01*
X64904761Y-83883390D02*
X64999999Y-83931009D01*
X64999999Y-83931009D02*
X65047618Y-83978628D01*
X65047618Y-83978628D02*
X65095237Y-84073866D01*
X65095237Y-84073866D02*
X65095237Y-84264342D01*
X65095237Y-84264342D02*
X65047618Y-84359580D01*
X65047618Y-84359580D02*
X64999999Y-84407200D01*
X64999999Y-84407200D02*
X64904761Y-84454819D01*
X64904761Y-84454819D02*
X64714285Y-84454819D01*
X64714285Y-84454819D02*
X64619047Y-84407200D01*
X64619047Y-84407200D02*
X64571428Y-84359580D01*
X64571428Y-84359580D02*
X64523809Y-84264342D01*
X64523809Y-84264342D02*
X64523809Y-84073866D01*
X64523809Y-84073866D02*
X64571428Y-83978628D01*
X64571428Y-83978628D02*
X64619047Y-83931009D01*
X64619047Y-83931009D02*
X64714285Y-83883390D01*
X64190475Y-83454819D02*
X63523809Y-84454819D01*
X63523809Y-83454819D02*
X64190475Y-84454819D01*
X62666666Y-83454819D02*
X63142856Y-83454819D01*
X63142856Y-83454819D02*
X63190475Y-83931009D01*
X63190475Y-83931009D02*
X63142856Y-83883390D01*
X63142856Y-83883390D02*
X63047618Y-83835771D01*
X63047618Y-83835771D02*
X62809523Y-83835771D01*
X62809523Y-83835771D02*
X62714285Y-83883390D01*
X62714285Y-83883390D02*
X62666666Y-83931009D01*
X62666666Y-83931009D02*
X62619047Y-84026247D01*
X62619047Y-84026247D02*
X62619047Y-84264342D01*
X62619047Y-84264342D02*
X62666666Y-84359580D01*
X62666666Y-84359580D02*
X62714285Y-84407200D01*
X62714285Y-84407200D02*
X62809523Y-84454819D01*
X62809523Y-84454819D02*
X63047618Y-84454819D01*
X63047618Y-84454819D02*
X63142856Y-84407200D01*
X63142856Y-84407200D02*
X63190475Y-84359580D01*
X61619047Y-84454819D02*
X61952380Y-83978628D01*
X62190475Y-84454819D02*
X62190475Y-83454819D01*
X62190475Y-83454819D02*
X61809523Y-83454819D01*
X61809523Y-83454819D02*
X61714285Y-83502438D01*
X61714285Y-83502438D02*
X61666666Y-83550057D01*
X61666666Y-83550057D02*
X61619047Y-83645295D01*
X61619047Y-83645295D02*
X61619047Y-83788152D01*
X61619047Y-83788152D02*
X61666666Y-83883390D01*
X61666666Y-83883390D02*
X61714285Y-83931009D01*
X61714285Y-83931009D02*
X61809523Y-83978628D01*
X61809523Y-83978628D02*
X62190475Y-83978628D01*
X60666666Y-84454819D02*
X61238094Y-84454819D01*
X60952380Y-84454819D02*
X60952380Y-83454819D01*
X60952380Y-83454819D02*
X61047618Y-83597676D01*
X61047618Y-83597676D02*
X61142856Y-83692914D01*
X61142856Y-83692914D02*
X61238094Y-83740533D01*
X60238094Y-83931009D02*
X59904761Y-83931009D01*
X59761904Y-84454819D02*
X60238094Y-84454819D01*
X60238094Y-84454819D02*
X60238094Y-83454819D01*
X60238094Y-83454819D02*
X59761904Y-83454819D01*
X58809523Y-84454819D02*
X59380951Y-84454819D01*
X59095237Y-84454819D02*
X59095237Y-83454819D01*
X59095237Y-83454819D02*
X59190475Y-83597676D01*
X59190475Y-83597676D02*
X59285713Y-83692914D01*
X59285713Y-83692914D02*
X59380951Y-83740533D01*
X58190475Y-83454819D02*
X58095237Y-83454819D01*
X58095237Y-83454819D02*
X57999999Y-83502438D01*
X57999999Y-83502438D02*
X57952380Y-83550057D01*
X57952380Y-83550057D02*
X57904761Y-83645295D01*
X57904761Y-83645295D02*
X57857142Y-83835771D01*
X57857142Y-83835771D02*
X57857142Y-84073866D01*
X57857142Y-84073866D02*
X57904761Y-84264342D01*
X57904761Y-84264342D02*
X57952380Y-84359580D01*
X57952380Y-84359580D02*
X57999999Y-84407200D01*
X57999999Y-84407200D02*
X58095237Y-84454819D01*
X58095237Y-84454819D02*
X58190475Y-84454819D01*
X58190475Y-84454819D02*
X58285713Y-84407200D01*
X58285713Y-84407200D02*
X58333332Y-84359580D01*
X58333332Y-84359580D02*
X58380951Y-84264342D01*
X58380951Y-84264342D02*
X58428570Y-84073866D01*
X58428570Y-84073866D02*
X58428570Y-83835771D01*
X58428570Y-83835771D02*
X58380951Y-83645295D01*
X58380951Y-83645295D02*
X58333332Y-83550057D01*
X58333332Y-83550057D02*
X58285713Y-83502438D01*
X58285713Y-83502438D02*
X58190475Y-83454819D01*
X56999999Y-83454819D02*
X57190475Y-83454819D01*
X57190475Y-83454819D02*
X57285713Y-83502438D01*
X57285713Y-83502438D02*
X57333332Y-83550057D01*
X57333332Y-83550057D02*
X57428570Y-83692914D01*
X57428570Y-83692914D02*
X57476189Y-83883390D01*
X57476189Y-83883390D02*
X57476189Y-84264342D01*
X57476189Y-84264342D02*
X57428570Y-84359580D01*
X57428570Y-84359580D02*
X57380951Y-84407200D01*
X57380951Y-84407200D02*
X57285713Y-84454819D01*
X57285713Y-84454819D02*
X57095237Y-84454819D01*
X57095237Y-84454819D02*
X56999999Y-84407200D01*
X56999999Y-84407200D02*
X56952380Y-84359580D01*
X56952380Y-84359580D02*
X56904761Y-84264342D01*
X56904761Y-84264342D02*
X56904761Y-84026247D01*
X56904761Y-84026247D02*
X56952380Y-83931009D01*
X56952380Y-83931009D02*
X56999999Y-83883390D01*
X56999999Y-83883390D02*
X57095237Y-83835771D01*
X57095237Y-83835771D02*
X57285713Y-83835771D01*
X57285713Y-83835771D02*
X57380951Y-83883390D01*
X57380951Y-83883390D02*
X57428570Y-83931009D01*
X57428570Y-83931009D02*
X57476189Y-84026247D01*
X56476189Y-84454819D02*
X56476189Y-83454819D01*
X56476189Y-83454819D02*
X56142856Y-84169104D01*
X56142856Y-84169104D02*
X55809523Y-83454819D01*
X55809523Y-83454819D02*
X55809523Y-84454819D01*
X54761904Y-84454819D02*
X55095237Y-83978628D01*
X55333332Y-84454819D02*
X55333332Y-83454819D01*
X55333332Y-83454819D02*
X54952380Y-83454819D01*
X54952380Y-83454819D02*
X54857142Y-83502438D01*
X54857142Y-83502438D02*
X54809523Y-83550057D01*
X54809523Y-83550057D02*
X54761904Y-83645295D01*
X54761904Y-83645295D02*
X54761904Y-83788152D01*
X54761904Y-83788152D02*
X54809523Y-83883390D01*
X54809523Y-83883390D02*
X54857142Y-83931009D01*
X54857142Y-83931009D02*
X54952380Y-83978628D01*
X54952380Y-83978628D02*
X55333332Y-83978628D01*
X54476189Y-83454819D02*
X53904761Y-83454819D01*
X54190475Y-84454819D02*
X54190475Y-83454819D01*
X53380951Y-83454819D02*
X53285713Y-83454819D01*
X53285713Y-83454819D02*
X53190475Y-83502438D01*
X53190475Y-83502438D02*
X53142856Y-83550057D01*
X53142856Y-83550057D02*
X53095237Y-83645295D01*
X53095237Y-83645295D02*
X53047618Y-83835771D01*
X53047618Y-83835771D02*
X53047618Y-84073866D01*
X53047618Y-84073866D02*
X53095237Y-84264342D01*
X53095237Y-84264342D02*
X53142856Y-84359580D01*
X53142856Y-84359580D02*
X53190475Y-84407200D01*
X53190475Y-84407200D02*
X53285713Y-84454819D01*
X53285713Y-84454819D02*
X53380951Y-84454819D01*
X53380951Y-84454819D02*
X53476189Y-84407200D01*
X53476189Y-84407200D02*
X53523808Y-84359580D01*
X53523808Y-84359580D02*
X53571427Y-84264342D01*
X53571427Y-84264342D02*
X53619046Y-84073866D01*
X53619046Y-84073866D02*
X53619046Y-83835771D01*
X53619046Y-83835771D02*
X53571427Y-83645295D01*
X53571427Y-83645295D02*
X53523808Y-83550057D01*
X53523808Y-83550057D02*
X53476189Y-83502438D01*
X53476189Y-83502438D02*
X53380951Y-83454819D01*
X52190475Y-83454819D02*
X52380951Y-83454819D01*
X52380951Y-83454819D02*
X52476189Y-83502438D01*
X52476189Y-83502438D02*
X52523808Y-83550057D01*
X52523808Y-83550057D02*
X52619046Y-83692914D01*
X52619046Y-83692914D02*
X52666665Y-83883390D01*
X52666665Y-83883390D02*
X52666665Y-84264342D01*
X52666665Y-84264342D02*
X52619046Y-84359580D01*
X52619046Y-84359580D02*
X52571427Y-84407200D01*
X52571427Y-84407200D02*
X52476189Y-84454819D01*
X52476189Y-84454819D02*
X52285713Y-84454819D01*
X52285713Y-84454819D02*
X52190475Y-84407200D01*
X52190475Y-84407200D02*
X52142856Y-84359580D01*
X52142856Y-84359580D02*
X52095237Y-84264342D01*
X52095237Y-84264342D02*
X52095237Y-84026247D01*
X52095237Y-84026247D02*
X52142856Y-83931009D01*
X52142856Y-83931009D02*
X52190475Y-83883390D01*
X52190475Y-83883390D02*
X52285713Y-83835771D01*
X52285713Y-83835771D02*
X52476189Y-83835771D01*
X52476189Y-83835771D02*
X52571427Y-83883390D01*
X52571427Y-83883390D02*
X52619046Y-83931009D01*
X52619046Y-83931009D02*
X52666665Y-84026247D01*
D11*
X108677014Y-129422300D02*
X108283313Y-129422300D01*
X108677014Y-129647272D02*
X108452042Y-129478543D01*
X108283313Y-129647272D02*
X108508285Y-129422300D01*
X108677014Y-130040973D02*
X108489538Y-129909739D01*
X108677014Y-129816001D02*
X108283313Y-129816001D01*
X108283313Y-129816001D02*
X108283313Y-129965982D01*
X108283313Y-129965982D02*
X108302061Y-130003478D01*
X108302061Y-130003478D02*
X108320809Y-130022225D01*
X108320809Y-130022225D02*
X108358304Y-130040973D01*
X108358304Y-130040973D02*
X108414547Y-130040973D01*
X108414547Y-130040973D02*
X108452042Y-130022225D01*
X108452042Y-130022225D02*
X108470790Y-130003478D01*
X108470790Y-130003478D02*
X108489538Y-129965982D01*
X108489538Y-129965982D02*
X108489538Y-129816001D01*
X108677014Y-130209702D02*
X108283313Y-130209702D01*
X108283313Y-130209702D02*
X108564528Y-130340936D01*
X108564528Y-130340936D02*
X108283313Y-130472169D01*
X108283313Y-130472169D02*
X108677014Y-130472169D01*
X108283313Y-130847123D02*
X108283313Y-130659646D01*
X108283313Y-130659646D02*
X108470790Y-130640898D01*
X108470790Y-130640898D02*
X108452042Y-130659646D01*
X108452042Y-130659646D02*
X108433295Y-130697141D01*
X108433295Y-130697141D02*
X108433295Y-130790880D01*
X108433295Y-130790880D02*
X108452042Y-130828375D01*
X108452042Y-130828375D02*
X108470790Y-130847123D01*
X108470790Y-130847123D02*
X108508285Y-130865870D01*
X108508285Y-130865870D02*
X108602024Y-130865870D01*
X108602024Y-130865870D02*
X108639519Y-130847123D01*
X108639519Y-130847123D02*
X108658267Y-130828375D01*
X108658267Y-130828375D02*
X108677014Y-130790880D01*
X108677014Y-130790880D02*
X108677014Y-130697141D01*
X108677014Y-130697141D02*
X108658267Y-130659646D01*
X108658267Y-130659646D02*
X108639519Y-130640898D01*
X108283313Y-131222076D02*
X108283313Y-131034599D01*
X108283313Y-131034599D02*
X108470790Y-131015851D01*
X108470790Y-131015851D02*
X108452042Y-131034599D01*
X108452042Y-131034599D02*
X108433295Y-131072094D01*
X108433295Y-131072094D02*
X108433295Y-131165833D01*
X108433295Y-131165833D02*
X108452042Y-131203328D01*
X108452042Y-131203328D02*
X108470790Y-131222076D01*
X108470790Y-131222076D02*
X108508285Y-131240823D01*
X108508285Y-131240823D02*
X108602024Y-131240823D01*
X108602024Y-131240823D02*
X108639519Y-131222076D01*
X108639519Y-131222076D02*
X108658267Y-131203328D01*
X108658267Y-131203328D02*
X108677014Y-131165833D01*
X108677014Y-131165833D02*
X108677014Y-131072094D01*
X108677014Y-131072094D02*
X108658267Y-131034599D01*
X108658267Y-131034599D02*
X108639519Y-131015851D01*
X108283313Y-131372057D02*
X108677014Y-131465795D01*
X108677014Y-131465795D02*
X108395799Y-131540786D01*
X108395799Y-131540786D02*
X108677014Y-131615776D01*
X108677014Y-131615776D02*
X108283313Y-131709515D01*
X108639519Y-132084468D02*
X108658267Y-132065720D01*
X108658267Y-132065720D02*
X108677014Y-132009477D01*
X108677014Y-132009477D02*
X108677014Y-131971982D01*
X108677014Y-131971982D02*
X108658267Y-131915739D01*
X108658267Y-131915739D02*
X108620771Y-131878244D01*
X108620771Y-131878244D02*
X108583276Y-131859496D01*
X108583276Y-131859496D02*
X108508285Y-131840748D01*
X108508285Y-131840748D02*
X108452042Y-131840748D01*
X108452042Y-131840748D02*
X108377052Y-131859496D01*
X108377052Y-131859496D02*
X108339556Y-131878244D01*
X108339556Y-131878244D02*
X108302061Y-131915739D01*
X108302061Y-131915739D02*
X108283313Y-131971982D01*
X108283313Y-131971982D02*
X108283313Y-132009477D01*
X108283313Y-132009477D02*
X108302061Y-132065720D01*
X108302061Y-132065720D02*
X108320809Y-132084468D01*
X108283313Y-132215702D02*
X108283313Y-132478169D01*
X108283313Y-132478169D02*
X108677014Y-132309440D01*
X108677014Y-132834374D02*
X108677014Y-132609402D01*
X108677014Y-132721888D02*
X108283313Y-132721888D01*
X108283313Y-132721888D02*
X108339556Y-132684393D01*
X108339556Y-132684393D02*
X108377052Y-132646898D01*
X108377052Y-132646898D02*
X108395799Y-132609402D01*
X108470790Y-133003103D02*
X108470790Y-133134337D01*
X108677014Y-133190580D02*
X108677014Y-133003103D01*
X108677014Y-133003103D02*
X108283313Y-133003103D01*
X108283313Y-133003103D02*
X108283313Y-133190580D01*
X108677014Y-133565533D02*
X108677014Y-133340561D01*
X108677014Y-133453047D02*
X108283313Y-133453047D01*
X108283313Y-133453047D02*
X108339556Y-133415552D01*
X108339556Y-133415552D02*
X108377052Y-133378057D01*
X108377052Y-133378057D02*
X108395799Y-133340561D01*
X108283313Y-133809253D02*
X108283313Y-133846748D01*
X108283313Y-133846748D02*
X108302061Y-133884243D01*
X108302061Y-133884243D02*
X108320809Y-133902991D01*
X108320809Y-133902991D02*
X108358304Y-133921739D01*
X108358304Y-133921739D02*
X108433295Y-133940486D01*
X108433295Y-133940486D02*
X108527033Y-133940486D01*
X108527033Y-133940486D02*
X108602024Y-133921739D01*
X108602024Y-133921739D02*
X108639519Y-133902991D01*
X108639519Y-133902991D02*
X108658267Y-133884243D01*
X108658267Y-133884243D02*
X108677014Y-133846748D01*
X108677014Y-133846748D02*
X108677014Y-133809253D01*
X108677014Y-133809253D02*
X108658267Y-133771757D01*
X108658267Y-133771757D02*
X108639519Y-133753010D01*
X108639519Y-133753010D02*
X108602024Y-133734262D01*
X108602024Y-133734262D02*
X108527033Y-133715514D01*
X108527033Y-133715514D02*
X108433295Y-133715514D01*
X108433295Y-133715514D02*
X108358304Y-133734262D01*
X108358304Y-133734262D02*
X108320809Y-133753010D01*
X108320809Y-133753010D02*
X108302061Y-133771757D01*
X108302061Y-133771757D02*
X108283313Y-133809253D01*
X108283313Y-134071720D02*
X108283313Y-134334187D01*
X108283313Y-134334187D02*
X108677014Y-134165458D01*
X108677014Y-134484168D02*
X108283313Y-134484168D01*
X108283313Y-134484168D02*
X108564528Y-134615402D01*
X108564528Y-134615402D02*
X108283313Y-134746635D01*
X108283313Y-134746635D02*
X108677014Y-134746635D01*
X108677014Y-134934112D02*
X108283313Y-134934112D01*
X108470790Y-134934112D02*
X108470790Y-135159084D01*
X108677014Y-135159084D02*
X108283313Y-135159084D01*
X108677014Y-135552785D02*
X108677014Y-135327813D01*
X108677014Y-135440299D02*
X108283313Y-135440299D01*
X108283313Y-135440299D02*
X108339556Y-135402804D01*
X108339556Y-135402804D02*
X108377052Y-135365309D01*
X108377052Y-135365309D02*
X108395799Y-135327813D01*
X108283313Y-135684019D02*
X108283313Y-135927738D01*
X108283313Y-135927738D02*
X108433295Y-135796505D01*
X108433295Y-135796505D02*
X108433295Y-135852748D01*
X108433295Y-135852748D02*
X108452042Y-135890243D01*
X108452042Y-135890243D02*
X108470790Y-135908991D01*
X108470790Y-135908991D02*
X108508285Y-135927738D01*
X108508285Y-135927738D02*
X108602024Y-135927738D01*
X108602024Y-135927738D02*
X108639519Y-135908991D01*
X108639519Y-135908991D02*
X108658267Y-135890243D01*
X108658267Y-135890243D02*
X108677014Y-135852748D01*
X108677014Y-135852748D02*
X108677014Y-135740262D01*
X108677014Y-135740262D02*
X108658267Y-135702766D01*
X108658267Y-135702766D02*
X108639519Y-135684019D01*
X108677014Y-136283944D02*
X108677014Y-136096467D01*
X108677014Y-136096467D02*
X108283313Y-136096467D01*
D10*
X68872842Y-110273866D02*
X68825223Y-110226247D01*
X68825223Y-110226247D02*
X68729985Y-110178628D01*
X68729985Y-110178628D02*
X68539509Y-110273866D01*
X68539509Y-110273866D02*
X68444271Y-110226247D01*
X68444271Y-110226247D02*
X68396652Y-110178628D01*
X70349032Y-117654819D02*
X70349032Y-116654819D01*
X69777604Y-117654819D02*
X70206175Y-117083390D01*
X69777604Y-116654819D02*
X70349032Y-117226247D01*
X69396651Y-116750057D02*
X69349032Y-116702438D01*
X69349032Y-116702438D02*
X69253794Y-116654819D01*
X69253794Y-116654819D02*
X69015699Y-116654819D01*
X69015699Y-116654819D02*
X68920461Y-116702438D01*
X68920461Y-116702438D02*
X68872842Y-116750057D01*
X68872842Y-116750057D02*
X68825223Y-116845295D01*
X68825223Y-116845295D02*
X68825223Y-116940533D01*
X68825223Y-116940533D02*
X68872842Y-117083390D01*
X68872842Y-117083390D02*
X69444270Y-117654819D01*
X69444270Y-117654819D02*
X68825223Y-117654819D01*
X68472842Y-144273866D02*
X68425223Y-144226247D01*
X68425223Y-144226247D02*
X68329985Y-144178628D01*
X68329985Y-144178628D02*
X68139509Y-144273866D01*
X68139509Y-144273866D02*
X68044271Y-144226247D01*
X68044271Y-144226247D02*
X67996652Y-144178628D01*
X69449032Y-153654819D02*
X69449032Y-152654819D01*
X68877604Y-153654819D02*
X69306175Y-153083390D01*
X68877604Y-152654819D02*
X69449032Y-153226247D01*
X68020461Y-152654819D02*
X68210937Y-152654819D01*
X68210937Y-152654819D02*
X68306175Y-152702438D01*
X68306175Y-152702438D02*
X68353794Y-152750057D01*
X68353794Y-152750057D02*
X68449032Y-152892914D01*
X68449032Y-152892914D02*
X68496651Y-153083390D01*
X68496651Y-153083390D02*
X68496651Y-153464342D01*
X68496651Y-153464342D02*
X68449032Y-153559580D01*
X68449032Y-153559580D02*
X68401413Y-153607200D01*
X68401413Y-153607200D02*
X68306175Y-153654819D01*
X68306175Y-153654819D02*
X68115699Y-153654819D01*
X68115699Y-153654819D02*
X68020461Y-153607200D01*
X68020461Y-153607200D02*
X67972842Y-153559580D01*
X67972842Y-153559580D02*
X67925223Y-153464342D01*
X67925223Y-153464342D02*
X67925223Y-153226247D01*
X67925223Y-153226247D02*
X67972842Y-153131009D01*
X67972842Y-153131009D02*
X68020461Y-153083390D01*
X68020461Y-153083390D02*
X68115699Y-153035771D01*
X68115699Y-153035771D02*
X68306175Y-153035771D01*
X68306175Y-153035771D02*
X68401413Y-153083390D01*
X68401413Y-153083390D02*
X68449032Y-153131009D01*
X68449032Y-153131009D02*
X68496651Y-153226247D01*
X203161904Y-109673866D02*
X203114285Y-109626247D01*
X203114285Y-109626247D02*
X203019047Y-109578628D01*
X203019047Y-109578628D02*
X202828571Y-109673866D01*
X202828571Y-109673866D02*
X202733333Y-109626247D01*
X202733333Y-109626247D02*
X202685714Y-109578628D01*
X204138094Y-119054819D02*
X204138094Y-118054819D01*
X203566666Y-119054819D02*
X203995237Y-118483390D01*
X203566666Y-118054819D02*
X204138094Y-118626247D01*
X202614285Y-119054819D02*
X203185713Y-119054819D01*
X202899999Y-119054819D02*
X202899999Y-118054819D01*
X202899999Y-118054819D02*
X202995237Y-118197676D01*
X202995237Y-118197676D02*
X203090475Y-118292914D01*
X203090475Y-118292914D02*
X203185713Y-118340533D01*
X200032200Y-85590167D02*
X200079819Y-85733024D01*
X200079819Y-85733024D02*
X200079819Y-85971119D01*
X200079819Y-85971119D02*
X200032200Y-86066357D01*
X200032200Y-86066357D02*
X199984580Y-86113976D01*
X199984580Y-86113976D02*
X199889342Y-86161595D01*
X199889342Y-86161595D02*
X199794104Y-86161595D01*
X199794104Y-86161595D02*
X199698866Y-86113976D01*
X199698866Y-86113976D02*
X199651247Y-86066357D01*
X199651247Y-86066357D02*
X199603628Y-85971119D01*
X199603628Y-85971119D02*
X199556009Y-85780643D01*
X199556009Y-85780643D02*
X199508390Y-85685405D01*
X199508390Y-85685405D02*
X199460771Y-85637786D01*
X199460771Y-85637786D02*
X199365533Y-85590167D01*
X199365533Y-85590167D02*
X199270295Y-85590167D01*
X199270295Y-85590167D02*
X199175057Y-85637786D01*
X199175057Y-85637786D02*
X199127438Y-85685405D01*
X199127438Y-85685405D02*
X199079819Y-85780643D01*
X199079819Y-85780643D02*
X199079819Y-86018738D01*
X199079819Y-86018738D02*
X199127438Y-86161595D01*
X199794104Y-86542548D02*
X199794104Y-87018738D01*
X200079819Y-86447310D02*
X199079819Y-86780643D01*
X199079819Y-86780643D02*
X200079819Y-87113976D01*
X199079819Y-87875881D02*
X199079819Y-87685405D01*
X199079819Y-87685405D02*
X199127438Y-87590167D01*
X199127438Y-87590167D02*
X199175057Y-87542548D01*
X199175057Y-87542548D02*
X199317914Y-87447310D01*
X199317914Y-87447310D02*
X199508390Y-87399691D01*
X199508390Y-87399691D02*
X199889342Y-87399691D01*
X199889342Y-87399691D02*
X199984580Y-87447310D01*
X199984580Y-87447310D02*
X200032200Y-87494929D01*
X200032200Y-87494929D02*
X200079819Y-87590167D01*
X200079819Y-87590167D02*
X200079819Y-87780643D01*
X200079819Y-87780643D02*
X200032200Y-87875881D01*
X200032200Y-87875881D02*
X199984580Y-87923500D01*
X199984580Y-87923500D02*
X199889342Y-87971119D01*
X199889342Y-87971119D02*
X199651247Y-87971119D01*
X199651247Y-87971119D02*
X199556009Y-87923500D01*
X199556009Y-87923500D02*
X199508390Y-87875881D01*
X199508390Y-87875881D02*
X199460771Y-87780643D01*
X199460771Y-87780643D02*
X199460771Y-87590167D01*
X199460771Y-87590167D02*
X199508390Y-87494929D01*
X199508390Y-87494929D02*
X199556009Y-87447310D01*
X199556009Y-87447310D02*
X199651247Y-87399691D01*
X199984580Y-88399691D02*
X200032200Y-88447310D01*
X200032200Y-88447310D02*
X200079819Y-88399691D01*
X200079819Y-88399691D02*
X200032200Y-88352072D01*
X200032200Y-88352072D02*
X199984580Y-88399691D01*
X199984580Y-88399691D02*
X200079819Y-88399691D01*
X199079819Y-89066357D02*
X199079819Y-89161595D01*
X199079819Y-89161595D02*
X199127438Y-89256833D01*
X199127438Y-89256833D02*
X199175057Y-89304452D01*
X199175057Y-89304452D02*
X199270295Y-89352071D01*
X199270295Y-89352071D02*
X199460771Y-89399690D01*
X199460771Y-89399690D02*
X199698866Y-89399690D01*
X199698866Y-89399690D02*
X199889342Y-89352071D01*
X199889342Y-89352071D02*
X199984580Y-89304452D01*
X199984580Y-89304452D02*
X200032200Y-89256833D01*
X200032200Y-89256833D02*
X200079819Y-89161595D01*
X200079819Y-89161595D02*
X200079819Y-89066357D01*
X200079819Y-89066357D02*
X200032200Y-88971119D01*
X200032200Y-88971119D02*
X199984580Y-88923500D01*
X199984580Y-88923500D02*
X199889342Y-88875881D01*
X199889342Y-88875881D02*
X199698866Y-88828262D01*
X199698866Y-88828262D02*
X199460771Y-88828262D01*
X199460771Y-88828262D02*
X199270295Y-88875881D01*
X199270295Y-88875881D02*
X199175057Y-88923500D01*
X199175057Y-88923500D02*
X199127438Y-88971119D01*
X199127438Y-88971119D02*
X199079819Y-89066357D01*
X199794104Y-89780643D02*
X199794104Y-90256833D01*
X200079819Y-89685405D02*
X199079819Y-90018738D01*
X199079819Y-90018738D02*
X200079819Y-90352071D01*
X200079819Y-87185405D02*
X199079819Y-87185405D01*
X199079819Y-87185405D02*
X199079819Y-87423500D01*
X199079819Y-87423500D02*
X199127438Y-87566357D01*
X199127438Y-87566357D02*
X199222676Y-87661595D01*
X199222676Y-87661595D02*
X199317914Y-87709214D01*
X199317914Y-87709214D02*
X199508390Y-87756833D01*
X199508390Y-87756833D02*
X199651247Y-87756833D01*
X199651247Y-87756833D02*
X199841723Y-87709214D01*
X199841723Y-87709214D02*
X199936961Y-87661595D01*
X199936961Y-87661595D02*
X200032200Y-87566357D01*
X200032200Y-87566357D02*
X200079819Y-87423500D01*
X200079819Y-87423500D02*
X200079819Y-87185405D01*
X199079819Y-88090167D02*
X199079819Y-88756833D01*
X199079819Y-88756833D02*
X200079819Y-88328262D01*
X101814819Y-133612857D02*
X101814819Y-133708095D01*
X101814819Y-133708095D02*
X101862438Y-133803333D01*
X101862438Y-133803333D02*
X101910057Y-133850952D01*
X101910057Y-133850952D02*
X102005295Y-133898571D01*
X102005295Y-133898571D02*
X102195771Y-133946190D01*
X102195771Y-133946190D02*
X102433866Y-133946190D01*
X102433866Y-133946190D02*
X102624342Y-133898571D01*
X102624342Y-133898571D02*
X102719580Y-133850952D01*
X102719580Y-133850952D02*
X102767200Y-133803333D01*
X102767200Y-133803333D02*
X102814819Y-133708095D01*
X102814819Y-133708095D02*
X102814819Y-133612857D01*
X102814819Y-133612857D02*
X102767200Y-133517619D01*
X102767200Y-133517619D02*
X102719580Y-133470000D01*
X102719580Y-133470000D02*
X102624342Y-133422381D01*
X102624342Y-133422381D02*
X102433866Y-133374762D01*
X102433866Y-133374762D02*
X102195771Y-133374762D01*
X102195771Y-133374762D02*
X102005295Y-133422381D01*
X102005295Y-133422381D02*
X101910057Y-133470000D01*
X101910057Y-133470000D02*
X101862438Y-133517619D01*
X101862438Y-133517619D02*
X101814819Y-133612857D01*
X101814819Y-134803333D02*
X101814819Y-134612857D01*
X101814819Y-134612857D02*
X101862438Y-134517619D01*
X101862438Y-134517619D02*
X101910057Y-134470000D01*
X101910057Y-134470000D02*
X102052914Y-134374762D01*
X102052914Y-134374762D02*
X102243390Y-134327143D01*
X102243390Y-134327143D02*
X102624342Y-134327143D01*
X102624342Y-134327143D02*
X102719580Y-134374762D01*
X102719580Y-134374762D02*
X102767200Y-134422381D01*
X102767200Y-134422381D02*
X102814819Y-134517619D01*
X102814819Y-134517619D02*
X102814819Y-134708095D01*
X102814819Y-134708095D02*
X102767200Y-134803333D01*
X102767200Y-134803333D02*
X102719580Y-134850952D01*
X102719580Y-134850952D02*
X102624342Y-134898571D01*
X102624342Y-134898571D02*
X102386247Y-134898571D01*
X102386247Y-134898571D02*
X102291009Y-134850952D01*
X102291009Y-134850952D02*
X102243390Y-134803333D01*
X102243390Y-134803333D02*
X102195771Y-134708095D01*
X102195771Y-134708095D02*
X102195771Y-134517619D01*
X102195771Y-134517619D02*
X102243390Y-134422381D01*
X102243390Y-134422381D02*
X102291009Y-134374762D01*
X102291009Y-134374762D02*
X102386247Y-134327143D01*
X101814819Y-135231905D02*
X101814819Y-135898571D01*
X101814819Y-135898571D02*
X102814819Y-135470000D01*
X102814819Y-136327143D02*
X102814819Y-136517619D01*
X102814819Y-136517619D02*
X102767200Y-136612857D01*
X102767200Y-136612857D02*
X102719580Y-136660476D01*
X102719580Y-136660476D02*
X102576723Y-136755714D01*
X102576723Y-136755714D02*
X102386247Y-136803333D01*
X102386247Y-136803333D02*
X102005295Y-136803333D01*
X102005295Y-136803333D02*
X101910057Y-136755714D01*
X101910057Y-136755714D02*
X101862438Y-136708095D01*
X101862438Y-136708095D02*
X101814819Y-136612857D01*
X101814819Y-136612857D02*
X101814819Y-136422381D01*
X101814819Y-136422381D02*
X101862438Y-136327143D01*
X101862438Y-136327143D02*
X101910057Y-136279524D01*
X101910057Y-136279524D02*
X102005295Y-136231905D01*
X102005295Y-136231905D02*
X102243390Y-136231905D01*
X102243390Y-136231905D02*
X102338628Y-136279524D01*
X102338628Y-136279524D02*
X102386247Y-136327143D01*
X102386247Y-136327143D02*
X102433866Y-136422381D01*
X102433866Y-136422381D02*
X102433866Y-136612857D01*
X102433866Y-136612857D02*
X102386247Y-136708095D01*
X102386247Y-136708095D02*
X102338628Y-136755714D01*
X102338628Y-136755714D02*
X102243390Y-136803333D01*
X102814819Y-137708095D02*
X102814819Y-137231905D01*
X102814819Y-137231905D02*
X101814819Y-137231905D01*
X102814819Y-138089048D02*
X102814819Y-138279524D01*
X102814819Y-138279524D02*
X102767200Y-138374762D01*
X102767200Y-138374762D02*
X102719580Y-138422381D01*
X102719580Y-138422381D02*
X102576723Y-138517619D01*
X102576723Y-138517619D02*
X102386247Y-138565238D01*
X102386247Y-138565238D02*
X102005295Y-138565238D01*
X102005295Y-138565238D02*
X101910057Y-138517619D01*
X101910057Y-138517619D02*
X101862438Y-138470000D01*
X101862438Y-138470000D02*
X101814819Y-138374762D01*
X101814819Y-138374762D02*
X101814819Y-138184286D01*
X101814819Y-138184286D02*
X101862438Y-138089048D01*
X101862438Y-138089048D02*
X101910057Y-138041429D01*
X101910057Y-138041429D02*
X102005295Y-137993810D01*
X102005295Y-137993810D02*
X102243390Y-137993810D01*
X102243390Y-137993810D02*
X102338628Y-138041429D01*
X102338628Y-138041429D02*
X102386247Y-138089048D01*
X102386247Y-138089048D02*
X102433866Y-138184286D01*
X102433866Y-138184286D02*
X102433866Y-138374762D01*
X102433866Y-138374762D02*
X102386247Y-138470000D01*
X102386247Y-138470000D02*
X102338628Y-138517619D01*
X102338628Y-138517619D02*
X102243390Y-138565238D01*
X101910057Y-138946191D02*
X101862438Y-138993810D01*
X101862438Y-138993810D02*
X101814819Y-139089048D01*
X101814819Y-139089048D02*
X101814819Y-139327143D01*
X101814819Y-139327143D02*
X101862438Y-139422381D01*
X101862438Y-139422381D02*
X101910057Y-139470000D01*
X101910057Y-139470000D02*
X102005295Y-139517619D01*
X102005295Y-139517619D02*
X102100533Y-139517619D01*
X102100533Y-139517619D02*
X102243390Y-139470000D01*
X102243390Y-139470000D02*
X102814819Y-138898572D01*
X102814819Y-138898572D02*
X102814819Y-139517619D01*
X101814819Y-140136667D02*
X101814819Y-140231905D01*
X101814819Y-140231905D02*
X101862438Y-140327143D01*
X101862438Y-140327143D02*
X101910057Y-140374762D01*
X101910057Y-140374762D02*
X102005295Y-140422381D01*
X102005295Y-140422381D02*
X102195771Y-140470000D01*
X102195771Y-140470000D02*
X102433866Y-140470000D01*
X102433866Y-140470000D02*
X102624342Y-140422381D01*
X102624342Y-140422381D02*
X102719580Y-140374762D01*
X102719580Y-140374762D02*
X102767200Y-140327143D01*
X102767200Y-140327143D02*
X102814819Y-140231905D01*
X102814819Y-140231905D02*
X102814819Y-140136667D01*
X102814819Y-140136667D02*
X102767200Y-140041429D01*
X102767200Y-140041429D02*
X102719580Y-139993810D01*
X102719580Y-139993810D02*
X102624342Y-139946191D01*
X102624342Y-139946191D02*
X102433866Y-139898572D01*
X102433866Y-139898572D02*
X102195771Y-139898572D01*
X102195771Y-139898572D02*
X102005295Y-139946191D01*
X102005295Y-139946191D02*
X101910057Y-139993810D01*
X101910057Y-139993810D02*
X101862438Y-140041429D01*
X101862438Y-140041429D02*
X101814819Y-140136667D01*
X101814819Y-141089048D02*
X101814819Y-141184286D01*
X101814819Y-141184286D02*
X101862438Y-141279524D01*
X101862438Y-141279524D02*
X101910057Y-141327143D01*
X101910057Y-141327143D02*
X102005295Y-141374762D01*
X102005295Y-141374762D02*
X102195771Y-141422381D01*
X102195771Y-141422381D02*
X102433866Y-141422381D01*
X102433866Y-141422381D02*
X102624342Y-141374762D01*
X102624342Y-141374762D02*
X102719580Y-141327143D01*
X102719580Y-141327143D02*
X102767200Y-141279524D01*
X102767200Y-141279524D02*
X102814819Y-141184286D01*
X102814819Y-141184286D02*
X102814819Y-141089048D01*
X102814819Y-141089048D02*
X102767200Y-140993810D01*
X102767200Y-140993810D02*
X102719580Y-140946191D01*
X102719580Y-140946191D02*
X102624342Y-140898572D01*
X102624342Y-140898572D02*
X102433866Y-140850953D01*
X102433866Y-140850953D02*
X102195771Y-140850953D01*
X102195771Y-140850953D02*
X102005295Y-140898572D01*
X102005295Y-140898572D02*
X101910057Y-140946191D01*
X101910057Y-140946191D02*
X101862438Y-140993810D01*
X101862438Y-140993810D02*
X101814819Y-141089048D01*
X102433866Y-141850953D02*
X102433866Y-142612858D01*
X101814819Y-143279524D02*
X101814819Y-143374762D01*
X101814819Y-143374762D02*
X101862438Y-143470000D01*
X101862438Y-143470000D02*
X101910057Y-143517619D01*
X101910057Y-143517619D02*
X102005295Y-143565238D01*
X102005295Y-143565238D02*
X102195771Y-143612857D01*
X102195771Y-143612857D02*
X102433866Y-143612857D01*
X102433866Y-143612857D02*
X102624342Y-143565238D01*
X102624342Y-143565238D02*
X102719580Y-143517619D01*
X102719580Y-143517619D02*
X102767200Y-143470000D01*
X102767200Y-143470000D02*
X102814819Y-143374762D01*
X102814819Y-143374762D02*
X102814819Y-143279524D01*
X102814819Y-143279524D02*
X102767200Y-143184286D01*
X102767200Y-143184286D02*
X102719580Y-143136667D01*
X102719580Y-143136667D02*
X102624342Y-143089048D01*
X102624342Y-143089048D02*
X102433866Y-143041429D01*
X102433866Y-143041429D02*
X102195771Y-143041429D01*
X102195771Y-143041429D02*
X102005295Y-143089048D01*
X102005295Y-143089048D02*
X101910057Y-143136667D01*
X101910057Y-143136667D02*
X101862438Y-143184286D01*
X101862438Y-143184286D02*
X101814819Y-143279524D01*
X101814819Y-144517619D02*
X101814819Y-144041429D01*
X101814819Y-144041429D02*
X102291009Y-143993810D01*
X102291009Y-143993810D02*
X102243390Y-144041429D01*
X102243390Y-144041429D02*
X102195771Y-144136667D01*
X102195771Y-144136667D02*
X102195771Y-144374762D01*
X102195771Y-144374762D02*
X102243390Y-144470000D01*
X102243390Y-144470000D02*
X102291009Y-144517619D01*
X102291009Y-144517619D02*
X102386247Y-144565238D01*
X102386247Y-144565238D02*
X102624342Y-144565238D01*
X102624342Y-144565238D02*
X102719580Y-144517619D01*
X102719580Y-144517619D02*
X102767200Y-144470000D01*
X102767200Y-144470000D02*
X102814819Y-144374762D01*
X102814819Y-144374762D02*
X102814819Y-144136667D01*
X102814819Y-144136667D02*
X102767200Y-144041429D01*
X102767200Y-144041429D02*
X102719580Y-143993810D01*
X68044819Y-91847857D02*
X68044819Y-91943095D01*
X68044819Y-91943095D02*
X68092438Y-92038333D01*
X68092438Y-92038333D02*
X68140057Y-92085952D01*
X68140057Y-92085952D02*
X68235295Y-92133571D01*
X68235295Y-92133571D02*
X68425771Y-92181190D01*
X68425771Y-92181190D02*
X68663866Y-92181190D01*
X68663866Y-92181190D02*
X68854342Y-92133571D01*
X68854342Y-92133571D02*
X68949580Y-92085952D01*
X68949580Y-92085952D02*
X68997200Y-92038333D01*
X68997200Y-92038333D02*
X69044819Y-91943095D01*
X69044819Y-91943095D02*
X69044819Y-91847857D01*
X69044819Y-91847857D02*
X68997200Y-91752619D01*
X68997200Y-91752619D02*
X68949580Y-91705000D01*
X68949580Y-91705000D02*
X68854342Y-91657381D01*
X68854342Y-91657381D02*
X68663866Y-91609762D01*
X68663866Y-91609762D02*
X68425771Y-91609762D01*
X68425771Y-91609762D02*
X68235295Y-91657381D01*
X68235295Y-91657381D02*
X68140057Y-91705000D01*
X68140057Y-91705000D02*
X68092438Y-91752619D01*
X68092438Y-91752619D02*
X68044819Y-91847857D01*
X68044819Y-93038333D02*
X68044819Y-92847857D01*
X68044819Y-92847857D02*
X68092438Y-92752619D01*
X68092438Y-92752619D02*
X68140057Y-92705000D01*
X68140057Y-92705000D02*
X68282914Y-92609762D01*
X68282914Y-92609762D02*
X68473390Y-92562143D01*
X68473390Y-92562143D02*
X68854342Y-92562143D01*
X68854342Y-92562143D02*
X68949580Y-92609762D01*
X68949580Y-92609762D02*
X68997200Y-92657381D01*
X68997200Y-92657381D02*
X69044819Y-92752619D01*
X69044819Y-92752619D02*
X69044819Y-92943095D01*
X69044819Y-92943095D02*
X68997200Y-93038333D01*
X68997200Y-93038333D02*
X68949580Y-93085952D01*
X68949580Y-93085952D02*
X68854342Y-93133571D01*
X68854342Y-93133571D02*
X68616247Y-93133571D01*
X68616247Y-93133571D02*
X68521009Y-93085952D01*
X68521009Y-93085952D02*
X68473390Y-93038333D01*
X68473390Y-93038333D02*
X68425771Y-92943095D01*
X68425771Y-92943095D02*
X68425771Y-92752619D01*
X68425771Y-92752619D02*
X68473390Y-92657381D01*
X68473390Y-92657381D02*
X68521009Y-92609762D01*
X68521009Y-92609762D02*
X68616247Y-92562143D01*
X68044819Y-93466905D02*
X68044819Y-94133571D01*
X68044819Y-94133571D02*
X69044819Y-93705000D01*
X69044819Y-94562143D02*
X69044819Y-94752619D01*
X69044819Y-94752619D02*
X68997200Y-94847857D01*
X68997200Y-94847857D02*
X68949580Y-94895476D01*
X68949580Y-94895476D02*
X68806723Y-94990714D01*
X68806723Y-94990714D02*
X68616247Y-95038333D01*
X68616247Y-95038333D02*
X68235295Y-95038333D01*
X68235295Y-95038333D02*
X68140057Y-94990714D01*
X68140057Y-94990714D02*
X68092438Y-94943095D01*
X68092438Y-94943095D02*
X68044819Y-94847857D01*
X68044819Y-94847857D02*
X68044819Y-94657381D01*
X68044819Y-94657381D02*
X68092438Y-94562143D01*
X68092438Y-94562143D02*
X68140057Y-94514524D01*
X68140057Y-94514524D02*
X68235295Y-94466905D01*
X68235295Y-94466905D02*
X68473390Y-94466905D01*
X68473390Y-94466905D02*
X68568628Y-94514524D01*
X68568628Y-94514524D02*
X68616247Y-94562143D01*
X68616247Y-94562143D02*
X68663866Y-94657381D01*
X68663866Y-94657381D02*
X68663866Y-94847857D01*
X68663866Y-94847857D02*
X68616247Y-94943095D01*
X68616247Y-94943095D02*
X68568628Y-94990714D01*
X68568628Y-94990714D02*
X68473390Y-95038333D01*
X69044819Y-95943095D02*
X69044819Y-95466905D01*
X69044819Y-95466905D02*
X68044819Y-95466905D01*
X69044819Y-96800238D02*
X69044819Y-96228810D01*
X69044819Y-96514524D02*
X68044819Y-96514524D01*
X68044819Y-96514524D02*
X68187676Y-96419286D01*
X68187676Y-96419286D02*
X68282914Y-96324048D01*
X68282914Y-96324048D02*
X68330533Y-96228810D01*
X68044819Y-97419286D02*
X68044819Y-97514524D01*
X68044819Y-97514524D02*
X68092438Y-97609762D01*
X68092438Y-97609762D02*
X68140057Y-97657381D01*
X68140057Y-97657381D02*
X68235295Y-97705000D01*
X68235295Y-97705000D02*
X68425771Y-97752619D01*
X68425771Y-97752619D02*
X68663866Y-97752619D01*
X68663866Y-97752619D02*
X68854342Y-97705000D01*
X68854342Y-97705000D02*
X68949580Y-97657381D01*
X68949580Y-97657381D02*
X68997200Y-97609762D01*
X68997200Y-97609762D02*
X69044819Y-97514524D01*
X69044819Y-97514524D02*
X69044819Y-97419286D01*
X69044819Y-97419286D02*
X68997200Y-97324048D01*
X68997200Y-97324048D02*
X68949580Y-97276429D01*
X68949580Y-97276429D02*
X68854342Y-97228810D01*
X68854342Y-97228810D02*
X68663866Y-97181191D01*
X68663866Y-97181191D02*
X68425771Y-97181191D01*
X68425771Y-97181191D02*
X68235295Y-97228810D01*
X68235295Y-97228810D02*
X68140057Y-97276429D01*
X68140057Y-97276429D02*
X68092438Y-97324048D01*
X68092438Y-97324048D02*
X68044819Y-97419286D01*
X68044819Y-98371667D02*
X68044819Y-98466905D01*
X68044819Y-98466905D02*
X68092438Y-98562143D01*
X68092438Y-98562143D02*
X68140057Y-98609762D01*
X68140057Y-98609762D02*
X68235295Y-98657381D01*
X68235295Y-98657381D02*
X68425771Y-98705000D01*
X68425771Y-98705000D02*
X68663866Y-98705000D01*
X68663866Y-98705000D02*
X68854342Y-98657381D01*
X68854342Y-98657381D02*
X68949580Y-98609762D01*
X68949580Y-98609762D02*
X68997200Y-98562143D01*
X68997200Y-98562143D02*
X69044819Y-98466905D01*
X69044819Y-98466905D02*
X69044819Y-98371667D01*
X69044819Y-98371667D02*
X68997200Y-98276429D01*
X68997200Y-98276429D02*
X68949580Y-98228810D01*
X68949580Y-98228810D02*
X68854342Y-98181191D01*
X68854342Y-98181191D02*
X68663866Y-98133572D01*
X68663866Y-98133572D02*
X68425771Y-98133572D01*
X68425771Y-98133572D02*
X68235295Y-98181191D01*
X68235295Y-98181191D02*
X68140057Y-98228810D01*
X68140057Y-98228810D02*
X68092438Y-98276429D01*
X68092438Y-98276429D02*
X68044819Y-98371667D01*
X68044819Y-99324048D02*
X68044819Y-99419286D01*
X68044819Y-99419286D02*
X68092438Y-99514524D01*
X68092438Y-99514524D02*
X68140057Y-99562143D01*
X68140057Y-99562143D02*
X68235295Y-99609762D01*
X68235295Y-99609762D02*
X68425771Y-99657381D01*
X68425771Y-99657381D02*
X68663866Y-99657381D01*
X68663866Y-99657381D02*
X68854342Y-99609762D01*
X68854342Y-99609762D02*
X68949580Y-99562143D01*
X68949580Y-99562143D02*
X68997200Y-99514524D01*
X68997200Y-99514524D02*
X69044819Y-99419286D01*
X69044819Y-99419286D02*
X69044819Y-99324048D01*
X69044819Y-99324048D02*
X68997200Y-99228810D01*
X68997200Y-99228810D02*
X68949580Y-99181191D01*
X68949580Y-99181191D02*
X68854342Y-99133572D01*
X68854342Y-99133572D02*
X68663866Y-99085953D01*
X68663866Y-99085953D02*
X68425771Y-99085953D01*
X68425771Y-99085953D02*
X68235295Y-99133572D01*
X68235295Y-99133572D02*
X68140057Y-99181191D01*
X68140057Y-99181191D02*
X68092438Y-99228810D01*
X68092438Y-99228810D02*
X68044819Y-99324048D01*
X68663866Y-100085953D02*
X68663866Y-100847858D01*
X68044819Y-101514524D02*
X68044819Y-101609762D01*
X68044819Y-101609762D02*
X68092438Y-101705000D01*
X68092438Y-101705000D02*
X68140057Y-101752619D01*
X68140057Y-101752619D02*
X68235295Y-101800238D01*
X68235295Y-101800238D02*
X68425771Y-101847857D01*
X68425771Y-101847857D02*
X68663866Y-101847857D01*
X68663866Y-101847857D02*
X68854342Y-101800238D01*
X68854342Y-101800238D02*
X68949580Y-101752619D01*
X68949580Y-101752619D02*
X68997200Y-101705000D01*
X68997200Y-101705000D02*
X69044819Y-101609762D01*
X69044819Y-101609762D02*
X69044819Y-101514524D01*
X69044819Y-101514524D02*
X68997200Y-101419286D01*
X68997200Y-101419286D02*
X68949580Y-101371667D01*
X68949580Y-101371667D02*
X68854342Y-101324048D01*
X68854342Y-101324048D02*
X68663866Y-101276429D01*
X68663866Y-101276429D02*
X68425771Y-101276429D01*
X68425771Y-101276429D02*
X68235295Y-101324048D01*
X68235295Y-101324048D02*
X68140057Y-101371667D01*
X68140057Y-101371667D02*
X68092438Y-101419286D01*
X68092438Y-101419286D02*
X68044819Y-101514524D01*
X68044819Y-102752619D02*
X68044819Y-102276429D01*
X68044819Y-102276429D02*
X68521009Y-102228810D01*
X68521009Y-102228810D02*
X68473390Y-102276429D01*
X68473390Y-102276429D02*
X68425771Y-102371667D01*
X68425771Y-102371667D02*
X68425771Y-102609762D01*
X68425771Y-102609762D02*
X68473390Y-102705000D01*
X68473390Y-102705000D02*
X68521009Y-102752619D01*
X68521009Y-102752619D02*
X68616247Y-102800238D01*
X68616247Y-102800238D02*
X68854342Y-102800238D01*
X68854342Y-102800238D02*
X68949580Y-102752619D01*
X68949580Y-102752619D02*
X68997200Y-102705000D01*
X68997200Y-102705000D02*
X69044819Y-102609762D01*
X69044819Y-102609762D02*
X69044819Y-102371667D01*
X69044819Y-102371667D02*
X68997200Y-102276429D01*
X68997200Y-102276429D02*
X68949580Y-102228810D01*
X217047619Y-77431009D02*
X217380952Y-77431009D01*
X217380952Y-77954819D02*
X217380952Y-76954819D01*
X217380952Y-76954819D02*
X216904762Y-76954819D01*
X216000000Y-77002438D02*
X216095238Y-76954819D01*
X216095238Y-76954819D02*
X216238095Y-76954819D01*
X216238095Y-76954819D02*
X216380952Y-77002438D01*
X216380952Y-77002438D02*
X216476190Y-77097676D01*
X216476190Y-77097676D02*
X216523809Y-77192914D01*
X216523809Y-77192914D02*
X216571428Y-77383390D01*
X216571428Y-77383390D02*
X216571428Y-77526247D01*
X216571428Y-77526247D02*
X216523809Y-77716723D01*
X216523809Y-77716723D02*
X216476190Y-77811961D01*
X216476190Y-77811961D02*
X216380952Y-77907200D01*
X216380952Y-77907200D02*
X216238095Y-77954819D01*
X216238095Y-77954819D02*
X216142857Y-77954819D01*
X216142857Y-77954819D02*
X216000000Y-77907200D01*
X216000000Y-77907200D02*
X215952381Y-77859580D01*
X215952381Y-77859580D02*
X215952381Y-77526247D01*
X215952381Y-77526247D02*
X216142857Y-77526247D01*
X215571428Y-77050057D02*
X215523809Y-77002438D01*
X215523809Y-77002438D02*
X215428571Y-76954819D01*
X215428571Y-76954819D02*
X215190476Y-76954819D01*
X215190476Y-76954819D02*
X215095238Y-77002438D01*
X215095238Y-77002438D02*
X215047619Y-77050057D01*
X215047619Y-77050057D02*
X215000000Y-77145295D01*
X215000000Y-77145295D02*
X215000000Y-77240533D01*
X215000000Y-77240533D02*
X215047619Y-77383390D01*
X215047619Y-77383390D02*
X215619047Y-77954819D01*
X215619047Y-77954819D02*
X215000000Y-77954819D01*
X214428571Y-77383390D02*
X214523809Y-77335771D01*
X214523809Y-77335771D02*
X214571428Y-77288152D01*
X214571428Y-77288152D02*
X214619047Y-77192914D01*
X214619047Y-77192914D02*
X214619047Y-77145295D01*
X214619047Y-77145295D02*
X214571428Y-77050057D01*
X214571428Y-77050057D02*
X214523809Y-77002438D01*
X214523809Y-77002438D02*
X214428571Y-76954819D01*
X214428571Y-76954819D02*
X214238095Y-76954819D01*
X214238095Y-76954819D02*
X214142857Y-77002438D01*
X214142857Y-77002438D02*
X214095238Y-77050057D01*
X214095238Y-77050057D02*
X214047619Y-77145295D01*
X214047619Y-77145295D02*
X214047619Y-77192914D01*
X214047619Y-77192914D02*
X214095238Y-77288152D01*
X214095238Y-77288152D02*
X214142857Y-77335771D01*
X214142857Y-77335771D02*
X214238095Y-77383390D01*
X214238095Y-77383390D02*
X214428571Y-77383390D01*
X214428571Y-77383390D02*
X214523809Y-77431009D01*
X214523809Y-77431009D02*
X214571428Y-77478628D01*
X214571428Y-77478628D02*
X214619047Y-77573866D01*
X214619047Y-77573866D02*
X214619047Y-77764342D01*
X214619047Y-77764342D02*
X214571428Y-77859580D01*
X214571428Y-77859580D02*
X214523809Y-77907200D01*
X214523809Y-77907200D02*
X214428571Y-77954819D01*
X214428571Y-77954819D02*
X214238095Y-77954819D01*
X214238095Y-77954819D02*
X214142857Y-77907200D01*
X214142857Y-77907200D02*
X214095238Y-77859580D01*
X214095238Y-77859580D02*
X214047619Y-77764342D01*
X214047619Y-77764342D02*
X214047619Y-77573866D01*
X214047619Y-77573866D02*
X214095238Y-77478628D01*
X214095238Y-77478628D02*
X214142857Y-77431009D01*
X214142857Y-77431009D02*
X214238095Y-77383390D01*
X213714285Y-76954819D02*
X213047619Y-77954819D01*
X213047619Y-76954819D02*
X213714285Y-77954819D01*
X212761904Y-76954819D02*
X212095238Y-76954819D01*
X212095238Y-76954819D02*
X212523809Y-77954819D01*
X211142857Y-77954819D02*
X211476190Y-77478628D01*
X211714285Y-77954819D02*
X211714285Y-76954819D01*
X211714285Y-76954819D02*
X211333333Y-76954819D01*
X211333333Y-76954819D02*
X211238095Y-77002438D01*
X211238095Y-77002438D02*
X211190476Y-77050057D01*
X211190476Y-77050057D02*
X211142857Y-77145295D01*
X211142857Y-77145295D02*
X211142857Y-77288152D01*
X211142857Y-77288152D02*
X211190476Y-77383390D01*
X211190476Y-77383390D02*
X211238095Y-77431009D01*
X211238095Y-77431009D02*
X211333333Y-77478628D01*
X211333333Y-77478628D02*
X211714285Y-77478628D01*
X210190476Y-77954819D02*
X210761904Y-77954819D01*
X210476190Y-77954819D02*
X210476190Y-76954819D01*
X210476190Y-76954819D02*
X210571428Y-77097676D01*
X210571428Y-77097676D02*
X210666666Y-77192914D01*
X210666666Y-77192914D02*
X210761904Y-77240533D01*
X209761904Y-77954819D02*
X209761904Y-76954819D01*
X209761904Y-77431009D02*
X209190476Y-77431009D01*
X209190476Y-77954819D02*
X209190476Y-76954819D01*
X208190476Y-77954819D02*
X208761904Y-77954819D01*
X208476190Y-77954819D02*
X208476190Y-76954819D01*
X208476190Y-76954819D02*
X208571428Y-77097676D01*
X208571428Y-77097676D02*
X208666666Y-77192914D01*
X208666666Y-77192914D02*
X208761904Y-77240533D01*
X207571428Y-76954819D02*
X207476190Y-76954819D01*
X207476190Y-76954819D02*
X207380952Y-77002438D01*
X207380952Y-77002438D02*
X207333333Y-77050057D01*
X207333333Y-77050057D02*
X207285714Y-77145295D01*
X207285714Y-77145295D02*
X207238095Y-77335771D01*
X207238095Y-77335771D02*
X207238095Y-77573866D01*
X207238095Y-77573866D02*
X207285714Y-77764342D01*
X207285714Y-77764342D02*
X207333333Y-77859580D01*
X207333333Y-77859580D02*
X207380952Y-77907200D01*
X207380952Y-77907200D02*
X207476190Y-77954819D01*
X207476190Y-77954819D02*
X207571428Y-77954819D01*
X207571428Y-77954819D02*
X207666666Y-77907200D01*
X207666666Y-77907200D02*
X207714285Y-77859580D01*
X207714285Y-77859580D02*
X207761904Y-77764342D01*
X207761904Y-77764342D02*
X207809523Y-77573866D01*
X207809523Y-77573866D02*
X207809523Y-77335771D01*
X207809523Y-77335771D02*
X207761904Y-77145295D01*
X207761904Y-77145295D02*
X207714285Y-77050057D01*
X207714285Y-77050057D02*
X207666666Y-77002438D01*
X207666666Y-77002438D02*
X207571428Y-76954819D01*
X206380952Y-77288152D02*
X206380952Y-77954819D01*
X206619047Y-76907200D02*
X206857142Y-77621485D01*
X206857142Y-77621485D02*
X206238095Y-77621485D01*
X205857142Y-77954819D02*
X205857142Y-76954819D01*
X205285714Y-77954819D02*
X205714285Y-77383390D01*
X205285714Y-76954819D02*
X205857142Y-77526247D01*
X204857142Y-77954819D02*
X204857142Y-76954819D01*
X204857142Y-76954819D02*
X204285714Y-77954819D01*
X204285714Y-77954819D02*
X204285714Y-76954819D01*
X203952380Y-76954819D02*
X203380952Y-76954819D01*
X203666666Y-77954819D02*
X203666666Y-76954819D01*
X202857142Y-76954819D02*
X202761904Y-76954819D01*
X202761904Y-76954819D02*
X202666666Y-77002438D01*
X202666666Y-77002438D02*
X202619047Y-77050057D01*
X202619047Y-77050057D02*
X202571428Y-77145295D01*
X202571428Y-77145295D02*
X202523809Y-77335771D01*
X202523809Y-77335771D02*
X202523809Y-77573866D01*
X202523809Y-77573866D02*
X202571428Y-77764342D01*
X202571428Y-77764342D02*
X202619047Y-77859580D01*
X202619047Y-77859580D02*
X202666666Y-77907200D01*
X202666666Y-77907200D02*
X202761904Y-77954819D01*
X202761904Y-77954819D02*
X202857142Y-77954819D01*
X202857142Y-77954819D02*
X202952380Y-77907200D01*
X202952380Y-77907200D02*
X202999999Y-77859580D01*
X202999999Y-77859580D02*
X203047618Y-77764342D01*
X203047618Y-77764342D02*
X203095237Y-77573866D01*
X203095237Y-77573866D02*
X203095237Y-77335771D01*
X203095237Y-77335771D02*
X203047618Y-77145295D01*
X203047618Y-77145295D02*
X202999999Y-77050057D01*
X202999999Y-77050057D02*
X202952380Y-77002438D01*
X202952380Y-77002438D02*
X202857142Y-76954819D01*
X201666666Y-76954819D02*
X201857142Y-76954819D01*
X201857142Y-76954819D02*
X201952380Y-77002438D01*
X201952380Y-77002438D02*
X201999999Y-77050057D01*
X201999999Y-77050057D02*
X202095237Y-77192914D01*
X202095237Y-77192914D02*
X202142856Y-77383390D01*
X202142856Y-77383390D02*
X202142856Y-77764342D01*
X202142856Y-77764342D02*
X202095237Y-77859580D01*
X202095237Y-77859580D02*
X202047618Y-77907200D01*
X202047618Y-77907200D02*
X201952380Y-77954819D01*
X201952380Y-77954819D02*
X201761904Y-77954819D01*
X201761904Y-77954819D02*
X201666666Y-77907200D01*
X201666666Y-77907200D02*
X201619047Y-77859580D01*
X201619047Y-77859580D02*
X201571428Y-77764342D01*
X201571428Y-77764342D02*
X201571428Y-77526247D01*
X201571428Y-77526247D02*
X201619047Y-77431009D01*
X201619047Y-77431009D02*
X201666666Y-77383390D01*
X201666666Y-77383390D02*
X201761904Y-77335771D01*
X201761904Y-77335771D02*
X201952380Y-77335771D01*
X201952380Y-77335771D02*
X202047618Y-77383390D01*
X202047618Y-77383390D02*
X202095237Y-77431009D01*
X202095237Y-77431009D02*
X202142856Y-77526247D01*
X70457200Y-88515167D02*
X70504819Y-88658024D01*
X70504819Y-88658024D02*
X70504819Y-88896119D01*
X70504819Y-88896119D02*
X70457200Y-88991357D01*
X70457200Y-88991357D02*
X70409580Y-89038976D01*
X70409580Y-89038976D02*
X70314342Y-89086595D01*
X70314342Y-89086595D02*
X70219104Y-89086595D01*
X70219104Y-89086595D02*
X70123866Y-89038976D01*
X70123866Y-89038976D02*
X70076247Y-88991357D01*
X70076247Y-88991357D02*
X70028628Y-88896119D01*
X70028628Y-88896119D02*
X69981009Y-88705643D01*
X69981009Y-88705643D02*
X69933390Y-88610405D01*
X69933390Y-88610405D02*
X69885771Y-88562786D01*
X69885771Y-88562786D02*
X69790533Y-88515167D01*
X69790533Y-88515167D02*
X69695295Y-88515167D01*
X69695295Y-88515167D02*
X69600057Y-88562786D01*
X69600057Y-88562786D02*
X69552438Y-88610405D01*
X69552438Y-88610405D02*
X69504819Y-88705643D01*
X69504819Y-88705643D02*
X69504819Y-88943738D01*
X69504819Y-88943738D02*
X69552438Y-89086595D01*
X70219104Y-89467548D02*
X70219104Y-89943738D01*
X70504819Y-89372310D02*
X69504819Y-89705643D01*
X69504819Y-89705643D02*
X70504819Y-90038976D01*
X69504819Y-90800881D02*
X69504819Y-90610405D01*
X69504819Y-90610405D02*
X69552438Y-90515167D01*
X69552438Y-90515167D02*
X69600057Y-90467548D01*
X69600057Y-90467548D02*
X69742914Y-90372310D01*
X69742914Y-90372310D02*
X69933390Y-90324691D01*
X69933390Y-90324691D02*
X70314342Y-90324691D01*
X70314342Y-90324691D02*
X70409580Y-90372310D01*
X70409580Y-90372310D02*
X70457200Y-90419929D01*
X70457200Y-90419929D02*
X70504819Y-90515167D01*
X70504819Y-90515167D02*
X70504819Y-90705643D01*
X70504819Y-90705643D02*
X70457200Y-90800881D01*
X70457200Y-90800881D02*
X70409580Y-90848500D01*
X70409580Y-90848500D02*
X70314342Y-90896119D01*
X70314342Y-90896119D02*
X70076247Y-90896119D01*
X70076247Y-90896119D02*
X69981009Y-90848500D01*
X69981009Y-90848500D02*
X69933390Y-90800881D01*
X69933390Y-90800881D02*
X69885771Y-90705643D01*
X69885771Y-90705643D02*
X69885771Y-90515167D01*
X69885771Y-90515167D02*
X69933390Y-90419929D01*
X69933390Y-90419929D02*
X69981009Y-90372310D01*
X69981009Y-90372310D02*
X70076247Y-90324691D01*
X70409580Y-91324691D02*
X70457200Y-91372310D01*
X70457200Y-91372310D02*
X70504819Y-91324691D01*
X70504819Y-91324691D02*
X70457200Y-91277072D01*
X70457200Y-91277072D02*
X70409580Y-91324691D01*
X70409580Y-91324691D02*
X70504819Y-91324691D01*
X69504819Y-91991357D02*
X69504819Y-92086595D01*
X69504819Y-92086595D02*
X69552438Y-92181833D01*
X69552438Y-92181833D02*
X69600057Y-92229452D01*
X69600057Y-92229452D02*
X69695295Y-92277071D01*
X69695295Y-92277071D02*
X69885771Y-92324690D01*
X69885771Y-92324690D02*
X70123866Y-92324690D01*
X70123866Y-92324690D02*
X70314342Y-92277071D01*
X70314342Y-92277071D02*
X70409580Y-92229452D01*
X70409580Y-92229452D02*
X70457200Y-92181833D01*
X70457200Y-92181833D02*
X70504819Y-92086595D01*
X70504819Y-92086595D02*
X70504819Y-91991357D01*
X70504819Y-91991357D02*
X70457200Y-91896119D01*
X70457200Y-91896119D02*
X70409580Y-91848500D01*
X70409580Y-91848500D02*
X70314342Y-91800881D01*
X70314342Y-91800881D02*
X70123866Y-91753262D01*
X70123866Y-91753262D02*
X69885771Y-91753262D01*
X69885771Y-91753262D02*
X69695295Y-91800881D01*
X69695295Y-91800881D02*
X69600057Y-91848500D01*
X69600057Y-91848500D02*
X69552438Y-91896119D01*
X69552438Y-91896119D02*
X69504819Y-91991357D01*
X70219104Y-92705643D02*
X70219104Y-93181833D01*
X70504819Y-92610405D02*
X69504819Y-92943738D01*
X69504819Y-92943738D02*
X70504819Y-93277071D01*
X70504819Y-90110405D02*
X69504819Y-90110405D01*
X69504819Y-90110405D02*
X69504819Y-90348500D01*
X69504819Y-90348500D02*
X69552438Y-90491357D01*
X69552438Y-90491357D02*
X69647676Y-90586595D01*
X69647676Y-90586595D02*
X69742914Y-90634214D01*
X69742914Y-90634214D02*
X69933390Y-90681833D01*
X69933390Y-90681833D02*
X70076247Y-90681833D01*
X70076247Y-90681833D02*
X70266723Y-90634214D01*
X70266723Y-90634214D02*
X70361961Y-90586595D01*
X70361961Y-90586595D02*
X70457200Y-90491357D01*
X70457200Y-90491357D02*
X70504819Y-90348500D01*
X70504819Y-90348500D02*
X70504819Y-90110405D01*
X69933390Y-91253262D02*
X69885771Y-91158024D01*
X69885771Y-91158024D02*
X69838152Y-91110405D01*
X69838152Y-91110405D02*
X69742914Y-91062786D01*
X69742914Y-91062786D02*
X69695295Y-91062786D01*
X69695295Y-91062786D02*
X69600057Y-91110405D01*
X69600057Y-91110405D02*
X69552438Y-91158024D01*
X69552438Y-91158024D02*
X69504819Y-91253262D01*
X69504819Y-91253262D02*
X69504819Y-91443738D01*
X69504819Y-91443738D02*
X69552438Y-91538976D01*
X69552438Y-91538976D02*
X69600057Y-91586595D01*
X69600057Y-91586595D02*
X69695295Y-91634214D01*
X69695295Y-91634214D02*
X69742914Y-91634214D01*
X69742914Y-91634214D02*
X69838152Y-91586595D01*
X69838152Y-91586595D02*
X69885771Y-91538976D01*
X69885771Y-91538976D02*
X69933390Y-91443738D01*
X69933390Y-91443738D02*
X69933390Y-91253262D01*
X69933390Y-91253262D02*
X69981009Y-91158024D01*
X69981009Y-91158024D02*
X70028628Y-91110405D01*
X70028628Y-91110405D02*
X70123866Y-91062786D01*
X70123866Y-91062786D02*
X70314342Y-91062786D01*
X70314342Y-91062786D02*
X70409580Y-91110405D01*
X70409580Y-91110405D02*
X70457200Y-91158024D01*
X70457200Y-91158024D02*
X70504819Y-91253262D01*
X70504819Y-91253262D02*
X70504819Y-91443738D01*
X70504819Y-91443738D02*
X70457200Y-91538976D01*
X70457200Y-91538976D02*
X70409580Y-91586595D01*
X70409580Y-91586595D02*
X70314342Y-91634214D01*
X70314342Y-91634214D02*
X70123866Y-91634214D01*
X70123866Y-91634214D02*
X70028628Y-91586595D01*
X70028628Y-91586595D02*
X69981009Y-91538976D01*
X69981009Y-91538976D02*
X69933390Y-91443738D01*
D11*
X62793099Y-85241414D02*
X62793099Y-84847713D01*
X62568127Y-85241414D02*
X62736856Y-85016442D01*
X62568127Y-84847713D02*
X62793099Y-85072685D01*
X62174426Y-85241414D02*
X62305660Y-85053938D01*
X62399398Y-85241414D02*
X62399398Y-84847713D01*
X62399398Y-84847713D02*
X62249417Y-84847713D01*
X62249417Y-84847713D02*
X62211922Y-84866461D01*
X62211922Y-84866461D02*
X62193174Y-84885209D01*
X62193174Y-84885209D02*
X62174426Y-84922704D01*
X62174426Y-84922704D02*
X62174426Y-84978947D01*
X62174426Y-84978947D02*
X62193174Y-85016442D01*
X62193174Y-85016442D02*
X62211922Y-85035190D01*
X62211922Y-85035190D02*
X62249417Y-85053938D01*
X62249417Y-85053938D02*
X62399398Y-85053938D01*
X62005697Y-85241414D02*
X62005697Y-84847713D01*
X62005697Y-84847713D02*
X61874464Y-85128928D01*
X61874464Y-85128928D02*
X61743230Y-84847713D01*
X61743230Y-84847713D02*
X61743230Y-85241414D01*
X61368277Y-84847713D02*
X61555753Y-84847713D01*
X61555753Y-84847713D02*
X61574501Y-85035190D01*
X61574501Y-85035190D02*
X61555753Y-85016442D01*
X61555753Y-85016442D02*
X61518258Y-84997695D01*
X61518258Y-84997695D02*
X61424520Y-84997695D01*
X61424520Y-84997695D02*
X61387024Y-85016442D01*
X61387024Y-85016442D02*
X61368277Y-85035190D01*
X61368277Y-85035190D02*
X61349529Y-85072685D01*
X61349529Y-85072685D02*
X61349529Y-85166424D01*
X61349529Y-85166424D02*
X61368277Y-85203919D01*
X61368277Y-85203919D02*
X61387024Y-85222667D01*
X61387024Y-85222667D02*
X61424520Y-85241414D01*
X61424520Y-85241414D02*
X61518258Y-85241414D01*
X61518258Y-85241414D02*
X61555753Y-85222667D01*
X61555753Y-85222667D02*
X61574501Y-85203919D01*
X60993324Y-84847713D02*
X61180800Y-84847713D01*
X61180800Y-84847713D02*
X61199548Y-85035190D01*
X61199548Y-85035190D02*
X61180800Y-85016442D01*
X61180800Y-85016442D02*
X61143305Y-84997695D01*
X61143305Y-84997695D02*
X61049567Y-84997695D01*
X61049567Y-84997695D02*
X61012071Y-85016442D01*
X61012071Y-85016442D02*
X60993324Y-85035190D01*
X60993324Y-85035190D02*
X60974576Y-85072685D01*
X60974576Y-85072685D02*
X60974576Y-85166424D01*
X60974576Y-85166424D02*
X60993324Y-85203919D01*
X60993324Y-85203919D02*
X61012071Y-85222667D01*
X61012071Y-85222667D02*
X61049567Y-85241414D01*
X61049567Y-85241414D02*
X61143305Y-85241414D01*
X61143305Y-85241414D02*
X61180800Y-85222667D01*
X61180800Y-85222667D02*
X61199548Y-85203919D01*
X60843343Y-84847713D02*
X60749604Y-85241414D01*
X60749604Y-85241414D02*
X60674614Y-84960199D01*
X60674614Y-84960199D02*
X60599623Y-85241414D01*
X60599623Y-85241414D02*
X60505885Y-84847713D01*
X60130931Y-85203919D02*
X60149679Y-85222667D01*
X60149679Y-85222667D02*
X60205922Y-85241414D01*
X60205922Y-85241414D02*
X60243417Y-85241414D01*
X60243417Y-85241414D02*
X60299660Y-85222667D01*
X60299660Y-85222667D02*
X60337156Y-85185171D01*
X60337156Y-85185171D02*
X60355903Y-85147676D01*
X60355903Y-85147676D02*
X60374651Y-85072685D01*
X60374651Y-85072685D02*
X60374651Y-85016442D01*
X60374651Y-85016442D02*
X60355903Y-84941452D01*
X60355903Y-84941452D02*
X60337156Y-84903956D01*
X60337156Y-84903956D02*
X60299660Y-84866461D01*
X60299660Y-84866461D02*
X60243417Y-84847713D01*
X60243417Y-84847713D02*
X60205922Y-84847713D01*
X60205922Y-84847713D02*
X60149679Y-84866461D01*
X60149679Y-84866461D02*
X60130931Y-84885209D01*
X59999698Y-84847713D02*
X59737230Y-84847713D01*
X59737230Y-84847713D02*
X59905959Y-85241414D01*
X59381025Y-85241414D02*
X59605997Y-85241414D01*
X59493511Y-85241414D02*
X59493511Y-84847713D01*
X59493511Y-84847713D02*
X59531006Y-84903956D01*
X59531006Y-84903956D02*
X59568502Y-84941452D01*
X59568502Y-84941452D02*
X59605997Y-84960199D01*
X59212296Y-85035190D02*
X59081063Y-85035190D01*
X59024820Y-85241414D02*
X59212296Y-85241414D01*
X59212296Y-85241414D02*
X59212296Y-84847713D01*
X59212296Y-84847713D02*
X59024820Y-84847713D01*
X58649866Y-85241414D02*
X58874838Y-85241414D01*
X58762352Y-85241414D02*
X58762352Y-84847713D01*
X58762352Y-84847713D02*
X58799847Y-84903956D01*
X58799847Y-84903956D02*
X58837343Y-84941452D01*
X58837343Y-84941452D02*
X58874838Y-84960199D01*
X58406147Y-84847713D02*
X58368651Y-84847713D01*
X58368651Y-84847713D02*
X58331156Y-84866461D01*
X58331156Y-84866461D02*
X58312408Y-84885209D01*
X58312408Y-84885209D02*
X58293661Y-84922704D01*
X58293661Y-84922704D02*
X58274913Y-84997695D01*
X58274913Y-84997695D02*
X58274913Y-85091433D01*
X58274913Y-85091433D02*
X58293661Y-85166424D01*
X58293661Y-85166424D02*
X58312408Y-85203919D01*
X58312408Y-85203919D02*
X58331156Y-85222667D01*
X58331156Y-85222667D02*
X58368651Y-85241414D01*
X58368651Y-85241414D02*
X58406147Y-85241414D01*
X58406147Y-85241414D02*
X58443642Y-85222667D01*
X58443642Y-85222667D02*
X58462390Y-85203919D01*
X58462390Y-85203919D02*
X58481137Y-85166424D01*
X58481137Y-85166424D02*
X58499885Y-85091433D01*
X58499885Y-85091433D02*
X58499885Y-84997695D01*
X58499885Y-84997695D02*
X58481137Y-84922704D01*
X58481137Y-84922704D02*
X58462390Y-84885209D01*
X58462390Y-84885209D02*
X58443642Y-84866461D01*
X58443642Y-84866461D02*
X58406147Y-84847713D01*
X58143680Y-84847713D02*
X57881212Y-84847713D01*
X57881212Y-84847713D02*
X58049941Y-85241414D01*
X57731231Y-85241414D02*
X57731231Y-84847713D01*
X57731231Y-84847713D02*
X57599998Y-85128928D01*
X57599998Y-85128928D02*
X57468764Y-84847713D01*
X57468764Y-84847713D02*
X57468764Y-85241414D01*
X57281287Y-85241414D02*
X57281287Y-84847713D01*
X57281287Y-85035190D02*
X57056315Y-85035190D01*
X57056315Y-85241414D02*
X57056315Y-84847713D01*
X56662614Y-85241414D02*
X56887586Y-85241414D01*
X56775100Y-85241414D02*
X56775100Y-84847713D01*
X56775100Y-84847713D02*
X56812595Y-84903956D01*
X56812595Y-84903956D02*
X56850091Y-84941452D01*
X56850091Y-84941452D02*
X56887586Y-84960199D01*
X56531381Y-84847713D02*
X56287661Y-84847713D01*
X56287661Y-84847713D02*
X56418895Y-84997695D01*
X56418895Y-84997695D02*
X56362652Y-84997695D01*
X56362652Y-84997695D02*
X56325156Y-85016442D01*
X56325156Y-85016442D02*
X56306409Y-85035190D01*
X56306409Y-85035190D02*
X56287661Y-85072685D01*
X56287661Y-85072685D02*
X56287661Y-85166424D01*
X56287661Y-85166424D02*
X56306409Y-85203919D01*
X56306409Y-85203919D02*
X56325156Y-85222667D01*
X56325156Y-85222667D02*
X56362652Y-85241414D01*
X56362652Y-85241414D02*
X56475138Y-85241414D01*
X56475138Y-85241414D02*
X56512633Y-85222667D01*
X56512633Y-85222667D02*
X56531381Y-85203919D01*
X55931456Y-85241414D02*
X56118932Y-85241414D01*
X56118932Y-85241414D02*
X56118932Y-84847713D01*
X129302014Y-129897300D02*
X128908313Y-129897300D01*
X129302014Y-130122272D02*
X129077042Y-129953543D01*
X128908313Y-130122272D02*
X129133285Y-129897300D01*
X129302014Y-130515973D02*
X129114538Y-130384739D01*
X129302014Y-130291001D02*
X128908313Y-130291001D01*
X128908313Y-130291001D02*
X128908313Y-130440982D01*
X128908313Y-130440982D02*
X128927061Y-130478478D01*
X128927061Y-130478478D02*
X128945809Y-130497225D01*
X128945809Y-130497225D02*
X128983304Y-130515973D01*
X128983304Y-130515973D02*
X129039547Y-130515973D01*
X129039547Y-130515973D02*
X129077042Y-130497225D01*
X129077042Y-130497225D02*
X129095790Y-130478478D01*
X129095790Y-130478478D02*
X129114538Y-130440982D01*
X129114538Y-130440982D02*
X129114538Y-130291001D01*
X129302014Y-130684702D02*
X128908313Y-130684702D01*
X128908313Y-130684702D02*
X129189528Y-130815936D01*
X129189528Y-130815936D02*
X128908313Y-130947169D01*
X128908313Y-130947169D02*
X129302014Y-130947169D01*
X128908313Y-131322123D02*
X128908313Y-131134646D01*
X128908313Y-131134646D02*
X129095790Y-131115898D01*
X129095790Y-131115898D02*
X129077042Y-131134646D01*
X129077042Y-131134646D02*
X129058295Y-131172141D01*
X129058295Y-131172141D02*
X129058295Y-131265880D01*
X129058295Y-131265880D02*
X129077042Y-131303375D01*
X129077042Y-131303375D02*
X129095790Y-131322123D01*
X129095790Y-131322123D02*
X129133285Y-131340870D01*
X129133285Y-131340870D02*
X129227024Y-131340870D01*
X129227024Y-131340870D02*
X129264519Y-131322123D01*
X129264519Y-131322123D02*
X129283267Y-131303375D01*
X129283267Y-131303375D02*
X129302014Y-131265880D01*
X129302014Y-131265880D02*
X129302014Y-131172141D01*
X129302014Y-131172141D02*
X129283267Y-131134646D01*
X129283267Y-131134646D02*
X129264519Y-131115898D01*
X128908313Y-131697076D02*
X128908313Y-131509599D01*
X128908313Y-131509599D02*
X129095790Y-131490851D01*
X129095790Y-131490851D02*
X129077042Y-131509599D01*
X129077042Y-131509599D02*
X129058295Y-131547094D01*
X129058295Y-131547094D02*
X129058295Y-131640833D01*
X129058295Y-131640833D02*
X129077042Y-131678328D01*
X129077042Y-131678328D02*
X129095790Y-131697076D01*
X129095790Y-131697076D02*
X129133285Y-131715823D01*
X129133285Y-131715823D02*
X129227024Y-131715823D01*
X129227024Y-131715823D02*
X129264519Y-131697076D01*
X129264519Y-131697076D02*
X129283267Y-131678328D01*
X129283267Y-131678328D02*
X129302014Y-131640833D01*
X129302014Y-131640833D02*
X129302014Y-131547094D01*
X129302014Y-131547094D02*
X129283267Y-131509599D01*
X129283267Y-131509599D02*
X129264519Y-131490851D01*
X128908313Y-131847057D02*
X129302014Y-131940795D01*
X129302014Y-131940795D02*
X129020799Y-132015786D01*
X129020799Y-132015786D02*
X129302014Y-132090776D01*
X129302014Y-132090776D02*
X128908313Y-132184515D01*
X129264519Y-132559468D02*
X129283267Y-132540720D01*
X129283267Y-132540720D02*
X129302014Y-132484477D01*
X129302014Y-132484477D02*
X129302014Y-132446982D01*
X129302014Y-132446982D02*
X129283267Y-132390739D01*
X129283267Y-132390739D02*
X129245771Y-132353244D01*
X129245771Y-132353244D02*
X129208276Y-132334496D01*
X129208276Y-132334496D02*
X129133285Y-132315748D01*
X129133285Y-132315748D02*
X129077042Y-132315748D01*
X129077042Y-132315748D02*
X129002052Y-132334496D01*
X129002052Y-132334496D02*
X128964556Y-132353244D01*
X128964556Y-132353244D02*
X128927061Y-132390739D01*
X128927061Y-132390739D02*
X128908313Y-132446982D01*
X128908313Y-132446982D02*
X128908313Y-132484477D01*
X128908313Y-132484477D02*
X128927061Y-132540720D01*
X128927061Y-132540720D02*
X128945809Y-132559468D01*
X128908313Y-132690702D02*
X128908313Y-132953169D01*
X128908313Y-132953169D02*
X129302014Y-132784440D01*
X129302014Y-133309374D02*
X129302014Y-133084402D01*
X129302014Y-133196888D02*
X128908313Y-133196888D01*
X128908313Y-133196888D02*
X128964556Y-133159393D01*
X128964556Y-133159393D02*
X129002052Y-133121898D01*
X129002052Y-133121898D02*
X129020799Y-133084402D01*
X129095790Y-133478103D02*
X129095790Y-133609337D01*
X129302014Y-133665580D02*
X129302014Y-133478103D01*
X129302014Y-133478103D02*
X128908313Y-133478103D01*
X128908313Y-133478103D02*
X128908313Y-133665580D01*
X129302014Y-134040533D02*
X129302014Y-133815561D01*
X129302014Y-133928047D02*
X128908313Y-133928047D01*
X128908313Y-133928047D02*
X128964556Y-133890552D01*
X128964556Y-133890552D02*
X129002052Y-133853057D01*
X129002052Y-133853057D02*
X129020799Y-133815561D01*
X128908313Y-134284253D02*
X128908313Y-134321748D01*
X128908313Y-134321748D02*
X128927061Y-134359243D01*
X128927061Y-134359243D02*
X128945809Y-134377991D01*
X128945809Y-134377991D02*
X128983304Y-134396739D01*
X128983304Y-134396739D02*
X129058295Y-134415486D01*
X129058295Y-134415486D02*
X129152033Y-134415486D01*
X129152033Y-134415486D02*
X129227024Y-134396739D01*
X129227024Y-134396739D02*
X129264519Y-134377991D01*
X129264519Y-134377991D02*
X129283267Y-134359243D01*
X129283267Y-134359243D02*
X129302014Y-134321748D01*
X129302014Y-134321748D02*
X129302014Y-134284253D01*
X129302014Y-134284253D02*
X129283267Y-134246757D01*
X129283267Y-134246757D02*
X129264519Y-134228010D01*
X129264519Y-134228010D02*
X129227024Y-134209262D01*
X129227024Y-134209262D02*
X129152033Y-134190514D01*
X129152033Y-134190514D02*
X129058295Y-134190514D01*
X129058295Y-134190514D02*
X128983304Y-134209262D01*
X128983304Y-134209262D02*
X128945809Y-134228010D01*
X128945809Y-134228010D02*
X128927061Y-134246757D01*
X128927061Y-134246757D02*
X128908313Y-134284253D01*
X128908313Y-134546720D02*
X128908313Y-134809187D01*
X128908313Y-134809187D02*
X129302014Y-134640458D01*
X129302014Y-134959168D02*
X128908313Y-134959168D01*
X128908313Y-134959168D02*
X129189528Y-135090402D01*
X129189528Y-135090402D02*
X128908313Y-135221635D01*
X128908313Y-135221635D02*
X129302014Y-135221635D01*
X129302014Y-135409112D02*
X128908313Y-135409112D01*
X129095790Y-135409112D02*
X129095790Y-135634084D01*
X129302014Y-135634084D02*
X128908313Y-135634084D01*
X129302014Y-136027785D02*
X129302014Y-135802813D01*
X129302014Y-135915299D02*
X128908313Y-135915299D01*
X128908313Y-135915299D02*
X128964556Y-135877804D01*
X128964556Y-135877804D02*
X129002052Y-135840309D01*
X129002052Y-135840309D02*
X129020799Y-135802813D01*
X128908313Y-136159019D02*
X128908313Y-136402738D01*
X128908313Y-136402738D02*
X129058295Y-136271505D01*
X129058295Y-136271505D02*
X129058295Y-136327748D01*
X129058295Y-136327748D02*
X129077042Y-136365243D01*
X129077042Y-136365243D02*
X129095790Y-136383991D01*
X129095790Y-136383991D02*
X129133285Y-136402738D01*
X129133285Y-136402738D02*
X129227024Y-136402738D01*
X129227024Y-136402738D02*
X129264519Y-136383991D01*
X129264519Y-136383991D02*
X129283267Y-136365243D01*
X129283267Y-136365243D02*
X129302014Y-136327748D01*
X129302014Y-136327748D02*
X129302014Y-136215262D01*
X129302014Y-136215262D02*
X129283267Y-136177766D01*
X129283267Y-136177766D02*
X129264519Y-136159019D01*
X129302014Y-136758944D02*
X129302014Y-136571467D01*
X129302014Y-136571467D02*
X128908313Y-136571467D01*
X213077699Y-81627014D02*
X213077699Y-81233313D01*
X212852727Y-81627014D02*
X213021456Y-81402042D01*
X212852727Y-81233313D02*
X213077699Y-81458285D01*
X212459026Y-81627014D02*
X212590260Y-81439538D01*
X212683998Y-81627014D02*
X212683998Y-81233313D01*
X212683998Y-81233313D02*
X212534017Y-81233313D01*
X212534017Y-81233313D02*
X212496522Y-81252061D01*
X212496522Y-81252061D02*
X212477774Y-81270809D01*
X212477774Y-81270809D02*
X212459026Y-81308304D01*
X212459026Y-81308304D02*
X212459026Y-81364547D01*
X212459026Y-81364547D02*
X212477774Y-81402042D01*
X212477774Y-81402042D02*
X212496522Y-81420790D01*
X212496522Y-81420790D02*
X212534017Y-81439538D01*
X212534017Y-81439538D02*
X212683998Y-81439538D01*
X212290297Y-81627014D02*
X212290297Y-81233313D01*
X212290297Y-81233313D02*
X212159064Y-81514528D01*
X212159064Y-81514528D02*
X212027830Y-81233313D01*
X212027830Y-81233313D02*
X212027830Y-81627014D01*
X211652877Y-81233313D02*
X211840353Y-81233313D01*
X211840353Y-81233313D02*
X211859101Y-81420790D01*
X211859101Y-81420790D02*
X211840353Y-81402042D01*
X211840353Y-81402042D02*
X211802858Y-81383295D01*
X211802858Y-81383295D02*
X211709120Y-81383295D01*
X211709120Y-81383295D02*
X211671624Y-81402042D01*
X211671624Y-81402042D02*
X211652877Y-81420790D01*
X211652877Y-81420790D02*
X211634129Y-81458285D01*
X211634129Y-81458285D02*
X211634129Y-81552024D01*
X211634129Y-81552024D02*
X211652877Y-81589519D01*
X211652877Y-81589519D02*
X211671624Y-81608267D01*
X211671624Y-81608267D02*
X211709120Y-81627014D01*
X211709120Y-81627014D02*
X211802858Y-81627014D01*
X211802858Y-81627014D02*
X211840353Y-81608267D01*
X211840353Y-81608267D02*
X211859101Y-81589519D01*
X211277924Y-81233313D02*
X211465400Y-81233313D01*
X211465400Y-81233313D02*
X211484148Y-81420790D01*
X211484148Y-81420790D02*
X211465400Y-81402042D01*
X211465400Y-81402042D02*
X211427905Y-81383295D01*
X211427905Y-81383295D02*
X211334167Y-81383295D01*
X211334167Y-81383295D02*
X211296671Y-81402042D01*
X211296671Y-81402042D02*
X211277924Y-81420790D01*
X211277924Y-81420790D02*
X211259176Y-81458285D01*
X211259176Y-81458285D02*
X211259176Y-81552024D01*
X211259176Y-81552024D02*
X211277924Y-81589519D01*
X211277924Y-81589519D02*
X211296671Y-81608267D01*
X211296671Y-81608267D02*
X211334167Y-81627014D01*
X211334167Y-81627014D02*
X211427905Y-81627014D01*
X211427905Y-81627014D02*
X211465400Y-81608267D01*
X211465400Y-81608267D02*
X211484148Y-81589519D01*
X211127943Y-81233313D02*
X211034204Y-81627014D01*
X211034204Y-81627014D02*
X210959214Y-81345799D01*
X210959214Y-81345799D02*
X210884223Y-81627014D01*
X210884223Y-81627014D02*
X210790485Y-81233313D01*
X210415531Y-81589519D02*
X210434279Y-81608267D01*
X210434279Y-81608267D02*
X210490522Y-81627014D01*
X210490522Y-81627014D02*
X210528017Y-81627014D01*
X210528017Y-81627014D02*
X210584260Y-81608267D01*
X210584260Y-81608267D02*
X210621756Y-81570771D01*
X210621756Y-81570771D02*
X210640503Y-81533276D01*
X210640503Y-81533276D02*
X210659251Y-81458285D01*
X210659251Y-81458285D02*
X210659251Y-81402042D01*
X210659251Y-81402042D02*
X210640503Y-81327052D01*
X210640503Y-81327052D02*
X210621756Y-81289556D01*
X210621756Y-81289556D02*
X210584260Y-81252061D01*
X210584260Y-81252061D02*
X210528017Y-81233313D01*
X210528017Y-81233313D02*
X210490522Y-81233313D01*
X210490522Y-81233313D02*
X210434279Y-81252061D01*
X210434279Y-81252061D02*
X210415531Y-81270809D01*
X210284298Y-81233313D02*
X210021830Y-81233313D01*
X210021830Y-81233313D02*
X210190559Y-81627014D01*
X209665625Y-81627014D02*
X209890597Y-81627014D01*
X209778111Y-81627014D02*
X209778111Y-81233313D01*
X209778111Y-81233313D02*
X209815606Y-81289556D01*
X209815606Y-81289556D02*
X209853102Y-81327052D01*
X209853102Y-81327052D02*
X209890597Y-81345799D01*
X209496896Y-81420790D02*
X209365663Y-81420790D01*
X209309420Y-81627014D02*
X209496896Y-81627014D01*
X209496896Y-81627014D02*
X209496896Y-81233313D01*
X209496896Y-81233313D02*
X209309420Y-81233313D01*
X208934466Y-81627014D02*
X209159438Y-81627014D01*
X209046952Y-81627014D02*
X209046952Y-81233313D01*
X209046952Y-81233313D02*
X209084447Y-81289556D01*
X209084447Y-81289556D02*
X209121943Y-81327052D01*
X209121943Y-81327052D02*
X209159438Y-81345799D01*
X208690747Y-81233313D02*
X208653251Y-81233313D01*
X208653251Y-81233313D02*
X208615756Y-81252061D01*
X208615756Y-81252061D02*
X208597008Y-81270809D01*
X208597008Y-81270809D02*
X208578261Y-81308304D01*
X208578261Y-81308304D02*
X208559513Y-81383295D01*
X208559513Y-81383295D02*
X208559513Y-81477033D01*
X208559513Y-81477033D02*
X208578261Y-81552024D01*
X208578261Y-81552024D02*
X208597008Y-81589519D01*
X208597008Y-81589519D02*
X208615756Y-81608267D01*
X208615756Y-81608267D02*
X208653251Y-81627014D01*
X208653251Y-81627014D02*
X208690747Y-81627014D01*
X208690747Y-81627014D02*
X208728242Y-81608267D01*
X208728242Y-81608267D02*
X208746990Y-81589519D01*
X208746990Y-81589519D02*
X208765737Y-81552024D01*
X208765737Y-81552024D02*
X208784485Y-81477033D01*
X208784485Y-81477033D02*
X208784485Y-81383295D01*
X208784485Y-81383295D02*
X208765737Y-81308304D01*
X208765737Y-81308304D02*
X208746990Y-81270809D01*
X208746990Y-81270809D02*
X208728242Y-81252061D01*
X208728242Y-81252061D02*
X208690747Y-81233313D01*
X208428280Y-81233313D02*
X208165812Y-81233313D01*
X208165812Y-81233313D02*
X208334541Y-81627014D01*
X208015831Y-81627014D02*
X208015831Y-81233313D01*
X208015831Y-81233313D02*
X207884598Y-81514528D01*
X207884598Y-81514528D02*
X207753364Y-81233313D01*
X207753364Y-81233313D02*
X207753364Y-81627014D01*
X207565887Y-81627014D02*
X207565887Y-81233313D01*
X207565887Y-81420790D02*
X207340915Y-81420790D01*
X207340915Y-81627014D02*
X207340915Y-81233313D01*
X206947214Y-81627014D02*
X207172186Y-81627014D01*
X207059700Y-81627014D02*
X207059700Y-81233313D01*
X207059700Y-81233313D02*
X207097195Y-81289556D01*
X207097195Y-81289556D02*
X207134691Y-81327052D01*
X207134691Y-81327052D02*
X207172186Y-81345799D01*
X206815981Y-81233313D02*
X206572261Y-81233313D01*
X206572261Y-81233313D02*
X206703495Y-81383295D01*
X206703495Y-81383295D02*
X206647252Y-81383295D01*
X206647252Y-81383295D02*
X206609756Y-81402042D01*
X206609756Y-81402042D02*
X206591009Y-81420790D01*
X206591009Y-81420790D02*
X206572261Y-81458285D01*
X206572261Y-81458285D02*
X206572261Y-81552024D01*
X206572261Y-81552024D02*
X206591009Y-81589519D01*
X206591009Y-81589519D02*
X206609756Y-81608267D01*
X206609756Y-81608267D02*
X206647252Y-81627014D01*
X206647252Y-81627014D02*
X206759738Y-81627014D01*
X206759738Y-81627014D02*
X206797233Y-81608267D01*
X206797233Y-81608267D02*
X206815981Y-81589519D01*
X206216056Y-81627014D02*
X206403532Y-81627014D01*
X206403532Y-81627014D02*
X206403532Y-81233313D01*
D10*
X203261904Y-142773866D02*
X203214285Y-142726247D01*
X203214285Y-142726247D02*
X203119047Y-142678628D01*
X203119047Y-142678628D02*
X202928571Y-142773866D01*
X202928571Y-142773866D02*
X202833333Y-142726247D01*
X202833333Y-142726247D02*
X202785714Y-142678628D01*
X204238094Y-152154819D02*
X204238094Y-151154819D01*
X203666666Y-152154819D02*
X204095237Y-151583390D01*
X203666666Y-151154819D02*
X204238094Y-151726247D01*
X202809523Y-151488152D02*
X202809523Y-152154819D01*
X203047618Y-151107200D02*
X203285713Y-151821485D01*
X203285713Y-151821485D02*
X202666666Y-151821485D01*
X203504819Y-83967857D02*
X203504819Y-84063095D01*
X203504819Y-84063095D02*
X203552438Y-84158333D01*
X203552438Y-84158333D02*
X203600057Y-84205952D01*
X203600057Y-84205952D02*
X203695295Y-84253571D01*
X203695295Y-84253571D02*
X203885771Y-84301190D01*
X203885771Y-84301190D02*
X204123866Y-84301190D01*
X204123866Y-84301190D02*
X204314342Y-84253571D01*
X204314342Y-84253571D02*
X204409580Y-84205952D01*
X204409580Y-84205952D02*
X204457200Y-84158333D01*
X204457200Y-84158333D02*
X204504819Y-84063095D01*
X204504819Y-84063095D02*
X204504819Y-83967857D01*
X204504819Y-83967857D02*
X204457200Y-83872619D01*
X204457200Y-83872619D02*
X204409580Y-83825000D01*
X204409580Y-83825000D02*
X204314342Y-83777381D01*
X204314342Y-83777381D02*
X204123866Y-83729762D01*
X204123866Y-83729762D02*
X203885771Y-83729762D01*
X203885771Y-83729762D02*
X203695295Y-83777381D01*
X203695295Y-83777381D02*
X203600057Y-83825000D01*
X203600057Y-83825000D02*
X203552438Y-83872619D01*
X203552438Y-83872619D02*
X203504819Y-83967857D01*
X203504819Y-85158333D02*
X203504819Y-84967857D01*
X203504819Y-84967857D02*
X203552438Y-84872619D01*
X203552438Y-84872619D02*
X203600057Y-84825000D01*
X203600057Y-84825000D02*
X203742914Y-84729762D01*
X203742914Y-84729762D02*
X203933390Y-84682143D01*
X203933390Y-84682143D02*
X204314342Y-84682143D01*
X204314342Y-84682143D02*
X204409580Y-84729762D01*
X204409580Y-84729762D02*
X204457200Y-84777381D01*
X204457200Y-84777381D02*
X204504819Y-84872619D01*
X204504819Y-84872619D02*
X204504819Y-85063095D01*
X204504819Y-85063095D02*
X204457200Y-85158333D01*
X204457200Y-85158333D02*
X204409580Y-85205952D01*
X204409580Y-85205952D02*
X204314342Y-85253571D01*
X204314342Y-85253571D02*
X204076247Y-85253571D01*
X204076247Y-85253571D02*
X203981009Y-85205952D01*
X203981009Y-85205952D02*
X203933390Y-85158333D01*
X203933390Y-85158333D02*
X203885771Y-85063095D01*
X203885771Y-85063095D02*
X203885771Y-84872619D01*
X203885771Y-84872619D02*
X203933390Y-84777381D01*
X203933390Y-84777381D02*
X203981009Y-84729762D01*
X203981009Y-84729762D02*
X204076247Y-84682143D01*
X203504819Y-85586905D02*
X203504819Y-86253571D01*
X203504819Y-86253571D02*
X204504819Y-85825000D01*
X204504819Y-86682143D02*
X204504819Y-86872619D01*
X204504819Y-86872619D02*
X204457200Y-86967857D01*
X204457200Y-86967857D02*
X204409580Y-87015476D01*
X204409580Y-87015476D02*
X204266723Y-87110714D01*
X204266723Y-87110714D02*
X204076247Y-87158333D01*
X204076247Y-87158333D02*
X203695295Y-87158333D01*
X203695295Y-87158333D02*
X203600057Y-87110714D01*
X203600057Y-87110714D02*
X203552438Y-87063095D01*
X203552438Y-87063095D02*
X203504819Y-86967857D01*
X203504819Y-86967857D02*
X203504819Y-86777381D01*
X203504819Y-86777381D02*
X203552438Y-86682143D01*
X203552438Y-86682143D02*
X203600057Y-86634524D01*
X203600057Y-86634524D02*
X203695295Y-86586905D01*
X203695295Y-86586905D02*
X203933390Y-86586905D01*
X203933390Y-86586905D02*
X204028628Y-86634524D01*
X204028628Y-86634524D02*
X204076247Y-86682143D01*
X204076247Y-86682143D02*
X204123866Y-86777381D01*
X204123866Y-86777381D02*
X204123866Y-86967857D01*
X204123866Y-86967857D02*
X204076247Y-87063095D01*
X204076247Y-87063095D02*
X204028628Y-87110714D01*
X204028628Y-87110714D02*
X203933390Y-87158333D01*
X204504819Y-88063095D02*
X204504819Y-87586905D01*
X204504819Y-87586905D02*
X203504819Y-87586905D01*
X204504819Y-88920238D02*
X204504819Y-88348810D01*
X204504819Y-88634524D02*
X203504819Y-88634524D01*
X203504819Y-88634524D02*
X203647676Y-88539286D01*
X203647676Y-88539286D02*
X203742914Y-88444048D01*
X203742914Y-88444048D02*
X203790533Y-88348810D01*
X203504819Y-89539286D02*
X203504819Y-89634524D01*
X203504819Y-89634524D02*
X203552438Y-89729762D01*
X203552438Y-89729762D02*
X203600057Y-89777381D01*
X203600057Y-89777381D02*
X203695295Y-89825000D01*
X203695295Y-89825000D02*
X203885771Y-89872619D01*
X203885771Y-89872619D02*
X204123866Y-89872619D01*
X204123866Y-89872619D02*
X204314342Y-89825000D01*
X204314342Y-89825000D02*
X204409580Y-89777381D01*
X204409580Y-89777381D02*
X204457200Y-89729762D01*
X204457200Y-89729762D02*
X204504819Y-89634524D01*
X204504819Y-89634524D02*
X204504819Y-89539286D01*
X204504819Y-89539286D02*
X204457200Y-89444048D01*
X204457200Y-89444048D02*
X204409580Y-89396429D01*
X204409580Y-89396429D02*
X204314342Y-89348810D01*
X204314342Y-89348810D02*
X204123866Y-89301191D01*
X204123866Y-89301191D02*
X203885771Y-89301191D01*
X203885771Y-89301191D02*
X203695295Y-89348810D01*
X203695295Y-89348810D02*
X203600057Y-89396429D01*
X203600057Y-89396429D02*
X203552438Y-89444048D01*
X203552438Y-89444048D02*
X203504819Y-89539286D01*
X203504819Y-90491667D02*
X203504819Y-90586905D01*
X203504819Y-90586905D02*
X203552438Y-90682143D01*
X203552438Y-90682143D02*
X203600057Y-90729762D01*
X203600057Y-90729762D02*
X203695295Y-90777381D01*
X203695295Y-90777381D02*
X203885771Y-90825000D01*
X203885771Y-90825000D02*
X204123866Y-90825000D01*
X204123866Y-90825000D02*
X204314342Y-90777381D01*
X204314342Y-90777381D02*
X204409580Y-90729762D01*
X204409580Y-90729762D02*
X204457200Y-90682143D01*
X204457200Y-90682143D02*
X204504819Y-90586905D01*
X204504819Y-90586905D02*
X204504819Y-90491667D01*
X204504819Y-90491667D02*
X204457200Y-90396429D01*
X204457200Y-90396429D02*
X204409580Y-90348810D01*
X204409580Y-90348810D02*
X204314342Y-90301191D01*
X204314342Y-90301191D02*
X204123866Y-90253572D01*
X204123866Y-90253572D02*
X203885771Y-90253572D01*
X203885771Y-90253572D02*
X203695295Y-90301191D01*
X203695295Y-90301191D02*
X203600057Y-90348810D01*
X203600057Y-90348810D02*
X203552438Y-90396429D01*
X203552438Y-90396429D02*
X203504819Y-90491667D01*
X203504819Y-91444048D02*
X203504819Y-91539286D01*
X203504819Y-91539286D02*
X203552438Y-91634524D01*
X203552438Y-91634524D02*
X203600057Y-91682143D01*
X203600057Y-91682143D02*
X203695295Y-91729762D01*
X203695295Y-91729762D02*
X203885771Y-91777381D01*
X203885771Y-91777381D02*
X204123866Y-91777381D01*
X204123866Y-91777381D02*
X204314342Y-91729762D01*
X204314342Y-91729762D02*
X204409580Y-91682143D01*
X204409580Y-91682143D02*
X204457200Y-91634524D01*
X204457200Y-91634524D02*
X204504819Y-91539286D01*
X204504819Y-91539286D02*
X204504819Y-91444048D01*
X204504819Y-91444048D02*
X204457200Y-91348810D01*
X204457200Y-91348810D02*
X204409580Y-91301191D01*
X204409580Y-91301191D02*
X204314342Y-91253572D01*
X204314342Y-91253572D02*
X204123866Y-91205953D01*
X204123866Y-91205953D02*
X203885771Y-91205953D01*
X203885771Y-91205953D02*
X203695295Y-91253572D01*
X203695295Y-91253572D02*
X203600057Y-91301191D01*
X203600057Y-91301191D02*
X203552438Y-91348810D01*
X203552438Y-91348810D02*
X203504819Y-91444048D01*
X204123866Y-92205953D02*
X204123866Y-92967858D01*
X203504819Y-93634524D02*
X203504819Y-93729762D01*
X203504819Y-93729762D02*
X203552438Y-93825000D01*
X203552438Y-93825000D02*
X203600057Y-93872619D01*
X203600057Y-93872619D02*
X203695295Y-93920238D01*
X203695295Y-93920238D02*
X203885771Y-93967857D01*
X203885771Y-93967857D02*
X204123866Y-93967857D01*
X204123866Y-93967857D02*
X204314342Y-93920238D01*
X204314342Y-93920238D02*
X204409580Y-93872619D01*
X204409580Y-93872619D02*
X204457200Y-93825000D01*
X204457200Y-93825000D02*
X204504819Y-93729762D01*
X204504819Y-93729762D02*
X204504819Y-93634524D01*
X204504819Y-93634524D02*
X204457200Y-93539286D01*
X204457200Y-93539286D02*
X204409580Y-93491667D01*
X204409580Y-93491667D02*
X204314342Y-93444048D01*
X204314342Y-93444048D02*
X204123866Y-93396429D01*
X204123866Y-93396429D02*
X203885771Y-93396429D01*
X203885771Y-93396429D02*
X203695295Y-93444048D01*
X203695295Y-93444048D02*
X203600057Y-93491667D01*
X203600057Y-93491667D02*
X203552438Y-93539286D01*
X203552438Y-93539286D02*
X203504819Y-93634524D01*
X203504819Y-94872619D02*
X203504819Y-94396429D01*
X203504819Y-94396429D02*
X203981009Y-94348810D01*
X203981009Y-94348810D02*
X203933390Y-94396429D01*
X203933390Y-94396429D02*
X203885771Y-94491667D01*
X203885771Y-94491667D02*
X203885771Y-94729762D01*
X203885771Y-94729762D02*
X203933390Y-94825000D01*
X203933390Y-94825000D02*
X203981009Y-94872619D01*
X203981009Y-94872619D02*
X204076247Y-94920238D01*
X204076247Y-94920238D02*
X204314342Y-94920238D01*
X204314342Y-94920238D02*
X204409580Y-94872619D01*
X204409580Y-94872619D02*
X204457200Y-94825000D01*
X204457200Y-94825000D02*
X204504819Y-94729762D01*
X204504819Y-94729762D02*
X204504819Y-94491667D01*
X204504819Y-94491667D02*
X204457200Y-94396429D01*
X204457200Y-94396429D02*
X204409580Y-94348810D01*
X202661904Y-126073866D02*
X202614285Y-126026247D01*
X202614285Y-126026247D02*
X202519047Y-125978628D01*
X202519047Y-125978628D02*
X202328571Y-126073866D01*
X202328571Y-126073866D02*
X202233333Y-126026247D01*
X202233333Y-126026247D02*
X202185714Y-125978628D01*
X203638094Y-135454819D02*
X203638094Y-134454819D01*
X203066666Y-135454819D02*
X203495237Y-134883390D01*
X203066666Y-134454819D02*
X203638094Y-135026247D01*
X202733332Y-134454819D02*
X202114285Y-134454819D01*
X202114285Y-134454819D02*
X202447618Y-134835771D01*
X202447618Y-134835771D02*
X202304761Y-134835771D01*
X202304761Y-134835771D02*
X202209523Y-134883390D01*
X202209523Y-134883390D02*
X202161904Y-134931009D01*
X202161904Y-134931009D02*
X202114285Y-135026247D01*
X202114285Y-135026247D02*
X202114285Y-135264342D01*
X202114285Y-135264342D02*
X202161904Y-135359580D01*
X202161904Y-135359580D02*
X202209523Y-135407200D01*
X202209523Y-135407200D02*
X202304761Y-135454819D01*
X202304761Y-135454819D02*
X202590475Y-135454819D01*
X202590475Y-135454819D02*
X202685713Y-135407200D01*
X202685713Y-135407200D02*
X202733332Y-135359580D01*
X206568809Y-82466009D02*
X206902142Y-82466009D01*
X206902142Y-82989819D02*
X206902142Y-81989819D01*
X206902142Y-81989819D02*
X206425952Y-81989819D01*
X205521190Y-82037438D02*
X205616428Y-81989819D01*
X205616428Y-81989819D02*
X205759285Y-81989819D01*
X205759285Y-81989819D02*
X205902142Y-82037438D01*
X205902142Y-82037438D02*
X205997380Y-82132676D01*
X205997380Y-82132676D02*
X206044999Y-82227914D01*
X206044999Y-82227914D02*
X206092618Y-82418390D01*
X206092618Y-82418390D02*
X206092618Y-82561247D01*
X206092618Y-82561247D02*
X206044999Y-82751723D01*
X206044999Y-82751723D02*
X205997380Y-82846961D01*
X205997380Y-82846961D02*
X205902142Y-82942200D01*
X205902142Y-82942200D02*
X205759285Y-82989819D01*
X205759285Y-82989819D02*
X205664047Y-82989819D01*
X205664047Y-82989819D02*
X205521190Y-82942200D01*
X205521190Y-82942200D02*
X205473571Y-82894580D01*
X205473571Y-82894580D02*
X205473571Y-82561247D01*
X205473571Y-82561247D02*
X205664047Y-82561247D01*
X204521190Y-82989819D02*
X205092618Y-82989819D01*
X204806904Y-82989819D02*
X204806904Y-81989819D01*
X204806904Y-81989819D02*
X204902142Y-82132676D01*
X204902142Y-82132676D02*
X204997380Y-82227914D01*
X204997380Y-82227914D02*
X205092618Y-82275533D01*
X203949761Y-82418390D02*
X204044999Y-82370771D01*
X204044999Y-82370771D02*
X204092618Y-82323152D01*
X204092618Y-82323152D02*
X204140237Y-82227914D01*
X204140237Y-82227914D02*
X204140237Y-82180295D01*
X204140237Y-82180295D02*
X204092618Y-82085057D01*
X204092618Y-82085057D02*
X204044999Y-82037438D01*
X204044999Y-82037438D02*
X203949761Y-81989819D01*
X203949761Y-81989819D02*
X203759285Y-81989819D01*
X203759285Y-81989819D02*
X203664047Y-82037438D01*
X203664047Y-82037438D02*
X203616428Y-82085057D01*
X203616428Y-82085057D02*
X203568809Y-82180295D01*
X203568809Y-82180295D02*
X203568809Y-82227914D01*
X203568809Y-82227914D02*
X203616428Y-82323152D01*
X203616428Y-82323152D02*
X203664047Y-82370771D01*
X203664047Y-82370771D02*
X203759285Y-82418390D01*
X203759285Y-82418390D02*
X203949761Y-82418390D01*
X203949761Y-82418390D02*
X204044999Y-82466009D01*
X204044999Y-82466009D02*
X204092618Y-82513628D01*
X204092618Y-82513628D02*
X204140237Y-82608866D01*
X204140237Y-82608866D02*
X204140237Y-82799342D01*
X204140237Y-82799342D02*
X204092618Y-82894580D01*
X204092618Y-82894580D02*
X204044999Y-82942200D01*
X204044999Y-82942200D02*
X203949761Y-82989819D01*
X203949761Y-82989819D02*
X203759285Y-82989819D01*
X203759285Y-82989819D02*
X203664047Y-82942200D01*
X203664047Y-82942200D02*
X203616428Y-82894580D01*
X203616428Y-82894580D02*
X203568809Y-82799342D01*
X203568809Y-82799342D02*
X203568809Y-82608866D01*
X203568809Y-82608866D02*
X203616428Y-82513628D01*
X203616428Y-82513628D02*
X203664047Y-82466009D01*
X203664047Y-82466009D02*
X203759285Y-82418390D01*
X203235475Y-81989819D02*
X202568809Y-82989819D01*
X202568809Y-81989819D02*
X203235475Y-82989819D01*
X201711666Y-81989819D02*
X202187856Y-81989819D01*
X202187856Y-81989819D02*
X202235475Y-82466009D01*
X202235475Y-82466009D02*
X202187856Y-82418390D01*
X202187856Y-82418390D02*
X202092618Y-82370771D01*
X202092618Y-82370771D02*
X201854523Y-82370771D01*
X201854523Y-82370771D02*
X201759285Y-82418390D01*
X201759285Y-82418390D02*
X201711666Y-82466009D01*
X201711666Y-82466009D02*
X201664047Y-82561247D01*
X201664047Y-82561247D02*
X201664047Y-82799342D01*
X201664047Y-82799342D02*
X201711666Y-82894580D01*
X201711666Y-82894580D02*
X201759285Y-82942200D01*
X201759285Y-82942200D02*
X201854523Y-82989819D01*
X201854523Y-82989819D02*
X202092618Y-82989819D01*
X202092618Y-82989819D02*
X202187856Y-82942200D01*
X202187856Y-82942200D02*
X202235475Y-82894580D01*
X200664047Y-82989819D02*
X200997380Y-82513628D01*
X201235475Y-82989819D02*
X201235475Y-81989819D01*
X201235475Y-81989819D02*
X200854523Y-81989819D01*
X200854523Y-81989819D02*
X200759285Y-82037438D01*
X200759285Y-82037438D02*
X200711666Y-82085057D01*
X200711666Y-82085057D02*
X200664047Y-82180295D01*
X200664047Y-82180295D02*
X200664047Y-82323152D01*
X200664047Y-82323152D02*
X200711666Y-82418390D01*
X200711666Y-82418390D02*
X200759285Y-82466009D01*
X200759285Y-82466009D02*
X200854523Y-82513628D01*
X200854523Y-82513628D02*
X201235475Y-82513628D01*
X199711666Y-82989819D02*
X200283094Y-82989819D01*
X199997380Y-82989819D02*
X199997380Y-81989819D01*
X199997380Y-81989819D02*
X200092618Y-82132676D01*
X200092618Y-82132676D02*
X200187856Y-82227914D01*
X200187856Y-82227914D02*
X200283094Y-82275533D01*
X199283094Y-82466009D02*
X198949761Y-82466009D01*
X198806904Y-82989819D02*
X199283094Y-82989819D01*
X199283094Y-82989819D02*
X199283094Y-81989819D01*
X199283094Y-81989819D02*
X198806904Y-81989819D01*
X197854523Y-82989819D02*
X198425951Y-82989819D01*
X198140237Y-82989819D02*
X198140237Y-81989819D01*
X198140237Y-81989819D02*
X198235475Y-82132676D01*
X198235475Y-82132676D02*
X198330713Y-82227914D01*
X198330713Y-82227914D02*
X198425951Y-82275533D01*
X197235475Y-81989819D02*
X197140237Y-81989819D01*
X197140237Y-81989819D02*
X197044999Y-82037438D01*
X197044999Y-82037438D02*
X196997380Y-82085057D01*
X196997380Y-82085057D02*
X196949761Y-82180295D01*
X196949761Y-82180295D02*
X196902142Y-82370771D01*
X196902142Y-82370771D02*
X196902142Y-82608866D01*
X196902142Y-82608866D02*
X196949761Y-82799342D01*
X196949761Y-82799342D02*
X196997380Y-82894580D01*
X196997380Y-82894580D02*
X197044999Y-82942200D01*
X197044999Y-82942200D02*
X197140237Y-82989819D01*
X197140237Y-82989819D02*
X197235475Y-82989819D01*
X197235475Y-82989819D02*
X197330713Y-82942200D01*
X197330713Y-82942200D02*
X197378332Y-82894580D01*
X197378332Y-82894580D02*
X197425951Y-82799342D01*
X197425951Y-82799342D02*
X197473570Y-82608866D01*
X197473570Y-82608866D02*
X197473570Y-82370771D01*
X197473570Y-82370771D02*
X197425951Y-82180295D01*
X197425951Y-82180295D02*
X197378332Y-82085057D01*
X197378332Y-82085057D02*
X197330713Y-82037438D01*
X197330713Y-82037438D02*
X197235475Y-81989819D01*
X196044999Y-81989819D02*
X196235475Y-81989819D01*
X196235475Y-81989819D02*
X196330713Y-82037438D01*
X196330713Y-82037438D02*
X196378332Y-82085057D01*
X196378332Y-82085057D02*
X196473570Y-82227914D01*
X196473570Y-82227914D02*
X196521189Y-82418390D01*
X196521189Y-82418390D02*
X196521189Y-82799342D01*
X196521189Y-82799342D02*
X196473570Y-82894580D01*
X196473570Y-82894580D02*
X196425951Y-82942200D01*
X196425951Y-82942200D02*
X196330713Y-82989819D01*
X196330713Y-82989819D02*
X196140237Y-82989819D01*
X196140237Y-82989819D02*
X196044999Y-82942200D01*
X196044999Y-82942200D02*
X195997380Y-82894580D01*
X195997380Y-82894580D02*
X195949761Y-82799342D01*
X195949761Y-82799342D02*
X195949761Y-82561247D01*
X195949761Y-82561247D02*
X195997380Y-82466009D01*
X195997380Y-82466009D02*
X196044999Y-82418390D01*
X196044999Y-82418390D02*
X196140237Y-82370771D01*
X196140237Y-82370771D02*
X196330713Y-82370771D01*
X196330713Y-82370771D02*
X196425951Y-82418390D01*
X196425951Y-82418390D02*
X196473570Y-82466009D01*
X196473570Y-82466009D02*
X196521189Y-82561247D01*
X195521189Y-82989819D02*
X195521189Y-81989819D01*
X195521189Y-81989819D02*
X195187856Y-82704104D01*
X195187856Y-82704104D02*
X194854523Y-81989819D01*
X194854523Y-81989819D02*
X194854523Y-82989819D01*
X193806904Y-82989819D02*
X194140237Y-82513628D01*
X194378332Y-82989819D02*
X194378332Y-81989819D01*
X194378332Y-81989819D02*
X193997380Y-81989819D01*
X193997380Y-81989819D02*
X193902142Y-82037438D01*
X193902142Y-82037438D02*
X193854523Y-82085057D01*
X193854523Y-82085057D02*
X193806904Y-82180295D01*
X193806904Y-82180295D02*
X193806904Y-82323152D01*
X193806904Y-82323152D02*
X193854523Y-82418390D01*
X193854523Y-82418390D02*
X193902142Y-82466009D01*
X193902142Y-82466009D02*
X193997380Y-82513628D01*
X193997380Y-82513628D02*
X194378332Y-82513628D01*
X193521189Y-81989819D02*
X192949761Y-81989819D01*
X193235475Y-82989819D02*
X193235475Y-81989819D01*
X192425951Y-81989819D02*
X192330713Y-81989819D01*
X192330713Y-81989819D02*
X192235475Y-82037438D01*
X192235475Y-82037438D02*
X192187856Y-82085057D01*
X192187856Y-82085057D02*
X192140237Y-82180295D01*
X192140237Y-82180295D02*
X192092618Y-82370771D01*
X192092618Y-82370771D02*
X192092618Y-82608866D01*
X192092618Y-82608866D02*
X192140237Y-82799342D01*
X192140237Y-82799342D02*
X192187856Y-82894580D01*
X192187856Y-82894580D02*
X192235475Y-82942200D01*
X192235475Y-82942200D02*
X192330713Y-82989819D01*
X192330713Y-82989819D02*
X192425951Y-82989819D01*
X192425951Y-82989819D02*
X192521189Y-82942200D01*
X192521189Y-82942200D02*
X192568808Y-82894580D01*
X192568808Y-82894580D02*
X192616427Y-82799342D01*
X192616427Y-82799342D02*
X192664046Y-82608866D01*
X192664046Y-82608866D02*
X192664046Y-82370771D01*
X192664046Y-82370771D02*
X192616427Y-82180295D01*
X192616427Y-82180295D02*
X192568808Y-82085057D01*
X192568808Y-82085057D02*
X192521189Y-82037438D01*
X192521189Y-82037438D02*
X192425951Y-81989819D01*
X191235475Y-81989819D02*
X191425951Y-81989819D01*
X191425951Y-81989819D02*
X191521189Y-82037438D01*
X191521189Y-82037438D02*
X191568808Y-82085057D01*
X191568808Y-82085057D02*
X191664046Y-82227914D01*
X191664046Y-82227914D02*
X191711665Y-82418390D01*
X191711665Y-82418390D02*
X191711665Y-82799342D01*
X191711665Y-82799342D02*
X191664046Y-82894580D01*
X191664046Y-82894580D02*
X191616427Y-82942200D01*
X191616427Y-82942200D02*
X191521189Y-82989819D01*
X191521189Y-82989819D02*
X191330713Y-82989819D01*
X191330713Y-82989819D02*
X191235475Y-82942200D01*
X191235475Y-82942200D02*
X191187856Y-82894580D01*
X191187856Y-82894580D02*
X191140237Y-82799342D01*
X191140237Y-82799342D02*
X191140237Y-82561247D01*
X191140237Y-82561247D02*
X191187856Y-82466009D01*
X191187856Y-82466009D02*
X191235475Y-82418390D01*
X191235475Y-82418390D02*
X191330713Y-82370771D01*
X191330713Y-82370771D02*
X191521189Y-82370771D01*
X191521189Y-82370771D02*
X191616427Y-82418390D01*
X191616427Y-82418390D02*
X191664046Y-82466009D01*
X191664046Y-82466009D02*
X191711665Y-82561247D01*
X114390666Y-162817533D02*
X114324000Y-162750866D01*
X114324000Y-162750866D02*
X114190666Y-162684200D01*
X114190666Y-162684200D02*
X113924000Y-162817533D01*
X113924000Y-162817533D02*
X113790666Y-162750866D01*
X113790666Y-162750866D02*
X113724000Y-162684200D01*
X78643019Y-78210409D02*
X78976352Y-78210409D01*
X78976352Y-78734219D02*
X78976352Y-77734219D01*
X78976352Y-77734219D02*
X78500162Y-77734219D01*
X77595400Y-77781838D02*
X77690638Y-77734219D01*
X77690638Y-77734219D02*
X77833495Y-77734219D01*
X77833495Y-77734219D02*
X77976352Y-77781838D01*
X77976352Y-77781838D02*
X78071590Y-77877076D01*
X78071590Y-77877076D02*
X78119209Y-77972314D01*
X78119209Y-77972314D02*
X78166828Y-78162790D01*
X78166828Y-78162790D02*
X78166828Y-78305647D01*
X78166828Y-78305647D02*
X78119209Y-78496123D01*
X78119209Y-78496123D02*
X78071590Y-78591361D01*
X78071590Y-78591361D02*
X77976352Y-78686600D01*
X77976352Y-78686600D02*
X77833495Y-78734219D01*
X77833495Y-78734219D02*
X77738257Y-78734219D01*
X77738257Y-78734219D02*
X77595400Y-78686600D01*
X77595400Y-78686600D02*
X77547781Y-78638980D01*
X77547781Y-78638980D02*
X77547781Y-78305647D01*
X77547781Y-78305647D02*
X77738257Y-78305647D01*
X77166828Y-77829457D02*
X77119209Y-77781838D01*
X77119209Y-77781838D02*
X77023971Y-77734219D01*
X77023971Y-77734219D02*
X76785876Y-77734219D01*
X76785876Y-77734219D02*
X76690638Y-77781838D01*
X76690638Y-77781838D02*
X76643019Y-77829457D01*
X76643019Y-77829457D02*
X76595400Y-77924695D01*
X76595400Y-77924695D02*
X76595400Y-78019933D01*
X76595400Y-78019933D02*
X76643019Y-78162790D01*
X76643019Y-78162790D02*
X77214447Y-78734219D01*
X77214447Y-78734219D02*
X76595400Y-78734219D01*
X76023971Y-78162790D02*
X76119209Y-78115171D01*
X76119209Y-78115171D02*
X76166828Y-78067552D01*
X76166828Y-78067552D02*
X76214447Y-77972314D01*
X76214447Y-77972314D02*
X76214447Y-77924695D01*
X76214447Y-77924695D02*
X76166828Y-77829457D01*
X76166828Y-77829457D02*
X76119209Y-77781838D01*
X76119209Y-77781838D02*
X76023971Y-77734219D01*
X76023971Y-77734219D02*
X75833495Y-77734219D01*
X75833495Y-77734219D02*
X75738257Y-77781838D01*
X75738257Y-77781838D02*
X75690638Y-77829457D01*
X75690638Y-77829457D02*
X75643019Y-77924695D01*
X75643019Y-77924695D02*
X75643019Y-77972314D01*
X75643019Y-77972314D02*
X75690638Y-78067552D01*
X75690638Y-78067552D02*
X75738257Y-78115171D01*
X75738257Y-78115171D02*
X75833495Y-78162790D01*
X75833495Y-78162790D02*
X76023971Y-78162790D01*
X76023971Y-78162790D02*
X76119209Y-78210409D01*
X76119209Y-78210409D02*
X76166828Y-78258028D01*
X76166828Y-78258028D02*
X76214447Y-78353266D01*
X76214447Y-78353266D02*
X76214447Y-78543742D01*
X76214447Y-78543742D02*
X76166828Y-78638980D01*
X76166828Y-78638980D02*
X76119209Y-78686600D01*
X76119209Y-78686600D02*
X76023971Y-78734219D01*
X76023971Y-78734219D02*
X75833495Y-78734219D01*
X75833495Y-78734219D02*
X75738257Y-78686600D01*
X75738257Y-78686600D02*
X75690638Y-78638980D01*
X75690638Y-78638980D02*
X75643019Y-78543742D01*
X75643019Y-78543742D02*
X75643019Y-78353266D01*
X75643019Y-78353266D02*
X75690638Y-78258028D01*
X75690638Y-78258028D02*
X75738257Y-78210409D01*
X75738257Y-78210409D02*
X75833495Y-78162790D01*
X75309685Y-77734219D02*
X74643019Y-78734219D01*
X74643019Y-77734219D02*
X75309685Y-78734219D01*
X74357304Y-77734219D02*
X73690638Y-77734219D01*
X73690638Y-77734219D02*
X74119209Y-78734219D01*
X72738257Y-78734219D02*
X73071590Y-78258028D01*
X73309685Y-78734219D02*
X73309685Y-77734219D01*
X73309685Y-77734219D02*
X72928733Y-77734219D01*
X72928733Y-77734219D02*
X72833495Y-77781838D01*
X72833495Y-77781838D02*
X72785876Y-77829457D01*
X72785876Y-77829457D02*
X72738257Y-77924695D01*
X72738257Y-77924695D02*
X72738257Y-78067552D01*
X72738257Y-78067552D02*
X72785876Y-78162790D01*
X72785876Y-78162790D02*
X72833495Y-78210409D01*
X72833495Y-78210409D02*
X72928733Y-78258028D01*
X72928733Y-78258028D02*
X73309685Y-78258028D01*
X71785876Y-78734219D02*
X72357304Y-78734219D01*
X72071590Y-78734219D02*
X72071590Y-77734219D01*
X72071590Y-77734219D02*
X72166828Y-77877076D01*
X72166828Y-77877076D02*
X72262066Y-77972314D01*
X72262066Y-77972314D02*
X72357304Y-78019933D01*
X71357304Y-78734219D02*
X71357304Y-77734219D01*
X71357304Y-78210409D02*
X70785876Y-78210409D01*
X70785876Y-78734219D02*
X70785876Y-77734219D01*
X69785876Y-78734219D02*
X70357304Y-78734219D01*
X70071590Y-78734219D02*
X70071590Y-77734219D01*
X70071590Y-77734219D02*
X70166828Y-77877076D01*
X70166828Y-77877076D02*
X70262066Y-77972314D01*
X70262066Y-77972314D02*
X70357304Y-78019933D01*
X69166828Y-77734219D02*
X69071590Y-77734219D01*
X69071590Y-77734219D02*
X68976352Y-77781838D01*
X68976352Y-77781838D02*
X68928733Y-77829457D01*
X68928733Y-77829457D02*
X68881114Y-77924695D01*
X68881114Y-77924695D02*
X68833495Y-78115171D01*
X68833495Y-78115171D02*
X68833495Y-78353266D01*
X68833495Y-78353266D02*
X68881114Y-78543742D01*
X68881114Y-78543742D02*
X68928733Y-78638980D01*
X68928733Y-78638980D02*
X68976352Y-78686600D01*
X68976352Y-78686600D02*
X69071590Y-78734219D01*
X69071590Y-78734219D02*
X69166828Y-78734219D01*
X69166828Y-78734219D02*
X69262066Y-78686600D01*
X69262066Y-78686600D02*
X69309685Y-78638980D01*
X69309685Y-78638980D02*
X69357304Y-78543742D01*
X69357304Y-78543742D02*
X69404923Y-78353266D01*
X69404923Y-78353266D02*
X69404923Y-78115171D01*
X69404923Y-78115171D02*
X69357304Y-77924695D01*
X69357304Y-77924695D02*
X69309685Y-77829457D01*
X69309685Y-77829457D02*
X69262066Y-77781838D01*
X69262066Y-77781838D02*
X69166828Y-77734219D01*
X67976352Y-78067552D02*
X67976352Y-78734219D01*
X68214447Y-77686600D02*
X68452542Y-78400885D01*
X68452542Y-78400885D02*
X67833495Y-78400885D01*
X67452542Y-78734219D02*
X67452542Y-77734219D01*
X66881114Y-78734219D02*
X67309685Y-78162790D01*
X66881114Y-77734219D02*
X67452542Y-78305647D01*
X66452542Y-78734219D02*
X66452542Y-77734219D01*
X66452542Y-77734219D02*
X65881114Y-78734219D01*
X65881114Y-78734219D02*
X65881114Y-77734219D01*
X65547780Y-77734219D02*
X64976352Y-77734219D01*
X65262066Y-78734219D02*
X65262066Y-77734219D01*
X64452542Y-77734219D02*
X64357304Y-77734219D01*
X64357304Y-77734219D02*
X64262066Y-77781838D01*
X64262066Y-77781838D02*
X64214447Y-77829457D01*
X64214447Y-77829457D02*
X64166828Y-77924695D01*
X64166828Y-77924695D02*
X64119209Y-78115171D01*
X64119209Y-78115171D02*
X64119209Y-78353266D01*
X64119209Y-78353266D02*
X64166828Y-78543742D01*
X64166828Y-78543742D02*
X64214447Y-78638980D01*
X64214447Y-78638980D02*
X64262066Y-78686600D01*
X64262066Y-78686600D02*
X64357304Y-78734219D01*
X64357304Y-78734219D02*
X64452542Y-78734219D01*
X64452542Y-78734219D02*
X64547780Y-78686600D01*
X64547780Y-78686600D02*
X64595399Y-78638980D01*
X64595399Y-78638980D02*
X64643018Y-78543742D01*
X64643018Y-78543742D02*
X64690637Y-78353266D01*
X64690637Y-78353266D02*
X64690637Y-78115171D01*
X64690637Y-78115171D02*
X64643018Y-77924695D01*
X64643018Y-77924695D02*
X64595399Y-77829457D01*
X64595399Y-77829457D02*
X64547780Y-77781838D01*
X64547780Y-77781838D02*
X64452542Y-77734219D01*
X63262066Y-77734219D02*
X63452542Y-77734219D01*
X63452542Y-77734219D02*
X63547780Y-77781838D01*
X63547780Y-77781838D02*
X63595399Y-77829457D01*
X63595399Y-77829457D02*
X63690637Y-77972314D01*
X63690637Y-77972314D02*
X63738256Y-78162790D01*
X63738256Y-78162790D02*
X63738256Y-78543742D01*
X63738256Y-78543742D02*
X63690637Y-78638980D01*
X63690637Y-78638980D02*
X63643018Y-78686600D01*
X63643018Y-78686600D02*
X63547780Y-78734219D01*
X63547780Y-78734219D02*
X63357304Y-78734219D01*
X63357304Y-78734219D02*
X63262066Y-78686600D01*
X63262066Y-78686600D02*
X63214447Y-78638980D01*
X63214447Y-78638980D02*
X63166828Y-78543742D01*
X63166828Y-78543742D02*
X63166828Y-78305647D01*
X63166828Y-78305647D02*
X63214447Y-78210409D01*
X63214447Y-78210409D02*
X63262066Y-78162790D01*
X63262066Y-78162790D02*
X63357304Y-78115171D01*
X63357304Y-78115171D02*
X63547780Y-78115171D01*
X63547780Y-78115171D02*
X63643018Y-78162790D01*
X63643018Y-78162790D02*
X63690637Y-78210409D01*
X63690637Y-78210409D02*
X63738256Y-78305647D01*
X117214819Y-133818809D02*
X117214819Y-133914047D01*
X117214819Y-133914047D02*
X117262438Y-134009285D01*
X117262438Y-134009285D02*
X117310057Y-134056904D01*
X117310057Y-134056904D02*
X117405295Y-134104523D01*
X117405295Y-134104523D02*
X117595771Y-134152142D01*
X117595771Y-134152142D02*
X117833866Y-134152142D01*
X117833866Y-134152142D02*
X118024342Y-134104523D01*
X118024342Y-134104523D02*
X118119580Y-134056904D01*
X118119580Y-134056904D02*
X118167200Y-134009285D01*
X118167200Y-134009285D02*
X118214819Y-133914047D01*
X118214819Y-133914047D02*
X118214819Y-133818809D01*
X118214819Y-133818809D02*
X118167200Y-133723571D01*
X118167200Y-133723571D02*
X118119580Y-133675952D01*
X118119580Y-133675952D02*
X118024342Y-133628333D01*
X118024342Y-133628333D02*
X117833866Y-133580714D01*
X117833866Y-133580714D02*
X117595771Y-133580714D01*
X117595771Y-133580714D02*
X117405295Y-133628333D01*
X117405295Y-133628333D02*
X117310057Y-133675952D01*
X117310057Y-133675952D02*
X117262438Y-133723571D01*
X117262438Y-133723571D02*
X117214819Y-133818809D01*
X117214819Y-135009285D02*
X117214819Y-134818809D01*
X117214819Y-134818809D02*
X117262438Y-134723571D01*
X117262438Y-134723571D02*
X117310057Y-134675952D01*
X117310057Y-134675952D02*
X117452914Y-134580714D01*
X117452914Y-134580714D02*
X117643390Y-134533095D01*
X117643390Y-134533095D02*
X118024342Y-134533095D01*
X118024342Y-134533095D02*
X118119580Y-134580714D01*
X118119580Y-134580714D02*
X118167200Y-134628333D01*
X118167200Y-134628333D02*
X118214819Y-134723571D01*
X118214819Y-134723571D02*
X118214819Y-134914047D01*
X118214819Y-134914047D02*
X118167200Y-135009285D01*
X118167200Y-135009285D02*
X118119580Y-135056904D01*
X118119580Y-135056904D02*
X118024342Y-135104523D01*
X118024342Y-135104523D02*
X117786247Y-135104523D01*
X117786247Y-135104523D02*
X117691009Y-135056904D01*
X117691009Y-135056904D02*
X117643390Y-135009285D01*
X117643390Y-135009285D02*
X117595771Y-134914047D01*
X117595771Y-134914047D02*
X117595771Y-134723571D01*
X117595771Y-134723571D02*
X117643390Y-134628333D01*
X117643390Y-134628333D02*
X117691009Y-134580714D01*
X117691009Y-134580714D02*
X117786247Y-134533095D01*
X117214819Y-135437857D02*
X117214819Y-136104523D01*
X117214819Y-136104523D02*
X118214819Y-135675952D01*
X118214819Y-136533095D02*
X118214819Y-136723571D01*
X118214819Y-136723571D02*
X118167200Y-136818809D01*
X118167200Y-136818809D02*
X118119580Y-136866428D01*
X118119580Y-136866428D02*
X117976723Y-136961666D01*
X117976723Y-136961666D02*
X117786247Y-137009285D01*
X117786247Y-137009285D02*
X117405295Y-137009285D01*
X117405295Y-137009285D02*
X117310057Y-136961666D01*
X117310057Y-136961666D02*
X117262438Y-136914047D01*
X117262438Y-136914047D02*
X117214819Y-136818809D01*
X117214819Y-136818809D02*
X117214819Y-136628333D01*
X117214819Y-136628333D02*
X117262438Y-136533095D01*
X117262438Y-136533095D02*
X117310057Y-136485476D01*
X117310057Y-136485476D02*
X117405295Y-136437857D01*
X117405295Y-136437857D02*
X117643390Y-136437857D01*
X117643390Y-136437857D02*
X117738628Y-136485476D01*
X117738628Y-136485476D02*
X117786247Y-136533095D01*
X117786247Y-136533095D02*
X117833866Y-136628333D01*
X117833866Y-136628333D02*
X117833866Y-136818809D01*
X117833866Y-136818809D02*
X117786247Y-136914047D01*
X117786247Y-136914047D02*
X117738628Y-136961666D01*
X117738628Y-136961666D02*
X117643390Y-137009285D01*
X118214819Y-137437857D02*
X117214819Y-137437857D01*
X117691009Y-137437857D02*
X117691009Y-138009285D01*
X118214819Y-138009285D02*
X117214819Y-138009285D01*
X117214819Y-138390238D02*
X117214819Y-139009285D01*
X117214819Y-139009285D02*
X117595771Y-138675952D01*
X117595771Y-138675952D02*
X117595771Y-138818809D01*
X117595771Y-138818809D02*
X117643390Y-138914047D01*
X117643390Y-138914047D02*
X117691009Y-138961666D01*
X117691009Y-138961666D02*
X117786247Y-139009285D01*
X117786247Y-139009285D02*
X118024342Y-139009285D01*
X118024342Y-139009285D02*
X118119580Y-138961666D01*
X118119580Y-138961666D02*
X118167200Y-138914047D01*
X118167200Y-138914047D02*
X118214819Y-138818809D01*
X118214819Y-138818809D02*
X118214819Y-138533095D01*
X118214819Y-138533095D02*
X118167200Y-138437857D01*
X118167200Y-138437857D02*
X118119580Y-138390238D01*
X117214819Y-139628333D02*
X117214819Y-139723571D01*
X117214819Y-139723571D02*
X117262438Y-139818809D01*
X117262438Y-139818809D02*
X117310057Y-139866428D01*
X117310057Y-139866428D02*
X117405295Y-139914047D01*
X117405295Y-139914047D02*
X117595771Y-139961666D01*
X117595771Y-139961666D02*
X117833866Y-139961666D01*
X117833866Y-139961666D02*
X118024342Y-139914047D01*
X118024342Y-139914047D02*
X118119580Y-139866428D01*
X118119580Y-139866428D02*
X118167200Y-139818809D01*
X118167200Y-139818809D02*
X118214819Y-139723571D01*
X118214819Y-139723571D02*
X118214819Y-139628333D01*
X118214819Y-139628333D02*
X118167200Y-139533095D01*
X118167200Y-139533095D02*
X118119580Y-139485476D01*
X118119580Y-139485476D02*
X118024342Y-139437857D01*
X118024342Y-139437857D02*
X117833866Y-139390238D01*
X117833866Y-139390238D02*
X117595771Y-139390238D01*
X117595771Y-139390238D02*
X117405295Y-139437857D01*
X117405295Y-139437857D02*
X117310057Y-139485476D01*
X117310057Y-139485476D02*
X117262438Y-139533095D01*
X117262438Y-139533095D02*
X117214819Y-139628333D01*
X117214819Y-140580714D02*
X117214819Y-140675952D01*
X117214819Y-140675952D02*
X117262438Y-140771190D01*
X117262438Y-140771190D02*
X117310057Y-140818809D01*
X117310057Y-140818809D02*
X117405295Y-140866428D01*
X117405295Y-140866428D02*
X117595771Y-140914047D01*
X117595771Y-140914047D02*
X117833866Y-140914047D01*
X117833866Y-140914047D02*
X118024342Y-140866428D01*
X118024342Y-140866428D02*
X118119580Y-140818809D01*
X118119580Y-140818809D02*
X118167200Y-140771190D01*
X118167200Y-140771190D02*
X118214819Y-140675952D01*
X118214819Y-140675952D02*
X118214819Y-140580714D01*
X118214819Y-140580714D02*
X118167200Y-140485476D01*
X118167200Y-140485476D02*
X118119580Y-140437857D01*
X118119580Y-140437857D02*
X118024342Y-140390238D01*
X118024342Y-140390238D02*
X117833866Y-140342619D01*
X117833866Y-140342619D02*
X117595771Y-140342619D01*
X117595771Y-140342619D02*
X117405295Y-140390238D01*
X117405295Y-140390238D02*
X117310057Y-140437857D01*
X117310057Y-140437857D02*
X117262438Y-140485476D01*
X117262438Y-140485476D02*
X117214819Y-140580714D01*
X117214819Y-141533095D02*
X117214819Y-141628333D01*
X117214819Y-141628333D02*
X117262438Y-141723571D01*
X117262438Y-141723571D02*
X117310057Y-141771190D01*
X117310057Y-141771190D02*
X117405295Y-141818809D01*
X117405295Y-141818809D02*
X117595771Y-141866428D01*
X117595771Y-141866428D02*
X117833866Y-141866428D01*
X117833866Y-141866428D02*
X118024342Y-141818809D01*
X118024342Y-141818809D02*
X118119580Y-141771190D01*
X118119580Y-141771190D02*
X118167200Y-141723571D01*
X118167200Y-141723571D02*
X118214819Y-141628333D01*
X118214819Y-141628333D02*
X118214819Y-141533095D01*
X118214819Y-141533095D02*
X118167200Y-141437857D01*
X118167200Y-141437857D02*
X118119580Y-141390238D01*
X118119580Y-141390238D02*
X118024342Y-141342619D01*
X118024342Y-141342619D02*
X117833866Y-141295000D01*
X117833866Y-141295000D02*
X117595771Y-141295000D01*
X117595771Y-141295000D02*
X117405295Y-141342619D01*
X117405295Y-141342619D02*
X117310057Y-141390238D01*
X117310057Y-141390238D02*
X117262438Y-141437857D01*
X117262438Y-141437857D02*
X117214819Y-141533095D01*
X117833866Y-142295000D02*
X117833866Y-143056905D01*
X117214819Y-143723571D02*
X117214819Y-143818809D01*
X117214819Y-143818809D02*
X117262438Y-143914047D01*
X117262438Y-143914047D02*
X117310057Y-143961666D01*
X117310057Y-143961666D02*
X117405295Y-144009285D01*
X117405295Y-144009285D02*
X117595771Y-144056904D01*
X117595771Y-144056904D02*
X117833866Y-144056904D01*
X117833866Y-144056904D02*
X118024342Y-144009285D01*
X118024342Y-144009285D02*
X118119580Y-143961666D01*
X118119580Y-143961666D02*
X118167200Y-143914047D01*
X118167200Y-143914047D02*
X118214819Y-143818809D01*
X118214819Y-143818809D02*
X118214819Y-143723571D01*
X118214819Y-143723571D02*
X118167200Y-143628333D01*
X118167200Y-143628333D02*
X118119580Y-143580714D01*
X118119580Y-143580714D02*
X118024342Y-143533095D01*
X118024342Y-143533095D02*
X117833866Y-143485476D01*
X117833866Y-143485476D02*
X117595771Y-143485476D01*
X117595771Y-143485476D02*
X117405295Y-143533095D01*
X117405295Y-143533095D02*
X117310057Y-143580714D01*
X117310057Y-143580714D02*
X117262438Y-143628333D01*
X117262438Y-143628333D02*
X117214819Y-143723571D01*
X117214819Y-144961666D02*
X117214819Y-144485476D01*
X117214819Y-144485476D02*
X117691009Y-144437857D01*
X117691009Y-144437857D02*
X117643390Y-144485476D01*
X117643390Y-144485476D02*
X117595771Y-144580714D01*
X117595771Y-144580714D02*
X117595771Y-144818809D01*
X117595771Y-144818809D02*
X117643390Y-144914047D01*
X117643390Y-144914047D02*
X117691009Y-144961666D01*
X117691009Y-144961666D02*
X117786247Y-145009285D01*
X117786247Y-145009285D02*
X118024342Y-145009285D01*
X118024342Y-145009285D02*
X118119580Y-144961666D01*
X118119580Y-144961666D02*
X118167200Y-144914047D01*
X118167200Y-144914047D02*
X118214819Y-144818809D01*
X118214819Y-144818809D02*
X118214819Y-144580714D01*
X118214819Y-144580714D02*
X118167200Y-144485476D01*
X118167200Y-144485476D02*
X118119580Y-144437857D01*
D12*
X57825000Y-82475000D02*
X57825000Y-84975000D01*
X57825000Y-84975000D02*
X61825000Y-84975000D01*
X61825000Y-82475000D02*
X57825000Y-82475000D01*
X61825000Y-82475000D02*
X61825000Y-84975000D01*
X102400000Y-136775000D02*
X102400000Y-130175000D01*
X107900000Y-130175000D02*
X102400000Y-130175000D01*
X107900000Y-136775000D02*
X102400000Y-136775000D01*
X107900000Y-136775000D02*
X107900000Y-130175000D01*
D13*
X197847000Y-84113500D02*
X201403000Y-84113500D01*
X197847000Y-91733500D02*
X197847000Y-84113500D01*
X198990000Y-78462000D02*
X200260000Y-78462000D01*
X198990000Y-79224000D02*
X200260000Y-79224000D01*
X199625000Y-78462000D02*
X198990000Y-79224000D01*
X199625000Y-78462000D02*
X199117000Y-79224000D01*
X199625000Y-78462000D02*
X199244000Y-79224000D01*
X199625000Y-78462000D02*
X199371000Y-79224000D01*
X199625000Y-78462000D02*
X199498000Y-79224000D01*
X199625000Y-78462000D02*
X199752000Y-79224000D01*
X199625000Y-78462000D02*
X199879000Y-79224000D01*
X199625000Y-78462000D02*
X200006000Y-79224000D01*
X199625000Y-78462000D02*
X200133000Y-79224000D01*
X199625000Y-78462000D02*
X200260000Y-79224000D01*
X199625000Y-79478000D02*
X199625000Y-78208000D01*
X199625000Y-80671800D02*
X199625000Y-84113500D01*
X199625000Y-95175200D02*
X199625000Y-91733500D01*
X201403000Y-84113500D02*
X201403000Y-91733500D01*
X201403000Y-91733500D02*
X197847000Y-91733500D01*
D12*
X103955000Y-140675000D02*
X103955000Y-146775000D01*
X103955000Y-146775000D02*
X106495000Y-146775000D01*
X106495000Y-140675000D02*
X103955000Y-140675000D01*
X106495000Y-146775000D02*
X106495000Y-140675000D01*
X64455000Y-89400000D02*
X64455000Y-95500000D01*
X64455000Y-95500000D02*
X66995000Y-95500000D01*
X66995000Y-89400000D02*
X64455000Y-89400000D01*
X66995000Y-95500000D02*
X66995000Y-89400000D01*
X208350000Y-78400000D02*
X208350000Y-75900000D01*
X208350000Y-78400000D02*
X212350000Y-78400000D01*
X212350000Y-75900000D02*
X208350000Y-75900000D01*
X212350000Y-78400000D02*
X212350000Y-75900000D01*
D13*
X68272000Y-87038500D02*
X71828000Y-87038500D01*
X68272000Y-94658500D02*
X68272000Y-87038500D01*
X69415000Y-81387000D02*
X70685000Y-81387000D01*
X69415000Y-82149000D02*
X70685000Y-82149000D01*
X70050000Y-81387000D02*
X69415000Y-82149000D01*
X70050000Y-81387000D02*
X69542000Y-82149000D01*
X70050000Y-81387000D02*
X69669000Y-82149000D01*
X70050000Y-81387000D02*
X69796000Y-82149000D01*
X70050000Y-81387000D02*
X69923000Y-82149000D01*
X70050000Y-81387000D02*
X70177000Y-82149000D01*
X70050000Y-81387000D02*
X70304000Y-82149000D01*
X70050000Y-81387000D02*
X70431000Y-82149000D01*
X70050000Y-81387000D02*
X70558000Y-82149000D01*
X70050000Y-81387000D02*
X70685000Y-82149000D01*
X70050000Y-82403000D02*
X70050000Y-81133000D01*
X70050000Y-83596800D02*
X70050000Y-87038500D01*
X70050000Y-98100200D02*
X70050000Y-94658500D01*
X71828000Y-87038500D02*
X71828000Y-94658500D01*
X71828000Y-94658500D02*
X68272000Y-94658500D01*
D12*
X56740400Y-85664400D02*
X56740400Y-91164400D01*
X63340400Y-85664400D02*
X56740400Y-85664400D01*
X63340400Y-85664400D02*
X63340400Y-91164400D01*
X63340400Y-91164400D02*
X56740400Y-91164400D01*
X123025000Y-137250000D02*
X123025000Y-130650000D01*
X128525000Y-130650000D02*
X123025000Y-130650000D01*
X128525000Y-137250000D02*
X123025000Y-137250000D01*
X128525000Y-137250000D02*
X128525000Y-130650000D01*
X207025000Y-82050000D02*
X207025000Y-87550000D01*
X213625000Y-82050000D02*
X207025000Y-82050000D01*
X213625000Y-82050000D02*
X213625000Y-87550000D01*
X213625000Y-87550000D02*
X207025000Y-87550000D01*
X202780000Y-86275000D02*
X202780000Y-92375000D01*
X202780000Y-92375000D02*
X205320000Y-92375000D01*
X205320000Y-86275000D02*
X202780000Y-86275000D01*
X205320000Y-92375000D02*
X205320000Y-86275000D01*
X208325000Y-78950000D02*
X208325000Y-81450000D01*
X208325000Y-81450000D02*
X212325000Y-81450000D01*
X212325000Y-78950000D02*
X208325000Y-78950000D01*
X212325000Y-78950000D02*
X212325000Y-81450000D01*
X84195000Y-148750000D02*
X84195000Y-161350000D01*
X84195000Y-161350000D02*
X129915000Y-161350000D01*
X129915000Y-148750000D02*
X84195000Y-148750000D01*
X129915000Y-161350000D02*
X129915000Y-148750000D01*
D14*
X126205000Y-147750000D02*
G75*
G02*
X126005000Y-147750000I-100000J0D01*
G01*
X126005000Y-147750000D02*
G75*
G02*
X126205000Y-147750000I100000J0D01*
G01*
D12*
X57815400Y-81864400D02*
X57815400Y-79364400D01*
X57815400Y-81864400D02*
X61815400Y-81864400D01*
X61815400Y-79364400D02*
X57815400Y-79364400D01*
X61815400Y-81864400D02*
X61815400Y-79364400D01*
X124880000Y-141200000D02*
X124880000Y-147300000D01*
X124880000Y-147300000D02*
X127420000Y-147300000D01*
X127420000Y-141200000D02*
X124880000Y-141200000D01*
X127420000Y-147300000D02*
X127420000Y-141200000D01*
D15*
X201145849Y-105460400D02*
G75*
G02*
X198783649Y-105460400I-1181100J0D01*
G01*
X198783649Y-105460400D02*
G75*
G02*
X201145849Y-105460400I1181100J0D01*
G01*
X195645850Y-105460400D02*
G75*
G02*
X193283650Y-105460400I-1181100J0D01*
G01*
X193283650Y-105460400D02*
G75*
G02*
X195645850Y-105460400I1181100J0D01*
G01*
X98491500Y-141176500D02*
X98491500Y-142573500D01*
X99888500Y-142573500D01*
X99888500Y-141176500D01*
X98491500Y-141176500D01*
X88458500Y-141875000D02*
G75*
G02*
X87061500Y-141875000I-698500J0D01*
G01*
X87061500Y-141875000D02*
G75*
G02*
X88458500Y-141875000I698500J0D01*
G01*
D16*
D15*
X65425001Y-146845000D02*
X65520671Y-146864030D01*
X65601777Y-146918223D01*
X65655970Y-146999329D01*
X65674999Y-147095000D01*
X65675000Y-148795001D01*
X65655970Y-148890671D01*
X65601777Y-148971777D01*
X65520671Y-149025970D01*
X65425000Y-149044999D01*
X63724999Y-149045000D01*
X63629329Y-149025970D01*
X63548223Y-148971777D01*
X63494030Y-148890671D01*
X63475001Y-148795000D01*
X63475000Y-147094999D01*
X63494030Y-146999329D01*
X63548223Y-146918223D01*
X63629329Y-146864030D01*
X63725000Y-146845001D01*
X65425001Y-146845000D01*
X65675000Y-158105000D02*
G75*
G02*
X63475000Y-158105000I-1100000J0D01*
G01*
X63475000Y-158105000D02*
G75*
G02*
X65675000Y-158105000I1100000J0D01*
G01*
D16*
D15*
X200825001Y-145795000D02*
X200920671Y-145814030D01*
X201001777Y-145868223D01*
X201055970Y-145949329D01*
X201074999Y-146045000D01*
X201075000Y-147745001D01*
X201055970Y-147840671D01*
X201001777Y-147921777D01*
X200920671Y-147975970D01*
X200825000Y-147994999D01*
X199124999Y-147995000D01*
X199029329Y-147975970D01*
X198948223Y-147921777D01*
X198894030Y-147840671D01*
X198875001Y-147745000D01*
X198875000Y-146044999D01*
X198894030Y-145949329D01*
X198948223Y-145868223D01*
X199029329Y-145814030D01*
X199125000Y-145795001D01*
X200825001Y-145795000D01*
X201075000Y-157055000D02*
G75*
G02*
X198875000Y-157055000I-1100000J0D01*
G01*
X198875000Y-157055000D02*
G75*
G02*
X201075000Y-157055000I1100000J0D01*
G01*
X56690000Y-97075000D02*
X56690000Y-98445000D01*
X58060000Y-98445000D01*
X58060000Y-97075000D01*
X56690000Y-97075000D01*
X58060000Y-95220000D02*
G75*
G02*
X56690000Y-95220000I-685000J0D01*
G01*
X56690000Y-95220000D02*
G75*
G02*
X58060000Y-95220000I685000J0D01*
G01*
X58060000Y-92680000D02*
G75*
G02*
X56690000Y-92680000I-685000J0D01*
G01*
X56690000Y-92680000D02*
G75*
G02*
X58060000Y-92680000I685000J0D01*
G01*
X60600000Y-97760000D02*
G75*
G02*
X59230000Y-97760000I-685000J0D01*
G01*
X59230000Y-97760000D02*
G75*
G02*
X60600000Y-97760000I685000J0D01*
G01*
X60600000Y-95220000D02*
G75*
G02*
X59230000Y-95220000I-685000J0D01*
G01*
X59230000Y-95220000D02*
G75*
G02*
X60600000Y-95220000I685000J0D01*
G01*
X60600000Y-92680000D02*
G75*
G02*
X59230000Y-92680000I-685000J0D01*
G01*
X59230000Y-92680000D02*
G75*
G02*
X60600000Y-92680000I685000J0D01*
G01*
X63140000Y-97760000D02*
G75*
G02*
X61770000Y-97760000I-685000J0D01*
G01*
X61770000Y-97760000D02*
G75*
G02*
X63140000Y-97760000I685000J0D01*
G01*
X63140000Y-95220000D02*
G75*
G02*
X61770000Y-95220000I-685000J0D01*
G01*
X61770000Y-95220000D02*
G75*
G02*
X63140000Y-95220000I685000J0D01*
G01*
X63140000Y-92680000D02*
G75*
G02*
X61770000Y-92680000I-685000J0D01*
G01*
X61770000Y-92680000D02*
G75*
G02*
X63140000Y-92680000I685000J0D01*
G01*
X86375000Y-129595000D02*
X86375000Y-130845000D01*
X87625000Y-130845000D01*
X87625000Y-129595000D01*
X86375000Y-129595000D01*
X90165000Y-130220000D02*
G75*
G02*
X88915000Y-130220000I-625000J0D01*
G01*
X88915000Y-130220000D02*
G75*
G02*
X90165000Y-130220000I625000J0D01*
G01*
X87625000Y-127680000D02*
G75*
G02*
X86375000Y-127680000I-625000J0D01*
G01*
X86375000Y-127680000D02*
G75*
G02*
X87625000Y-127680000I625000J0D01*
G01*
X90165000Y-127680000D02*
G75*
G02*
X88915000Y-127680000I-625000J0D01*
G01*
X88915000Y-127680000D02*
G75*
G02*
X90165000Y-127680000I625000J0D01*
G01*
X87625000Y-125140000D02*
G75*
G02*
X86375000Y-125140000I-625000J0D01*
G01*
X86375000Y-125140000D02*
G75*
G02*
X87625000Y-125140000I625000J0D01*
G01*
X90165000Y-125140000D02*
G75*
G02*
X88915000Y-125140000I-625000J0D01*
G01*
X88915000Y-125140000D02*
G75*
G02*
X90165000Y-125140000I625000J0D01*
G01*
X87625000Y-122600000D02*
G75*
G02*
X86375000Y-122600000I-625000J0D01*
G01*
X86375000Y-122600000D02*
G75*
G02*
X87625000Y-122600000I625000J0D01*
G01*
X90165000Y-122600000D02*
G75*
G02*
X88915000Y-122600000I-625000J0D01*
G01*
X88915000Y-122600000D02*
G75*
G02*
X90165000Y-122600000I625000J0D01*
G01*
X87625000Y-120060000D02*
G75*
G02*
X86375000Y-120060000I-625000J0D01*
G01*
X86375000Y-120060000D02*
G75*
G02*
X87625000Y-120060000I625000J0D01*
G01*
X90165000Y-120060000D02*
G75*
G02*
X88915000Y-120060000I-625000J0D01*
G01*
X88915000Y-120060000D02*
G75*
G02*
X90165000Y-120060000I625000J0D01*
G01*
X87625000Y-117520000D02*
G75*
G02*
X86375000Y-117520000I-625000J0D01*
G01*
X86375000Y-117520000D02*
G75*
G02*
X87625000Y-117520000I625000J0D01*
G01*
X90165000Y-117520000D02*
G75*
G02*
X88915000Y-117520000I-625000J0D01*
G01*
X88915000Y-117520000D02*
G75*
G02*
X90165000Y-117520000I625000J0D01*
G01*
X87625000Y-114980000D02*
G75*
G02*
X86375000Y-114980000I-625000J0D01*
G01*
X86375000Y-114980000D02*
G75*
G02*
X87625000Y-114980000I625000J0D01*
G01*
X90165000Y-114980000D02*
G75*
G02*
X88915000Y-114980000I-625000J0D01*
G01*
X88915000Y-114980000D02*
G75*
G02*
X90165000Y-114980000I625000J0D01*
G01*
X87625000Y-112440000D02*
G75*
G02*
X86375000Y-112440000I-625000J0D01*
G01*
X86375000Y-112440000D02*
G75*
G02*
X87625000Y-112440000I625000J0D01*
G01*
X90165000Y-112440000D02*
G75*
G02*
X88915000Y-112440000I-625000J0D01*
G01*
X88915000Y-112440000D02*
G75*
G02*
X90165000Y-112440000I625000J0D01*
G01*
X87625000Y-109900000D02*
G75*
G02*
X86375000Y-109900000I-625000J0D01*
G01*
X86375000Y-109900000D02*
G75*
G02*
X87625000Y-109900000I625000J0D01*
G01*
X90165000Y-109900000D02*
G75*
G02*
X88915000Y-109900000I-625000J0D01*
G01*
X88915000Y-109900000D02*
G75*
G02*
X90165000Y-109900000I625000J0D01*
G01*
X87625000Y-107360000D02*
G75*
G02*
X86375000Y-107360000I-625000J0D01*
G01*
X86375000Y-107360000D02*
G75*
G02*
X87625000Y-107360000I625000J0D01*
G01*
X90165000Y-107360000D02*
G75*
G02*
X88915000Y-107360000I-625000J0D01*
G01*
X88915000Y-107360000D02*
G75*
G02*
X90165000Y-107360000I625000J0D01*
G01*
X87625000Y-104820000D02*
G75*
G02*
X86375000Y-104820000I-625000J0D01*
G01*
X86375000Y-104820000D02*
G75*
G02*
X87625000Y-104820000I625000J0D01*
G01*
X90165000Y-104820000D02*
G75*
G02*
X88915000Y-104820000I-625000J0D01*
G01*
X88915000Y-104820000D02*
G75*
G02*
X90165000Y-104820000I625000J0D01*
G01*
X87625000Y-102280000D02*
G75*
G02*
X86375000Y-102280000I-625000J0D01*
G01*
X86375000Y-102280000D02*
G75*
G02*
X87625000Y-102280000I625000J0D01*
G01*
X90165000Y-102280000D02*
G75*
G02*
X88915000Y-102280000I-625000J0D01*
G01*
X88915000Y-102280000D02*
G75*
G02*
X90165000Y-102280000I625000J0D01*
G01*
X87625000Y-99740000D02*
G75*
G02*
X86375000Y-99740000I-625000J0D01*
G01*
X86375000Y-99740000D02*
G75*
G02*
X87625000Y-99740000I625000J0D01*
G01*
X90165000Y-99740000D02*
G75*
G02*
X88915000Y-99740000I-625000J0D01*
G01*
X88915000Y-99740000D02*
G75*
G02*
X90165000Y-99740000I625000J0D01*
G01*
X87625000Y-97200000D02*
G75*
G02*
X86375000Y-97200000I-625000J0D01*
G01*
X86375000Y-97200000D02*
G75*
G02*
X87625000Y-97200000I625000J0D01*
G01*
X90165000Y-97200000D02*
G75*
G02*
X88915000Y-97200000I-625000J0D01*
G01*
X88915000Y-97200000D02*
G75*
G02*
X90165000Y-97200000I625000J0D01*
G01*
X87625000Y-94660000D02*
G75*
G02*
X86375000Y-94660000I-625000J0D01*
G01*
X86375000Y-94660000D02*
G75*
G02*
X87625000Y-94660000I625000J0D01*
G01*
X90165000Y-94660000D02*
G75*
G02*
X88915000Y-94660000I-625000J0D01*
G01*
X88915000Y-94660000D02*
G75*
G02*
X90165000Y-94660000I625000J0D01*
G01*
X87625000Y-92120000D02*
G75*
G02*
X86375000Y-92120000I-625000J0D01*
G01*
X86375000Y-92120000D02*
G75*
G02*
X87625000Y-92120000I625000J0D01*
G01*
X90165000Y-92120000D02*
G75*
G02*
X88915000Y-92120000I-625000J0D01*
G01*
X88915000Y-92120000D02*
G75*
G02*
X90165000Y-92120000I625000J0D01*
G01*
X87625000Y-89580000D02*
G75*
G02*
X86375000Y-89580000I-625000J0D01*
G01*
X86375000Y-89580000D02*
G75*
G02*
X87625000Y-89580000I625000J0D01*
G01*
X90165000Y-89580000D02*
G75*
G02*
X88915000Y-89580000I-625000J0D01*
G01*
X88915000Y-89580000D02*
G75*
G02*
X90165000Y-89580000I625000J0D01*
G01*
X87625000Y-87040000D02*
G75*
G02*
X86375000Y-87040000I-625000J0D01*
G01*
X86375000Y-87040000D02*
G75*
G02*
X87625000Y-87040000I625000J0D01*
G01*
X90165000Y-87040000D02*
G75*
G02*
X88915000Y-87040000I-625000J0D01*
G01*
X88915000Y-87040000D02*
G75*
G02*
X90165000Y-87040000I625000J0D01*
G01*
X87625000Y-84500000D02*
G75*
G02*
X86375000Y-84500000I-625000J0D01*
G01*
X86375000Y-84500000D02*
G75*
G02*
X87625000Y-84500000I625000J0D01*
G01*
X90165000Y-84500000D02*
G75*
G02*
X88915000Y-84500000I-625000J0D01*
G01*
X88915000Y-84500000D02*
G75*
G02*
X90165000Y-84500000I625000J0D01*
G01*
X87625000Y-81960000D02*
G75*
G02*
X86375000Y-81960000I-625000J0D01*
G01*
X86375000Y-81960000D02*
G75*
G02*
X87625000Y-81960000I625000J0D01*
G01*
X90165000Y-81960000D02*
G75*
G02*
X88915000Y-81960000I-625000J0D01*
G01*
X88915000Y-81960000D02*
G75*
G02*
X90165000Y-81960000I625000J0D01*
G01*
D16*
D15*
X200400001Y-112225000D02*
X200495671Y-112244030D01*
X200576777Y-112298223D01*
X200630970Y-112379329D01*
X200649999Y-112475000D01*
X200650000Y-114175001D01*
X200630970Y-114270671D01*
X200576777Y-114351777D01*
X200495671Y-114405970D01*
X200400000Y-114424999D01*
X198699999Y-114425000D01*
X198604329Y-114405970D01*
X198523223Y-114351777D01*
X198469030Y-114270671D01*
X198450001Y-114175000D01*
X198450000Y-112474999D01*
X198469030Y-112379329D01*
X198523223Y-112298223D01*
X198604329Y-112244030D01*
X198700000Y-112225001D01*
X200400001Y-112225000D01*
X200650000Y-123485000D02*
G75*
G02*
X198450000Y-123485000I-1100000J0D01*
G01*
X198450000Y-123485000D02*
G75*
G02*
X200650000Y-123485000I1100000J0D01*
G01*
X147335000Y-129495000D02*
X147335000Y-130745000D01*
X148585000Y-130745000D01*
X148585000Y-129495000D01*
X147335000Y-129495000D01*
X151125000Y-130120000D02*
G75*
G02*
X149875000Y-130120000I-625000J0D01*
G01*
X149875000Y-130120000D02*
G75*
G02*
X151125000Y-130120000I625000J0D01*
G01*
X148585000Y-127580000D02*
G75*
G02*
X147335000Y-127580000I-625000J0D01*
G01*
X147335000Y-127580000D02*
G75*
G02*
X148585000Y-127580000I625000J0D01*
G01*
X151125000Y-127580000D02*
G75*
G02*
X149875000Y-127580000I-625000J0D01*
G01*
X149875000Y-127580000D02*
G75*
G02*
X151125000Y-127580000I625000J0D01*
G01*
X148585000Y-125040000D02*
G75*
G02*
X147335000Y-125040000I-625000J0D01*
G01*
X147335000Y-125040000D02*
G75*
G02*
X148585000Y-125040000I625000J0D01*
G01*
X151125000Y-125040000D02*
G75*
G02*
X149875000Y-125040000I-625000J0D01*
G01*
X149875000Y-125040000D02*
G75*
G02*
X151125000Y-125040000I625000J0D01*
G01*
X148585000Y-122500000D02*
G75*
G02*
X147335000Y-122500000I-625000J0D01*
G01*
X147335000Y-122500000D02*
G75*
G02*
X148585000Y-122500000I625000J0D01*
G01*
X151125000Y-122500000D02*
G75*
G02*
X149875000Y-122500000I-625000J0D01*
G01*
X149875000Y-122500000D02*
G75*
G02*
X151125000Y-122500000I625000J0D01*
G01*
X148585000Y-119960000D02*
G75*
G02*
X147335000Y-119960000I-625000J0D01*
G01*
X147335000Y-119960000D02*
G75*
G02*
X148585000Y-119960000I625000J0D01*
G01*
X151125000Y-119960000D02*
G75*
G02*
X149875000Y-119960000I-625000J0D01*
G01*
X149875000Y-119960000D02*
G75*
G02*
X151125000Y-119960000I625000J0D01*
G01*
X148585000Y-117420000D02*
G75*
G02*
X147335000Y-117420000I-625000J0D01*
G01*
X147335000Y-117420000D02*
G75*
G02*
X148585000Y-117420000I625000J0D01*
G01*
X151125000Y-117420000D02*
G75*
G02*
X149875000Y-117420000I-625000J0D01*
G01*
X149875000Y-117420000D02*
G75*
G02*
X151125000Y-117420000I625000J0D01*
G01*
X148585000Y-114880000D02*
G75*
G02*
X147335000Y-114880000I-625000J0D01*
G01*
X147335000Y-114880000D02*
G75*
G02*
X148585000Y-114880000I625000J0D01*
G01*
X151125000Y-114880000D02*
G75*
G02*
X149875000Y-114880000I-625000J0D01*
G01*
X149875000Y-114880000D02*
G75*
G02*
X151125000Y-114880000I625000J0D01*
G01*
X148585000Y-112340000D02*
G75*
G02*
X147335000Y-112340000I-625000J0D01*
G01*
X147335000Y-112340000D02*
G75*
G02*
X148585000Y-112340000I625000J0D01*
G01*
X151125000Y-112340000D02*
G75*
G02*
X149875000Y-112340000I-625000J0D01*
G01*
X149875000Y-112340000D02*
G75*
G02*
X151125000Y-112340000I625000J0D01*
G01*
X148585000Y-109800000D02*
G75*
G02*
X147335000Y-109800000I-625000J0D01*
G01*
X147335000Y-109800000D02*
G75*
G02*
X148585000Y-109800000I625000J0D01*
G01*
X151125000Y-109800000D02*
G75*
G02*
X149875000Y-109800000I-625000J0D01*
G01*
X149875000Y-109800000D02*
G75*
G02*
X151125000Y-109800000I625000J0D01*
G01*
X148585000Y-107260000D02*
G75*
G02*
X147335000Y-107260000I-625000J0D01*
G01*
X147335000Y-107260000D02*
G75*
G02*
X148585000Y-107260000I625000J0D01*
G01*
X151125000Y-107260000D02*
G75*
G02*
X149875000Y-107260000I-625000J0D01*
G01*
X149875000Y-107260000D02*
G75*
G02*
X151125000Y-107260000I625000J0D01*
G01*
X148585000Y-104720000D02*
G75*
G02*
X147335000Y-104720000I-625000J0D01*
G01*
X147335000Y-104720000D02*
G75*
G02*
X148585000Y-104720000I625000J0D01*
G01*
X151125000Y-104720000D02*
G75*
G02*
X149875000Y-104720000I-625000J0D01*
G01*
X149875000Y-104720000D02*
G75*
G02*
X151125000Y-104720000I625000J0D01*
G01*
X148585000Y-102180000D02*
G75*
G02*
X147335000Y-102180000I-625000J0D01*
G01*
X147335000Y-102180000D02*
G75*
G02*
X148585000Y-102180000I625000J0D01*
G01*
X151125000Y-102180000D02*
G75*
G02*
X149875000Y-102180000I-625000J0D01*
G01*
X149875000Y-102180000D02*
G75*
G02*
X151125000Y-102180000I625000J0D01*
G01*
X148585000Y-99640000D02*
G75*
G02*
X147335000Y-99640000I-625000J0D01*
G01*
X147335000Y-99640000D02*
G75*
G02*
X148585000Y-99640000I625000J0D01*
G01*
X151125000Y-99640000D02*
G75*
G02*
X149875000Y-99640000I-625000J0D01*
G01*
X149875000Y-99640000D02*
G75*
G02*
X151125000Y-99640000I625000J0D01*
G01*
X148585000Y-97100000D02*
G75*
G02*
X147335000Y-97100000I-625000J0D01*
G01*
X147335000Y-97100000D02*
G75*
G02*
X148585000Y-97100000I625000J0D01*
G01*
X151125000Y-97100000D02*
G75*
G02*
X149875000Y-97100000I-625000J0D01*
G01*
X149875000Y-97100000D02*
G75*
G02*
X151125000Y-97100000I625000J0D01*
G01*
X148585000Y-94560000D02*
G75*
G02*
X147335000Y-94560000I-625000J0D01*
G01*
X147335000Y-94560000D02*
G75*
G02*
X148585000Y-94560000I625000J0D01*
G01*
X151125000Y-94560000D02*
G75*
G02*
X149875000Y-94560000I-625000J0D01*
G01*
X149875000Y-94560000D02*
G75*
G02*
X151125000Y-94560000I625000J0D01*
G01*
X148585000Y-92020000D02*
G75*
G02*
X147335000Y-92020000I-625000J0D01*
G01*
X147335000Y-92020000D02*
G75*
G02*
X148585000Y-92020000I625000J0D01*
G01*
X151125000Y-92020000D02*
G75*
G02*
X149875000Y-92020000I-625000J0D01*
G01*
X149875000Y-92020000D02*
G75*
G02*
X151125000Y-92020000I625000J0D01*
G01*
X148585000Y-89480000D02*
G75*
G02*
X147335000Y-89480000I-625000J0D01*
G01*
X147335000Y-89480000D02*
G75*
G02*
X148585000Y-89480000I625000J0D01*
G01*
X151125000Y-89480000D02*
G75*
G02*
X149875000Y-89480000I-625000J0D01*
G01*
X149875000Y-89480000D02*
G75*
G02*
X151125000Y-89480000I625000J0D01*
G01*
X148585000Y-86940000D02*
G75*
G02*
X147335000Y-86940000I-625000J0D01*
G01*
X147335000Y-86940000D02*
G75*
G02*
X148585000Y-86940000I625000J0D01*
G01*
X151125000Y-86940000D02*
G75*
G02*
X149875000Y-86940000I-625000J0D01*
G01*
X149875000Y-86940000D02*
G75*
G02*
X151125000Y-86940000I625000J0D01*
G01*
X148585000Y-84400000D02*
G75*
G02*
X147335000Y-84400000I-625000J0D01*
G01*
X147335000Y-84400000D02*
G75*
G02*
X148585000Y-84400000I625000J0D01*
G01*
X151125000Y-84400000D02*
G75*
G02*
X149875000Y-84400000I-625000J0D01*
G01*
X149875000Y-84400000D02*
G75*
G02*
X151125000Y-84400000I625000J0D01*
G01*
X148585000Y-81860000D02*
G75*
G02*
X147335000Y-81860000I-625000J0D01*
G01*
X147335000Y-81860000D02*
G75*
G02*
X148585000Y-81860000I625000J0D01*
G01*
X151125000Y-81860000D02*
G75*
G02*
X149875000Y-81860000I-625000J0D01*
G01*
X149875000Y-81860000D02*
G75*
G02*
X151125000Y-81860000I625000J0D01*
G01*
X162507500Y-131847500D02*
X162507500Y-132832500D01*
X163492500Y-132832500D01*
X163492500Y-131847500D01*
X162507500Y-131847500D01*
X163492500Y-129800000D02*
G75*
G02*
X162507500Y-129800000I-492500J0D01*
G01*
X162507500Y-129800000D02*
G75*
G02*
X163492500Y-129800000I492500J0D01*
G01*
X163492500Y-127260000D02*
G75*
G02*
X162507500Y-127260000I-492500J0D01*
G01*
X162507500Y-127260000D02*
G75*
G02*
X163492500Y-127260000I492500J0D01*
G01*
X163492500Y-124720000D02*
G75*
G02*
X162507500Y-124720000I-492500J0D01*
G01*
X162507500Y-124720000D02*
G75*
G02*
X163492500Y-124720000I492500J0D01*
G01*
D16*
D15*
X199975001Y-128595000D02*
X200070671Y-128614030D01*
X200151777Y-128668223D01*
X200205970Y-128749329D01*
X200224999Y-128845000D01*
X200225000Y-130545001D01*
X200205970Y-130640671D01*
X200151777Y-130721777D01*
X200070671Y-130775970D01*
X199975000Y-130794999D01*
X198274999Y-130795000D01*
X198179329Y-130775970D01*
X198098223Y-130721777D01*
X198044030Y-130640671D01*
X198025001Y-130545000D01*
X198025000Y-128844999D01*
X198044030Y-128749329D01*
X198098223Y-128668223D01*
X198179329Y-128614030D01*
X198275000Y-128595001D01*
X199975001Y-128595000D01*
X200225000Y-139855000D02*
G75*
G02*
X198025000Y-139855000I-1100000J0D01*
G01*
X198025000Y-139855000D02*
G75*
G02*
X200225000Y-139855000I1100000J0D01*
G01*
X114300000Y-140275000D02*
G75*
G02*
X113150000Y-140275000I-575000J0D01*
G01*
X113150000Y-140275000D02*
G75*
G02*
X114300000Y-140275000I575000J0D01*
G01*
X114300000Y-135275000D02*
G75*
G02*
X113150000Y-135275000I-575000J0D01*
G01*
X113150000Y-135275000D02*
G75*
G02*
X114300000Y-135275000I575000J0D01*
G01*
X129887200Y-144890400D02*
X129887200Y-146516000D01*
X131512800Y-146516000D01*
X131512800Y-144890400D01*
X129887200Y-144890400D01*
X131512800Y-131199800D02*
G75*
G02*
X129887200Y-131199800I-812800J0D01*
G01*
X129887200Y-131199800D02*
G75*
G02*
X131512800Y-131199800I812800J0D01*
G01*
X138800000Y-140775000D02*
G75*
G02*
X137650000Y-140775000I-575000J0D01*
G01*
X137650000Y-140775000D02*
G75*
G02*
X138800000Y-140775000I575000J0D01*
G01*
X138800000Y-135775000D02*
G75*
G02*
X137650000Y-135775000I-575000J0D01*
G01*
X137650000Y-135775000D02*
G75*
G02*
X138800000Y-135775000I575000J0D01*
G01*
X135725000Y-140775000D02*
G75*
G02*
X134575000Y-140775000I-575000J0D01*
G01*
X134575000Y-140775000D02*
G75*
G02*
X135725000Y-140775000I575000J0D01*
G01*
X135725000Y-135775000D02*
G75*
G02*
X134575000Y-135775000I-575000J0D01*
G01*
X134575000Y-135775000D02*
G75*
G02*
X135725000Y-135775000I575000J0D01*
G01*
X159507500Y-144547500D02*
X159507500Y-145532500D01*
X160492500Y-145532500D01*
X160492500Y-144547500D01*
X159507500Y-144547500D01*
X160492500Y-142500000D02*
G75*
G02*
X159507500Y-142500000I-492500J0D01*
G01*
X159507500Y-142500000D02*
G75*
G02*
X160492500Y-142500000I492500J0D01*
G01*
X160492500Y-139960000D02*
G75*
G02*
X159507500Y-139960000I-492500J0D01*
G01*
X159507500Y-139960000D02*
G75*
G02*
X160492500Y-139960000I492500J0D01*
G01*
X160492500Y-137420000D02*
G75*
G02*
X159507500Y-137420000I-492500J0D01*
G01*
X159507500Y-137420000D02*
G75*
G02*
X160492500Y-137420000I492500J0D01*
G01*
X160492500Y-134880000D02*
G75*
G02*
X159507500Y-134880000I-492500J0D01*
G01*
X159507500Y-134880000D02*
G75*
G02*
X160492500Y-134880000I492500J0D01*
G01*
X160492500Y-132340000D02*
G75*
G02*
X159507500Y-132340000I-492500J0D01*
G01*
X159507500Y-132340000D02*
G75*
G02*
X160492500Y-132340000I492500J0D01*
G01*
X160492500Y-129800000D02*
G75*
G02*
X159507500Y-129800000I-492500J0D01*
G01*
X159507500Y-129800000D02*
G75*
G02*
X160492500Y-129800000I492500J0D01*
G01*
X160492500Y-127260000D02*
G75*
G02*
X159507500Y-127260000I-492500J0D01*
G01*
X159507500Y-127260000D02*
G75*
G02*
X160492500Y-127260000I492500J0D01*
G01*
X160492500Y-124720000D02*
G75*
G02*
X159507500Y-124720000I-492500J0D01*
G01*
X159507500Y-124720000D02*
G75*
G02*
X160492500Y-124720000I492500J0D01*
G01*
X160492500Y-122180000D02*
G75*
G02*
X159507500Y-122180000I-492500J0D01*
G01*
X159507500Y-122180000D02*
G75*
G02*
X160492500Y-122180000I492500J0D01*
G01*
X160492500Y-119640000D02*
G75*
G02*
X159507500Y-119640000I-492500J0D01*
G01*
X159507500Y-119640000D02*
G75*
G02*
X160492500Y-119640000I492500J0D01*
G01*
X160492500Y-117100000D02*
G75*
G02*
X159507500Y-117100000I-492500J0D01*
G01*
X159507500Y-117100000D02*
G75*
G02*
X160492500Y-117100000I492500J0D01*
G01*
X87086500Y-137751500D02*
X87086500Y-139148500D01*
X88483500Y-139148500D01*
X88483500Y-137751500D01*
X87086500Y-137751500D01*
X99913500Y-138450000D02*
G75*
G02*
X98516500Y-138450000I-698500J0D01*
G01*
X98516500Y-138450000D02*
G75*
G02*
X99913500Y-138450000I698500J0D01*
G01*
X152462500Y-67007500D02*
X152462500Y-68377500D01*
X153832500Y-68377500D01*
X153832500Y-67007500D01*
X152462500Y-67007500D01*
X153832500Y-65152500D02*
G75*
G02*
X152462500Y-65152500I-685000J0D01*
G01*
X152462500Y-65152500D02*
G75*
G02*
X153832500Y-65152500I685000J0D01*
G01*
X153832500Y-62612500D02*
G75*
G02*
X152462500Y-62612500I-685000J0D01*
G01*
X152462500Y-62612500D02*
G75*
G02*
X153832500Y-62612500I685000J0D01*
G01*
X122187400Y-71400000D02*
G75*
G02*
X120612600Y-71400000I-787400J0D01*
G01*
X120612600Y-71400000D02*
G75*
G02*
X122187400Y-71400000I787400J0D01*
G01*
X127267400Y-71400000D02*
G75*
G02*
X125692600Y-71400000I-787400J0D01*
G01*
X125692600Y-71400000D02*
G75*
G02*
X127267400Y-71400000I787400J0D01*
G01*
X177207500Y-154607500D02*
X177207500Y-155592500D01*
X178192500Y-155592500D01*
X178192500Y-154607500D01*
X177207500Y-154607500D01*
X178192500Y-152560000D02*
G75*
G02*
X177207500Y-152560000I-492500J0D01*
G01*
X177207500Y-152560000D02*
G75*
G02*
X178192500Y-152560000I492500J0D01*
G01*
X178192500Y-150020000D02*
G75*
G02*
X177207500Y-150020000I-492500J0D01*
G01*
X177207500Y-150020000D02*
G75*
G02*
X178192500Y-150020000I492500J0D01*
G01*
X178192500Y-147480000D02*
G75*
G02*
X177207500Y-147480000I-492500J0D01*
G01*
X177207500Y-147480000D02*
G75*
G02*
X178192500Y-147480000I492500J0D01*
G01*
X178192500Y-144940000D02*
G75*
G02*
X177207500Y-144940000I-492500J0D01*
G01*
X177207500Y-144940000D02*
G75*
G02*
X178192500Y-144940000I492500J0D01*
G01*
X178192500Y-142400000D02*
G75*
G02*
X177207500Y-142400000I-492500J0D01*
G01*
X177207500Y-142400000D02*
G75*
G02*
X178192500Y-142400000I492500J0D01*
G01*
X178192500Y-139860000D02*
G75*
G02*
X177207500Y-139860000I-492500J0D01*
G01*
X177207500Y-139860000D02*
G75*
G02*
X178192500Y-139860000I492500J0D01*
G01*
X178192500Y-137320000D02*
G75*
G02*
X177207500Y-137320000I-492500J0D01*
G01*
X177207500Y-137320000D02*
G75*
G02*
X178192500Y-137320000I492500J0D01*
G01*
X178192500Y-134780000D02*
G75*
G02*
X177207500Y-134780000I-492500J0D01*
G01*
X177207500Y-134780000D02*
G75*
G02*
X178192500Y-134780000I492500J0D01*
G01*
X178192500Y-132240000D02*
G75*
G02*
X177207500Y-132240000I-492500J0D01*
G01*
X177207500Y-132240000D02*
G75*
G02*
X178192500Y-132240000I492500J0D01*
G01*
X178192500Y-129700000D02*
G75*
G02*
X177207500Y-129700000I-492500J0D01*
G01*
X177207500Y-129700000D02*
G75*
G02*
X178192500Y-129700000I492500J0D01*
G01*
X178192500Y-127160000D02*
G75*
G02*
X177207500Y-127160000I-492500J0D01*
G01*
X177207500Y-127160000D02*
G75*
G02*
X178192500Y-127160000I492500J0D01*
G01*
X178192500Y-124620000D02*
G75*
G02*
X177207500Y-124620000I-492500J0D01*
G01*
X177207500Y-124620000D02*
G75*
G02*
X178192500Y-124620000I492500J0D01*
G01*
X178192500Y-122080000D02*
G75*
G02*
X177207500Y-122080000I-492500J0D01*
G01*
X177207500Y-122080000D02*
G75*
G02*
X178192500Y-122080000I492500J0D01*
G01*
X178192500Y-119540000D02*
G75*
G02*
X177207500Y-119540000I-492500J0D01*
G01*
X177207500Y-119540000D02*
G75*
G02*
X178192500Y-119540000I492500J0D01*
G01*
X178192500Y-117000000D02*
G75*
G02*
X177207500Y-117000000I-492500J0D01*
G01*
X177207500Y-117000000D02*
G75*
G02*
X178192500Y-117000000I492500J0D01*
G01*
D16*
D15*
X65275001Y-130195000D02*
X65370671Y-130214030D01*
X65451777Y-130268223D01*
X65505970Y-130349329D01*
X65524999Y-130445000D01*
X65525000Y-132145001D01*
X65505970Y-132240671D01*
X65451777Y-132321777D01*
X65370671Y-132375970D01*
X65275000Y-132394999D01*
X63574999Y-132395000D01*
X63479329Y-132375970D01*
X63398223Y-132321777D01*
X63344030Y-132240671D01*
X63325001Y-132145000D01*
X63325000Y-130444999D01*
X63344030Y-130349329D01*
X63398223Y-130268223D01*
X63479329Y-130214030D01*
X63575000Y-130195001D01*
X65275001Y-130195000D01*
X65525000Y-141455000D02*
G75*
G02*
X63325000Y-141455000I-1100000J0D01*
G01*
X63325000Y-141455000D02*
G75*
G02*
X65525000Y-141455000I1100000J0D01*
G01*
X206640000Y-93745000D02*
X206640000Y-95115000D01*
X208010000Y-95115000D01*
X208010000Y-93745000D01*
X206640000Y-93745000D01*
X208010000Y-91890000D02*
G75*
G02*
X206640000Y-91890000I-685000J0D01*
G01*
X206640000Y-91890000D02*
G75*
G02*
X208010000Y-91890000I685000J0D01*
G01*
X208010000Y-89350000D02*
G75*
G02*
X206640000Y-89350000I-685000J0D01*
G01*
X206640000Y-89350000D02*
G75*
G02*
X208010000Y-89350000I685000J0D01*
G01*
X210550000Y-94430000D02*
G75*
G02*
X209180000Y-94430000I-685000J0D01*
G01*
X209180000Y-94430000D02*
G75*
G02*
X210550000Y-94430000I685000J0D01*
G01*
X210550000Y-91890000D02*
G75*
G02*
X209180000Y-91890000I-685000J0D01*
G01*
X209180000Y-91890000D02*
G75*
G02*
X210550000Y-91890000I685000J0D01*
G01*
X210550000Y-89350000D02*
G75*
G02*
X209180000Y-89350000I-685000J0D01*
G01*
X209180000Y-89350000D02*
G75*
G02*
X210550000Y-89350000I685000J0D01*
G01*
X213090000Y-94430000D02*
G75*
G02*
X211720000Y-94430000I-685000J0D01*
G01*
X211720000Y-94430000D02*
G75*
G02*
X213090000Y-94430000I685000J0D01*
G01*
X213090000Y-91890000D02*
G75*
G02*
X211720000Y-91890000I-685000J0D01*
G01*
X211720000Y-91890000D02*
G75*
G02*
X213090000Y-91890000I685000J0D01*
G01*
X213090000Y-89350000D02*
G75*
G02*
X211720000Y-89350000I-685000J0D01*
G01*
X211720000Y-89350000D02*
G75*
G02*
X213090000Y-89350000I685000J0D01*
G01*
X178786500Y-106701500D02*
X178786500Y-108098500D01*
X180183500Y-108098500D01*
X180183500Y-106701500D01*
X178786500Y-106701500D01*
X191613500Y-107400000D02*
G75*
G02*
X190216500Y-107400000I-698500J0D01*
G01*
X190216500Y-107400000D02*
G75*
G02*
X191613500Y-107400000I698500J0D01*
G01*
X70791351Y-107214600D02*
G75*
G02*
X68429151Y-107214600I-1181100J0D01*
G01*
X68429151Y-107214600D02*
G75*
G02*
X70791351Y-107214600I1181100J0D01*
G01*
X76291350Y-107214600D02*
G75*
G02*
X73929150Y-107214600I-1181100J0D01*
G01*
X73929150Y-107214600D02*
G75*
G02*
X76291350Y-107214600I1181100J0D01*
G01*
X108912200Y-144290400D02*
X108912200Y-145916000D01*
X110537800Y-145916000D01*
X110537800Y-144290400D01*
X108912200Y-144290400D01*
X110537800Y-130599800D02*
G75*
G02*
X108912200Y-130599800I-812800J0D01*
G01*
X108912200Y-130599800D02*
G75*
G02*
X110537800Y-130599800I812800J0D01*
G01*
X102707400Y-71600000D02*
G75*
G02*
X101132600Y-71600000I-787400J0D01*
G01*
X101132600Y-71600000D02*
G75*
G02*
X102707400Y-71600000I787400J0D01*
G01*
X107787400Y-71600000D02*
G75*
G02*
X106212600Y-71600000I-787400J0D01*
G01*
X106212600Y-71600000D02*
G75*
G02*
X107787400Y-71600000I787400J0D01*
G01*
X178786500Y-110978100D02*
X178786500Y-112375100D01*
X180183500Y-112375100D01*
X180183500Y-110978100D01*
X178786500Y-110978100D01*
X191613500Y-111676600D02*
G75*
G02*
X190216500Y-111676600I-698500J0D01*
G01*
X190216500Y-111676600D02*
G75*
G02*
X191613500Y-111676600I698500J0D01*
G01*
X157127500Y-67007500D02*
X157127500Y-68377500D01*
X158497500Y-68377500D01*
X158497500Y-67007500D01*
X157127500Y-67007500D01*
X158497500Y-65152500D02*
G75*
G02*
X157127500Y-65152500I-685000J0D01*
G01*
X157127500Y-65152500D02*
G75*
G02*
X158497500Y-65152500I685000J0D01*
G01*
X158497500Y-62612500D02*
G75*
G02*
X157127500Y-62612500I-685000J0D01*
G01*
X157127500Y-62612500D02*
G75*
G02*
X158497500Y-62612500I685000J0D01*
G01*
X117375000Y-140275000D02*
G75*
G02*
X116225000Y-140275000I-575000J0D01*
G01*
X116225000Y-140275000D02*
G75*
G02*
X117375000Y-140275000I575000J0D01*
G01*
X117375000Y-135275000D02*
G75*
G02*
X116225000Y-135275000I-575000J0D01*
G01*
X116225000Y-135275000D02*
G75*
G02*
X117375000Y-135275000I575000J0D01*
G01*
D16*
D15*
X65925001Y-113070000D02*
X66020671Y-113089030D01*
X66101777Y-113143223D01*
X66155970Y-113224329D01*
X66174999Y-113320000D01*
X66175000Y-115020001D01*
X66155970Y-115115671D01*
X66101777Y-115196777D01*
X66020671Y-115250970D01*
X65925000Y-115269999D01*
X64224999Y-115270000D01*
X64129329Y-115250970D01*
X64048223Y-115196777D01*
X63994030Y-115115671D01*
X63975001Y-115020000D01*
X63975000Y-113319999D01*
X63994030Y-113224329D01*
X64048223Y-113143223D01*
X64129329Y-113089030D01*
X64225000Y-113070001D01*
X65925001Y-113070000D01*
X66175000Y-124330000D02*
G75*
G02*
X63975000Y-124330000I-1100000J0D01*
G01*
X63975000Y-124330000D02*
G75*
G02*
X66175000Y-124330000I1100000J0D01*
G01*
X74572938Y-130500000D02*
G75*
G02*
X73048938Y-130500000I-762000J0D01*
G01*
X73048938Y-130500000D02*
G75*
G02*
X74572938Y-130500000I762000J0D01*
G01*
X62372938Y-130500000D02*
G75*
G02*
X60848938Y-130500000I-762000J0D01*
G01*
X60848938Y-130500000D02*
G75*
G02*
X62372938Y-130500000I762000J0D01*
G01*
X74572938Y-142500000D02*
G75*
G02*
X73048938Y-142500000I-762000J0D01*
G01*
X73048938Y-142500000D02*
G75*
G02*
X74572938Y-142500000I762000J0D01*
G01*
X60372938Y-136500000D02*
G75*
G02*
X58848938Y-136500000I-762000J0D01*
G01*
X58848938Y-136500000D02*
G75*
G02*
X60372938Y-136500000I762000J0D01*
G01*
X62372938Y-142500000D02*
G75*
G02*
X60848938Y-142500000I-762000J0D01*
G01*
X60848938Y-142500000D02*
G75*
G02*
X62372938Y-142500000I762000J0D01*
G01*
X62900000Y-83725000D02*
G75*
G02*
X61750000Y-83725000I-575000J0D01*
G01*
X61750000Y-83725000D02*
G75*
G02*
X62900000Y-83725000I575000J0D01*
G01*
X57900000Y-83725000D02*
G75*
G02*
X56750000Y-83725000I-575000J0D01*
G01*
X56750000Y-83725000D02*
G75*
G02*
X57900000Y-83725000I575000J0D01*
G01*
X102390000Y-129823000D02*
X102390000Y-131913000D01*
X107910000Y-131913000D01*
X107910000Y-129823000D01*
X102390000Y-129823000D01*
X102390000Y-135037000D02*
X102390000Y-137127000D01*
X107910000Y-137127000D01*
X107910000Y-135037000D01*
X102390000Y-135037000D01*
X74972938Y-113200000D02*
G75*
G02*
X73448938Y-113200000I-762000J0D01*
G01*
X73448938Y-113200000D02*
G75*
G02*
X74972938Y-113200000I762000J0D01*
G01*
X62772938Y-113200000D02*
G75*
G02*
X61248938Y-113200000I-762000J0D01*
G01*
X61248938Y-113200000D02*
G75*
G02*
X62772938Y-113200000I762000J0D01*
G01*
X74972938Y-125200000D02*
G75*
G02*
X73448938Y-125200000I-762000J0D01*
G01*
X73448938Y-125200000D02*
G75*
G02*
X74972938Y-125200000I762000J0D01*
G01*
X60772938Y-119200000D02*
G75*
G02*
X59248938Y-119200000I-762000J0D01*
G01*
X59248938Y-119200000D02*
G75*
G02*
X60772938Y-119200000I762000J0D01*
G01*
X62772938Y-125200000D02*
G75*
G02*
X61248938Y-125200000I-762000J0D01*
G01*
X61248938Y-125200000D02*
G75*
G02*
X62772938Y-125200000I762000J0D01*
G01*
X74572938Y-147200000D02*
G75*
G02*
X73048938Y-147200000I-762000J0D01*
G01*
X73048938Y-147200000D02*
G75*
G02*
X74572938Y-147200000I762000J0D01*
G01*
X62372938Y-147200000D02*
G75*
G02*
X60848938Y-147200000I-762000J0D01*
G01*
X60848938Y-147200000D02*
G75*
G02*
X62372938Y-147200000I762000J0D01*
G01*
X74572938Y-159200000D02*
G75*
G02*
X73048938Y-159200000I-762000J0D01*
G01*
X73048938Y-159200000D02*
G75*
G02*
X74572938Y-159200000I762000J0D01*
G01*
X60372938Y-153200000D02*
G75*
G02*
X58848938Y-153200000I-762000J0D01*
G01*
X58848938Y-153200000D02*
G75*
G02*
X60372938Y-153200000I762000J0D01*
G01*
X62372938Y-159200000D02*
G75*
G02*
X60848938Y-159200000I-762000J0D01*
G01*
X60848938Y-159200000D02*
G75*
G02*
X62372938Y-159200000I762000J0D01*
G01*
X209262000Y-112600000D02*
G75*
G02*
X207738000Y-112600000I-762000J0D01*
G01*
X207738000Y-112600000D02*
G75*
G02*
X209262000Y-112600000I762000J0D01*
G01*
X197062000Y-112600000D02*
G75*
G02*
X195538000Y-112600000I-762000J0D01*
G01*
X195538000Y-112600000D02*
G75*
G02*
X197062000Y-112600000I762000J0D01*
G01*
X209262000Y-124600000D02*
G75*
G02*
X207738000Y-124600000I-762000J0D01*
G01*
X207738000Y-124600000D02*
G75*
G02*
X209262000Y-124600000I762000J0D01*
G01*
X195062000Y-118600000D02*
G75*
G02*
X193538000Y-118600000I-762000J0D01*
G01*
X193538000Y-118600000D02*
G75*
G02*
X195062000Y-118600000I762000J0D01*
G01*
X197062000Y-124600000D02*
G75*
G02*
X195538000Y-124600000I-762000J0D01*
G01*
X195538000Y-124600000D02*
G75*
G02*
X197062000Y-124600000I762000J0D01*
G01*
X198812200Y-79859000D02*
X198812200Y-81484600D01*
X200437800Y-81484600D01*
X200437800Y-79859000D01*
X198812200Y-79859000D01*
X200437800Y-95175200D02*
G75*
G02*
X198812200Y-95175200I-812800J0D01*
G01*
X198812200Y-95175200D02*
G75*
G02*
X200437800Y-95175200I812800J0D01*
G01*
X103825000Y-145105000D02*
X103825000Y-147255000D01*
X106625000Y-147255000D01*
X106625000Y-145105000D01*
X103825000Y-145105000D01*
X103825000Y-140195000D02*
X103825000Y-142345000D01*
X106625000Y-142345000D01*
X106625000Y-140195000D01*
X103825000Y-140195000D01*
X64325000Y-88920000D02*
X64325000Y-91070000D01*
X67125000Y-91070000D01*
X67125000Y-88920000D01*
X64325000Y-88920000D01*
X64325000Y-93830000D02*
X64325000Y-95980000D01*
X67125000Y-95980000D01*
X67125000Y-93830000D01*
X64325000Y-93830000D01*
X208425000Y-77150000D02*
G75*
G02*
X207275000Y-77150000I-575000J0D01*
G01*
X207275000Y-77150000D02*
G75*
G02*
X208425000Y-77150000I575000J0D01*
G01*
X213425000Y-77150000D02*
G75*
G02*
X212275000Y-77150000I-575000J0D01*
G01*
X212275000Y-77150000D02*
G75*
G02*
X213425000Y-77150000I575000J0D01*
G01*
X69237200Y-82784000D02*
X69237200Y-84409600D01*
X70862800Y-84409600D01*
X70862800Y-82784000D01*
X69237200Y-82784000D01*
X70862800Y-98100200D02*
G75*
G02*
X69237200Y-98100200I-812800J0D01*
G01*
X69237200Y-98100200D02*
G75*
G02*
X70862800Y-98100200I812800J0D01*
G01*
X56388400Y-85654400D02*
X56388400Y-91174400D01*
X58478400Y-91174400D01*
X58478400Y-85654400D01*
X56388400Y-85654400D01*
X61602400Y-85654400D02*
X61602400Y-91174400D01*
X63692400Y-91174400D01*
X63692400Y-85654400D01*
X61602400Y-85654400D01*
X123015000Y-130298000D02*
X123015000Y-132388000D01*
X128535000Y-132388000D01*
X128535000Y-130298000D01*
X123015000Y-130298000D01*
X123015000Y-135512000D02*
X123015000Y-137602000D01*
X128535000Y-137602000D01*
X128535000Y-135512000D01*
X123015000Y-135512000D01*
X206673000Y-82040000D02*
X206673000Y-87560000D01*
X208763000Y-87560000D01*
X208763000Y-82040000D01*
X206673000Y-82040000D01*
X211887000Y-82040000D02*
X211887000Y-87560000D01*
X213977000Y-87560000D01*
X213977000Y-82040000D01*
X211887000Y-82040000D01*
X209362000Y-145700000D02*
G75*
G02*
X207838000Y-145700000I-762000J0D01*
G01*
X207838000Y-145700000D02*
G75*
G02*
X209362000Y-145700000I762000J0D01*
G01*
X197162000Y-145700000D02*
G75*
G02*
X195638000Y-145700000I-762000J0D01*
G01*
X195638000Y-145700000D02*
G75*
G02*
X197162000Y-145700000I762000J0D01*
G01*
X209362000Y-157700000D02*
G75*
G02*
X207838000Y-157700000I-762000J0D01*
G01*
X207838000Y-157700000D02*
G75*
G02*
X209362000Y-157700000I762000J0D01*
G01*
X195162000Y-151700000D02*
G75*
G02*
X193638000Y-151700000I-762000J0D01*
G01*
X193638000Y-151700000D02*
G75*
G02*
X195162000Y-151700000I762000J0D01*
G01*
X197162000Y-157700000D02*
G75*
G02*
X195638000Y-157700000I-762000J0D01*
G01*
X195638000Y-157700000D02*
G75*
G02*
X197162000Y-157700000I762000J0D01*
G01*
X202650000Y-85795000D02*
X202650000Y-87945000D01*
X205450000Y-87945000D01*
X205450000Y-85795000D01*
X202650000Y-85795000D01*
X202650000Y-90705000D02*
X202650000Y-92855000D01*
X205450000Y-92855000D01*
X205450000Y-90705000D01*
X202650000Y-90705000D01*
X208762000Y-129000000D02*
G75*
G02*
X207238000Y-129000000I-762000J0D01*
G01*
X207238000Y-129000000D02*
G75*
G02*
X208762000Y-129000000I762000J0D01*
G01*
X196562000Y-129000000D02*
G75*
G02*
X195038000Y-129000000I-762000J0D01*
G01*
X195038000Y-129000000D02*
G75*
G02*
X196562000Y-129000000I762000J0D01*
G01*
X208762000Y-141000000D02*
G75*
G02*
X207238000Y-141000000I-762000J0D01*
G01*
X207238000Y-141000000D02*
G75*
G02*
X208762000Y-141000000I762000J0D01*
G01*
X194562000Y-135000000D02*
G75*
G02*
X193038000Y-135000000I-762000J0D01*
G01*
X193038000Y-135000000D02*
G75*
G02*
X194562000Y-135000000I762000J0D01*
G01*
X196562000Y-141000000D02*
G75*
G02*
X195038000Y-141000000I-762000J0D01*
G01*
X195038000Y-141000000D02*
G75*
G02*
X196562000Y-141000000I762000J0D01*
G01*
X213400000Y-80200000D02*
G75*
G02*
X212250000Y-80200000I-575000J0D01*
G01*
X212250000Y-80200000D02*
G75*
G02*
X213400000Y-80200000I575000J0D01*
G01*
X208400000Y-80200000D02*
G75*
G02*
X207250000Y-80200000I-575000J0D01*
G01*
X207250000Y-80200000D02*
G75*
G02*
X208400000Y-80200000I575000J0D01*
G01*
X124905000Y-152250000D02*
X124905000Y-154650000D01*
X127305000Y-154650000D01*
X127305000Y-152250000D01*
X124905000Y-152250000D01*
X119685000Y-153450000D02*
G75*
G02*
X117285000Y-153450000I-1200000J0D01*
G01*
X117285000Y-153450000D02*
G75*
G02*
X119685000Y-153450000I1200000J0D01*
G01*
X112065000Y-153450000D02*
G75*
G02*
X109665000Y-153450000I-1200000J0D01*
G01*
X109665000Y-153450000D02*
G75*
G02*
X112065000Y-153450000I1200000J0D01*
G01*
X104445000Y-153450000D02*
G75*
G02*
X102045000Y-153450000I-1200000J0D01*
G01*
X102045000Y-153450000D02*
G75*
G02*
X104445000Y-153450000I1200000J0D01*
G01*
X96825000Y-153450000D02*
G75*
G02*
X94425000Y-153450000I-1200000J0D01*
G01*
X94425000Y-153450000D02*
G75*
G02*
X96825000Y-153450000I1200000J0D01*
G01*
X89205000Y-153450000D02*
G75*
G02*
X86805000Y-153450000I-1200000J0D01*
G01*
X86805000Y-153450000D02*
G75*
G02*
X89205000Y-153450000I1200000J0D01*
G01*
X57890400Y-80614400D02*
G75*
G02*
X56740400Y-80614400I-575000J0D01*
G01*
X56740400Y-80614400D02*
G75*
G02*
X57890400Y-80614400I575000J0D01*
G01*
X62890400Y-80614400D02*
G75*
G02*
X61740400Y-80614400I-575000J0D01*
G01*
X61740400Y-80614400D02*
G75*
G02*
X62890400Y-80614400I575000J0D01*
G01*
X124750000Y-145630000D02*
X124750000Y-147780000D01*
X127550000Y-147780000D01*
X127550000Y-145630000D01*
X124750000Y-145630000D01*
X124750000Y-140720000D02*
X124750000Y-142870000D01*
X127550000Y-142870000D01*
X127550000Y-140720000D01*
X124750000Y-140720000D01*
D17*
X54540000Y-59000000D02*
X215040000Y-59000000D01*
X215040000Y-162500000D01*
X54540000Y-162500000D01*
X54540000Y-59000000D01*
M02*
